<mxfile host="Electron" agent="Mozilla/5.0 (X11; Linux x86_64) AppleWebKit/537.36 (KHTML, like Gecko) draw.io/26.2.2 Chrome/134.0.6998.178 Electron/35.1.2 Safari/537.36" version="26.2.2">
  <diagram name="Page-1" id="-mgqhMvqi8qgGIVOwyLq">
    <mxGraphModel dx="1583" dy="993" grid="1" gridSize="10" guides="1" tooltips="1" connect="1" arrows="1" fold="1" page="1" pageScale="1" pageWidth="850" pageHeight="1100" math="0" shadow="0">
      <root>
        <mxCell id="0" />
        <mxCell id="1" parent="0" />
        <mxCell id="-DLyb005Au-b9Tz6lp2c-1" value="" style="shape=image;aspect=fixed;image=data:image/png,iVBORw0KGgoAAAANSUhEUgAAAlgAAAJYCAYAAAC+ZpjcAAAACXBIWXMAAAsTAAALEwEAmpwYAAAgAElEQVR4nOzdfYydZ3rf9+/vfp7nzJkZDoecGYqvkvgmrSxSXK25tesmSGWkcPPiP9ICMpomdtI00AJpk8aNXaAJgrB/FUVcN2iatisUteugbqsF2gIBHNRF60X/aLKNlbWkpewVX7WSKFJ8Hc77Oc9zX/3jOefMOdxdaymRIiP9PovdBQ9v3ufhkci55rqv+7rAzMzMzMzMzMzMzMzMzMzMzMzMzMzMzMzMzMzMzMzMzMzMzMzMzMzMzMzMzMzMzMzMzMzMzMzMzMzMzMzMzMzMzMzMzMzMzMzMzMzMzMzMzMzMzMzMzMzMzMzMzMzMzMzMzMzMzMzMzMzMzMzMzMzMzMzMzMzMzMzMzMzMzMzMzMzMzMzMzMzMzMzMzMzMzMzMzMzMzMzMzMzMzMzMzMzMzMzMzMzMzMzMzMzMzMzMzMzMzMzMzMzMzMzMzMzMzMzMzMzMzMzMzMzMzMzMzMzMzMzMzMzMzMzMzMzMzMzMzMzMzMzMzMzMzMzMzMzMzMzMzMzMzMzMzMzMzMzMzMzMzMzMzMzMzMzMzMzMzMzMzMzMzMzMzMzMzMzMzMzMzMzMzMzMzMzMzMzMzMzMzMzMzMzMzMzMzMzMzMzMzMzMzMzMzMzMzMzMzMzMzMzMzMzMzMzMzMzMzMzMzMzMzMzMzMzMzMzMzMzMzMzMzMzMzMzMzMzMzMzMzMzMzMzMzMzMzMzMzMzMzMzMzMzMzMzMzMzMzMzMzMzMzMzMzMzMzMzMzMzMzMzMzMzMzMzMzMzMzMzMzMzMzMzMzMzMzMzMzMzMzMzMzMzMzMzMzMzMzMzMzMzMzMzMzMzMzMzMzMzMzMzMzMzMzMzMzMzMzMzMzMzMzMzMzMzMzMzMzMzMzMzMzMzMzMzMzMzMzMzMzMzMzMzMzMzMzMzMzMzMzMzMzMzMzMzMzMzMzMzMzMzMzMzMzMzMzMzMzMzMzMzMzMzMzMzMzMzMzMzMzMzMzMzMzMzMzMzMzMzMzMzMzMzMzMzMzMzMzMzMzMzMzMzMzMzMzMzMzMzMzMzMzMzMzMzMzMzMzMzMzMzMzMzMzMzMzMzMzMzMzMzMzMzMzMzMzMzMzMzMzMzMzMzMzMzMzMzMzMzMzMzMzMzMzMzMzMzMzMzMzMzM7LOjR/0AZmZfNP6L1+wL4NjP/NITZZP+WEJ/lIL/9fd/+z/7fx71M5mZfZ6lR/0AZvbwVbl8PiX9ciT9B5H5Myd/5m89+aifyczs88wBltkXQER8OVUzP5FSScCpuq5ffNTPZGb2eeYAy+xz7uS/9h/9mBI/Fk2fiEAioxyP+rnMzD7PHGCZfc7V6CllnmqDK0FwOZXp0gPY2jWcZmY/RPmoH8DMHq4gDoAOiAASIV3Nta7e7z6/dvgvdoPOl0Vs9Tp6/2vvvHrjITyumdnngjNYZp9zKTiEOES0p4LKeWN2ZmrjfvYIziTl6hg0f0cRf6vT448+lIc1M/uccAbL7HMu0NGi7C429RYpJSR98Po/OrN+P3v82rF3D6Ym/Wmhr3aLzp6N6C0D//tDemQzs3/hOYNl9piJ2K5tuvlPj+/8Qa//aM6kUz/zS7NIC6QERG76m2tZ6c79PlOR035ILwG7plNFBHP3u4eZ2ReJM1hmjxmJiLMnOisb6WjO/Jnlf3ryg2j4f6XvXLiffU68TNm/qS+RYieRAWrgHUXcvd9nyllLKL4CpCYyCZr73cPM7IvEGSyzx9DyejpE5i+Uif+UpL+XKv7Mfe/x/nKRSx0Fdg7qrxrgEg0r964N0O+89NIP/YYrxFyhtA8o6shERH2/z2Nm9kXiAMvsMaScngH+/KBbVQ+puN89ZlNVkjkCzA2aXmXgZiI2x98K4O0TJ6q5lesHfujzRMxWKkiItby1jvTB/T6PmdkXiQMss8eQUnNwaiodSkkARUbV/e4xXc0UCUYZLEEfeCs6W7fGlsXrP3nyVH8m/e0y6b/69k+c/NPffvHFXeP7/Mben58F7Rs8GcBGEPd1C9HM7IvGNVhmj5nVt07uzRt6piqhaaARN8j55v3us1lsFUIngQUIoj0ifGflriaK3MvMnw7iFytptp/5/bqo/wAYrWmmp5+E/GSOIAlyxLWk+++jZWb2ReIMltnjZiOdDOJEvx8UCRRxnqTz97tNWaSZgOdSUVXR1mDVyvn6+//kv9iEtu7qt44fnwJ+am+nmu3nWJVihyo64/vkqPcH7A8CIRCXAh5EJ3gzs88tB1hmj5kmYi/SEzlAEhFaEWn85t/Htms48fKZTp2bYwARMezxsJoLXQUC2rqrp3ZPncowv5UzAJmIqq+JOYVJmhfMj14M+gT9B/BbNTP73PIRodljJomjOTieM3QqQFyUyotjS+Lnf+PvPtFPxR9JiiebJv/f/8sv/PJ3xveorjPTVM1+IiVJ5FxvEbyrKLaGaza63bLS5nEFO5uANj1FVZd58huv4ABqM1iJhNCHQfIRoZnZH8IZLLPHTANHu1NpsclBzhChd3d+9fWJuX91qS9L+ZcDfimV6Y/81d/6L6fGf36V9R2R05NAMUh4LUt6p9tsjPpXzZfLZUYnAxZym9RqUuiK1Ex0eZfS3oB9EUGSAF2FngMsM7M/hDNYZo+JeO3l4trB7y4qYm+nKza3iPWN3AQxUeD+8mu/Ok0vfmJqfvanosn01tefuXVrYw/w/nBN1cm7chTPEpRIAHeDuNBn16h/1a0oqy5xIkILESDoC/3eWjH5fhGxO0mjI8JM3PlLl3/9vrvBm5l9kTiDZfa4OPF2Md3R4RA7aEuiasRFBavjy4qGEySeqzd75CZDVtMUg18xVBcLwAvAsL3DXdCl5a3lUQar6k+nCC0hugEE5Bz55h+p9k+0YJCYn00dINoDQsXtB/57NzP7nHEGy+wxca0uqm5uXkBaICCgToq3yjJNZJQU+RlyeiZyIAUSKSgnGpGG8k5Feo7Rn/HYyHCtu6seBWJT3V7Tr7W/kkoJBEkpXdE3v1kDvMbLxeaxxcWmqZcAAmI994LQ2kP+KMzM/oXnDJbZY2Iqp0rixxMs5RwQ0c85fXuLZqL+KkLPovxs5IzaRqR3i6ZantxNi0rlTiBJiYDlJjXvnN9xdXREuNFLB4GdpcRGk0F8UKk/2ufq8X1lk+svIeYHNVoZ9GFCbjJqZvYxnMEye0wUTVFCczJgMWeQ1Jd4q7fCrXuWHq663d39rS0igpDe/80/99dGbRyO/8m/OqWe9iqlwYxnELpx4bd/5aPhmrM/dWKhbvJXIlRIEOJ2RHynP1WNMlz7Nsu0VrCH1B4hAo0iPmykiSJ4MzP7fg6wzB4jAUe6HVUBSORacemJnz67CnDmzJl09vmdU+rFvMoCNsn1Zm8r4p7O7DG7Pyv2FxEg0dSbQIz30ULKcxHlYYhi0CYrC20xlgfb7N9IUU0tKegOOm/VIS7kyBN7mZnZ9/MRodljIH7npZLY/BIwk5Lo9YMIbk+lclR/dfZ5yk4vn0Qstid2NMAlJU0eD/biAGh/xKDzesQ1Qh+OL2lyMSNiH1AkgYiVEN9bn9lu49BMF5XgFLCY21RYIFbJbjJqZvZxHGCZPQbW567tidDpGGSV6ybWIL5bb/Y2h2u6m7NVTukksDvagKcOOBeazE6ROJwUR9phOAJ4X9pu4QCgJnZE8BRQtP1FdScR3y3r+VGNVurnIjJPA3NtPBcN8C4lKw/hIzAz+1xxgGX2GNiKajFCXxaUKYGkG6A36rQ1CnhymioUcQTYORh9Uyc4l3I9kcFSxLEIjhFte3aCK1J8ML6mR5pHHAeK9i+BWEHFpenNzdH7bc52JbEDKNsTQvVz1nfUiXtrwszM7B4OsMweA4pYkOIkUElAxGqE3u0vz4yO7EJlAToMzEVAEDXwVlnXEwFPVtqnVCxGBJJA8aFyMXFEmBRzAccY1WFqM9O/+dGePaMi9yr3BRyrVEy1twiDRGxVd/qTPbfMzOz7OMAyewykiDngOaDUoPM6cHHv0fV6fF2O/BVJC212ipxT/u7RX+gNG3+29wGJpZQqBjOdAd2imQzCCO2ZSakE2muEsPKVb/3+uZ/+5jcb2l+pyHpaYlpoMKZQDUoXf+HaP3QfLDOzj+FbhGaPASX2TnXSzs2tgAIIbhdbxVt8+/wowFJsHpI4WHQqctMAWgFdOaMzGeCll84UH3Z++UnlYtfg1h8oIeLa2W/+3dHswDdOnZrNkZeS2rCpFxkFwyAtAP7H439urugXT4cihQYVWEGvP8VETy4zM/vBHGCZPWJ3f/f0UuTekbIQUgxr06/P/bFvXx+uefm1X12IfnwFICLIddMH3lfEqOnnZSinm3Q8xM5BETwRDRldGX+/akd/qVeXS3lQA7/W5H6IifE3/bqaCfJ+oQRQt/vdmW6Ss95mZj8C/2Vp9ohF1EeBo00DSbByt9nMwbXxNVU/zwFPtyd67ZEecFHRH9Vo7eysFqT0NMHc4HSwH039TkITx4P9Oh2LyMcybRuHIJZFTBTK91O1U4kjEZRC5IhViQuxud5gZmYfywGW2SOm3BwUHMw5SElEcJHEhYk1kXZmOAoUoxot6UJ3RxodId7t1VXkeBGxODjpawjej3tmB2Z4UvBkjvYvAKGLoXRxfE2VmSE4IJEESKwJruQqOcAyM/sROMAye8QadCTDkSZDSkDiUklcGl8TyrsFJ4EKiQiWI3P++tXtxqDdYrpAPAPMx6AInsRHRbpndmDWE6AnMm3GDHgvoffGl6RopgP2thVhAmIj4NpK6RuEZmY/CgdYZo9YEkeLxFOjDFaOD4M00VYhp7QIcTIGAVYSy+TmQnc3owxWiUpgDzA9ymDl+CDTn8hgSbEALMTgiFDiTq082Q2+KGaFDhIMLhmyLvHhrhVnsMzMfhQOsMwekThDit89PSO0f8dsQUTb9TNCV1dWN6+Or1Wwq+xOdQVSEgGrFVyC57cDnujvAPYqje6u1JLejFxO1GCJtH9nWUznGOSmcix365iYZxjBQkfls1LbZFRomSYuLM3tmmgbYWZmP5hvEZo9Kj97ulitNw/nlHZBm3Oqm0CKywd++p1RO4RX/tHXZ1aWV/dJCSQiZ4Db//AXfvmj4Zrjf/KvTvV71VOimWpfEUCjlL77+//K1G3+LwhIb546NZ2J3cPvrJKAlD54/unnPuD1s6NHi2ChTIl+jPbq51Ssrk5dDczM7GM5g2X2qPQ6ZaN0Atidm7ZmamMr31XBRPZqZWXtCIkjuWnavlXrmxHER+Nrqjy3APULgmK7wShbyvlDzrR9st4+caKk4ksidtaDJTmAHNf1jW+MMmG/sffnZ4lYyAQBJNqMWVf5MmfxEaGZ2Y/AGSyzRyXlKhEvBlrMbcBTC/4gZU0MU1ZwPOB4RKAklHk3IiaK0kWzAOmFIKr22K8B4vZWVYwK3Jd37ixm+3ePgHa2oROxnnOjxOrEc81OLxLN4qBQniSBuP1vX/rvJlpHmJnZD+cMltkjsqLlKqSTBAvtqR/9UHqrr8m+VZl8FDhCHlwzjLiUmGyrEE3MSXGY7Vt/q5Aulj1Gt/5m19ZSKC2CpgYJrFpwIcVkQNfkfIDgQB5kwhIiwt+MmZndDwdYZo9INEUAz5WldkSbwqrJcS5i8kafpEPAU5Hb4c1BvA/5/Ym9lHYijrOdlb4LcaGnPCpKzylVKL8AsThITtXAuYZ7bhAGC5AWoA2ulpuNTRGXH+Tv3czs884BltkjkqriALDYqTRIOpELpXPkzXsDnr3VTDeNjgil90PlRICVInYRPM2gEWnAcsC5HakZBVjdzmZB1rPA/CA7lQmupSgm+mSF2BvkvZk2oANdDfDxoJnZfXDa3+wRuPut5xYjcxpIzaAAS2KzFpcW/+XzdwFefu21oqyvLBHNbo1GAApyfPg//fm/PhHwRMRSqrrK9RYgBHcjdOlub8eoKL1WWaLYE2g6YrATsRyp1xvfK0kHc+ZgDAIsERuJYv1hfh5mZp83zmCZPQJRFrshn0DtNzlbvSAT16qoRw1GZ9ferqA+FbAQTVtKlft9pHR9fK9nX/obSzmlfQwGPCNBsBVwc3bPdg0WNTsg7e0O2rcH1BneqIrixvh+OeJAmdJS0IZqIa5kNRMDo83M7A/nAMvsUegXS5H0oqC99ResJNLFeittDZesrVNCekYxGn3T5Ka5EmKiKWjZ0TFFHBve+lMqCHFr7s6t3zv7jTN9gHPHj0/1Uzosou2TJQhoisT7netbk53eYaarirbTO0RwM3K6+TA/DjOzzxsHWGaPQmKXgpMRVIPhzcs54nze7GxnnPZ0C4hjJHYSQUBNpHeiibvjW0VTHoY4Mux/FbkBcfP111/tM3hxc7G7qyA/G1C0Q57boq9GXH3m/PktgCD09dOvVIKdapuLtqN04JbuudloZmZ/OAdYZo9CsLsotR9RpLZB+zLoXO+J/qgofXojl5F5lmBXRCCoQ3EhIk8EWIgDSPuJAIlcb/UV3B5f0uvHXBZH2kakbXU7aL0YOx78xomfqzq348UgFpvByaKAEDej7DuDZWZ2HxxgmX3G4ncOd5XiyamqzRIVhRDcVOatvWXTH67bmN6RgFNFVc4OxuM0EJeLYrJvFeT9BPtj1ME9lgMmbiKWqegSLAWkJNFrYjUpvl3G9i3DtbXZlBuWQN3hXpJQjit/6fyvTdR9mZnZH84Bltln7Nbs/LEcHI9hPFSKECtNVf0Bz58dBTxF0z8kYhapLVyHWpkLnZliInjK0kIqp6aIQEqALhFxaXyNUswJPc2wYajo5azlpkijuTq9XieRYg/QHWTMKEgoabLTu5mZfSwHWGafsTKaw4LDTQ4k6G9kInNt4auvL0vt2dzLr/3qQsq8gJSGDUaJCCXe+fV/4xcHAVbo9OlXKoJFqRjsLoK4KIqJTu9NEwtBPoVUtqtYR3zU29iu+ZqdmSqLrGcY9MkKiLW8BTlPFMGbmdnHc4Bl9hmLpIMEB3Nu5/xtbOWbEpfH11T9ejEUp4AKgrbIXWv9rd73GBSun3j5P6k2l3Z9RcFCRNvuShIpdDWKYmJgtMTCrrJcElEkINAyxDtVf7vmq9lYrkLxQgSLQRBBA1wkcc+RpJmZfRwHWGafsQRHJY42ORj0D70qmAiImlzNQRp1Zm/69ZqkN+piu6/V7c0rZd3oMGKO0XkjBCyXKie7wSd21aPhzSDibqK4OHNwfTvAmi4SYgnoBiARgi0aNZiZ2X1xgGX2GYsc+3fMpm4MZjcjrtQRH46vSUXMEfk4ULT1V7EMca6cTqOAaO7WrkIRxwQ7Y9BkVKkAuHL2/zgzaqvw1k+e3BvB/hxt6mvQgqFPrld735saRWb99SoI9lcpDSc89AN9R8ItGszM7pMDLLPPSLz2crHyz7+yh6QllSKAlEQElysVk0XpkRdBzwBlW3+lZcH57mYxCrA6SiXimYD5walhNP1NlPTRxPuiQxKHhqmvQoBYTWW6fPb550fZqU6HpQh2pu2/FhpFfjcXjYvczczuk2cRmn1W9vyzKsf8j5NZzP02cTQoiLqw44nlC+NLQ2lfZ6Y721vfbAvck+5Gw6WiWRsFRFtlv0hURyF2Do4Ia+AyOU8ERHWTDxbiwHYbBwBuvPCt71zjW98B4Df2/vxsneK4Mhpr9xAhrZLpY2Zm98UZLLPPyI1qqlLTnIRYaJq280IqRaCrOnJ5c7juz/7mrywpYl9uGohoi6Yib2Xlm2uzY7MFgYCjSmVn8MMGuKSimGhEmkj7A+3PtI1D79YNkSf7ZEWprjJLQNo+RlSt0PlOnp6s5zIzs4/lAMvsM1LOThehdFzSzhztLb2VleZ6SjHRxDPqOAYcizzIcpUlgW7Pr8393jde/jt9gNOnX6nKIv2YiJmxX5qDuNY0/Y3x/aRYABYHhetkuItiYp5hrmbmgnxEqBjOIASiSc3KnQ05g2Vmdp8cYJl9RtJGP5HzSWAhAgT9nOM7ypNjbUjpcIjDkTNI1Fs9FFx99Wtf6yMFwNaupYVALwQUEKNGpAm9kyImG5HCXmBvjiC10wXfS/De5NM1u0R6NoiybTIqIoik4sPr159Yf4gfi5nZ55IDLLPPSKfDDsRz09OpyhkCGlK6WKfJ0TdKHCQ4GNE2GK23+jchroyvaVJ/Z0jtbMFoD/WAfoa38lYxcetPsH+hKtui+rZf6eUmdHni4RRzQTwNMajLDCS2ItWXz3Bm4ljSzMw+novczT4D8cap2ZU6nwKpaWKQcIpGwbsq68kAKziqIj2dc5BSIshXA020caBhjoLDo9E3g7cJuHmgmtn4LvC7p09XlfpHM3mhnycK3PuD/479QiUpOoSQRC8aQNce4EdgZvaF4gyW2Wfgzmp/KRp9BahyHtweRHVu9EZ/Od0EIBARCmlP2Z0aFbgLPiDyRAYrUrEzIo4DRXvrLwhiQ6n54JvfPFMDzD+xnKJoDghm8uBmYHtEyNWcmQieRN6t4AWIavDSBsRHxcaMs1dmZp+AM1hmn4Uq7Q7ieaEyBg0/gc2i5Lu7f/rsKsBL3zxT7Lv69w4pYtfwl0kiEx+kFB+MbxfKOxV6FlEKEbnJQldoqtENwuWP5oui2HwqiR3DBFYSBLxX1ul74/sptDhbdDtreXNY4L4SxLu5WnMXdzOzT8AZLLPPQEnaKXSMwTc1/X4QcAtVN4drDl+mLBTPRsR85GFndhHo/XJ6ZqIoXZndRdWdITT8M3xHwbmqG6OMU10ul4p0PAbDm6H9Ax9w7ctvvjka4PzaiZc7kVioado6rfavhRWRLuWp5ADLzOwTcIBl9hkIsVvwZaCSoAnWRFyiWRsVR93K01XOvIBYyE0GQSoKgIu/8W/++6NA7Lk//h8vRkrH2iAsQAmIlZzi0kbezjjNVNMFxGGCuaa9tUjRFn/1xp9tdWvHvNDOiIk6rQZia7PsTrxoZmY/GgdYZp+ByPHUdDd1ALUxEzcjeLMf9ajYfCF1CgXHQW1n9iD31jZWJd0c3yuX+ZAiDsWg56gkhNZT6MOZZmoUYPU2tgqkZwh2BZChWa6bj5TumS1YV0dzxLFRlktCwd2AS1vL153BMjP7BBxgmT1k67/35YMhnkqpbVdVJCF0Symd3SrnR7MFc9oogmj7ZLVFUw3wLmhtfL+i4RDiEKOMkwhYjcjv3e3tGAVEZWd6ShH7O6k9RhTUBO+QJ5uMpohDgkPbuwnEOqSrh+ZxgGVm9gk4wDJ7yPp1HJJ0sB5MvikKEcRdojm/f3pzFGD1OlMzwHPlVKeKtpSqUXAV6onO7Ej7CfaNAqz22G85ss4trlwZBUSplxcyTKv9eQIy4npRpM2J/YhdwK7hDEK1/9MTLN/u7vYRoZnZJ+BbhGYPW8NRxJE8vMpXiiRuXbu+9ebOf+l8H+CV3/16tfrdjSNBQ+SMJIJosrgsJmcLRo6diPnhj6VEEKs77t65+Prrr9YAZ0+c2FErH0koDUffCLLQjZybewIsdgnmh5FUoURkbv47l1/9Ay4/nI/EzOzzzhkss4dNcZzg2eGA595GA8H1Z/7U+S2pTRvdvri8GFF/WVBGjEbf9IE3i0a37tnxqFQ8NSxKz00foeuvv/5qn0EHiK1OXgylLwdUeVDgDvQjeLNisqYrUhwI2s7xAE2bPbs3CDMzs/vgAMvsIRPx1HQ3LeRoO7hvbsVywERn9k4vLYBOBFREoJSAaBK8dfP2aPRNGyclDhRVl+EMwsj1Ooob4/tVnWIexTNAORzyHNBI+d2P1lmdeMCc9sykzmDIs1jPvQbFRBBmZmb3x0eEZg9JBDr/j493srRUTSc2tjJlIXKOD5KYaBzaFOVcyvlIEEUEtCOdtdUUzff+8V/7G1sAp0+/Uq7tWjwCeUfObemW2gL36wpdH99vq87TZSr2QAwL3BFEJFY3trb60IZnr55+pYybeUcaxG4CcvAhSpOjeczM7L44g2X2sLx9onpiaepUCnZTDwrIBYKrdTM5qiblmAvykSBKBE2/D3At5c4o23Rz7kBBisMEO0e94CWIuJClCxP7paIbxBKQIoLUBmLRyzr/p86f3wJ49fQr5cyt+mgK5oYtGiQh0UsRE72yzMzs/jjAMntIrtVFFaQXA5bqQYBVJAFxMTIXx9dGbvaAnpFSIQTBSqBL9Xoe9cma5aNSEccEOydaNCiuKzORwVKwa9jYFMFGziG4PKd6fbhm7drtskbPhrY7vQ9qta4iXX3gH4iZ2ReIAyyzh6TTr0rB88DuJrf1V1UpUHrnw/fzd4frzpw5kxAHOrPTAFISJO5AnOt0y1Ebh41yrghxPNDOQRuHNuMUutOomehtJdg3XxaVQGrDpnXB1fHriEv9bgrYC8wMC9wHa69CdoBlZvYpOMAye0jKZq0k4njAfDPogVXnIEd+98TPnR0dwf3Bl+afAh3Kg0ZZSgmCuwQXUt4a9bXqRCqJeBZiF2NjbSSuq25GGayzP3ViAeUD/dx2thpkpXoBy9OdajSrsLs0p5Q1D9G5p8nobaGJgM3MzO6PAyyzh6WYVUinuh3N5hwQNOvr+ZqkiVt8ivoocHRywDMrSnG5aLZnC9YdEuiUUjk7ymClgsi68M43//PRLcK6KeYDjfpalW3LhxsBbxTl9pFjfyWqQF8GLTbDsTtAwJ0mdW4/jI/EzOyLwgGW2UMQv/NSSWx+ScGO1BaOo0SNuCClycahoYNouw+VUkGCu6Hi3OV3GR4RqmziKWB2mJICctPfXKWcbKkgYp9g32i2YPvyWop4f2OlO8pgqdsUoXwImB29twSZ2xt3cYBlZvYpuE2D2UOwPndtT+Tqq6Eo2vorERE1cC6Rl8fXKjiCOBLDTu8EEXHnf/63/vq7g4ajvPjSmfnNWHsWkhg2Io1oCN6Ne2YVNsFRwZE8ftEQNpT4aH5x+Z7ZgtqX0FSMgjEh6ea/d/2/nuyVZWZm98UZLHQ+R+cAACAASURBVLOHIOfOgsgnBWXOg8bsQQNc6KdyMoMlHam6UwsxWFhv9SClG0jBoB9Dv9zYGZGOASXb5VdNiKtqJmcVqm33cHSYqkptt6x1NenK8kfzowxWXTMjWCxVjLZsIhOEs1dmZp+SM1hmD0HOMUfS04IiAorEIMDSu2mqtwLt7cErp/d3V1ZW51UUQBuI5bq+KSbbJOTU7CSKwwQFg47rQTREXEr5nlmFaB6YHx77Fe305rs9OhdOv/56DfAP9vyVHTn6LwKjDu5BNFtRf6Rg5SF/PGZmn3vOYJk9DEXshvhKOwswKMr2qK9p4tvzJ87eAriyf3+xtrxyWLHd16odkaMLisnGodFUcwqOAmUwmlVYp6RzvW7ce+S4e0eRRtcFm/Yq4epXX3+9r0FGrLOjNxuZQwwCrIEMsUqij5mZfSoOsMweAhEHprvFElAAbG5llHg/7eD94Zrbu9fKHHEyYCGPbhAmBJdy0qWJ/RK7IV7gniNCxPd2bMysQjv65ndPn66AxY7S4DlgpWly5MlZhWWU0yieEEpjrRwa0GWcwTIz+9QcYJk9YHe/9dxihJ4uUptoaucPciuyfm98XadXVkrFC8BCNG3tuSQCXS3LeuKIMHKzp6hmlkAF292tcmRd7e9hHeDtEycq2PjxEAv9QUYstbN53lNK74/vp9zMEnEgiGL0vkENejsruwbLzOxTcoBl9oBJU/sC9jW5bS5aJEBaQXG5Wd8Y3eILlQXwNDA3rJdqpzLn5U2K0bHfoZ/6xWmk/ZEbhjMINaiaL1PvwtlvnOkBbHS7ZZnSYaG5HGMtGoIPlfOV8WeMFHMkHQWK4XundvGUmjboMjOzT84BltkDFsRR4Gge9EkoChERdzNcXCjnt0ff1HdSRHxF0kJuMgiKsgR05Rs/9x/eGq7bNV0eAA6MD3jOTb+P9HbdTI1mC07PbaaAfRAzo6uC7QNtZNLETcMIZgj2AcUwHxZBjfR2X5UzWGZmn5IDLLMHrCE/Czw7OPWjKERSLBfK585/tN2HajYVS4gDRadqU11BbK6u1YrJG4R1wSGCQ9vNQBPAncjxTreZGu23sdItBE8CO0ZNRgWIa6nQtfE9I+UdEk/D9q1EiAby5Xq9dA2Wmdmn5ADL7AFL6EiReLLJ28d+gZZTcOH46ldqgJdf+wc7cqqeA0XkjJKA6Av9c7i3Bqo4gMYyWG1LhU2ldH11mlGyqinWSuBLwK4mRs9CBBeaXjFxK7Eg7ZrR1A5BGrU3DUXKxWozX/gWoZnZp+Q+WGYPSJwh8bOnuyu5v3/HbOLuSptcyk1AcH3HT5y9CmcBmKZe6JFfEKrazJQQqQ7i3Zw0mUHKsR9pH2N1WkKbkG9ObWwHWN2yU+R+PjWVNNvLw2wXAMtTvd6opuvrB16ZydEcbJTHQjYh0TRF//xfO//q1kP5gMzMvkCcwTJ7UH72dLFabx7OxK7hSynBylreEPpwfGl/o7dL6JkIyojRKJ2G0IVQM9E4lMRBiCfvOSK8KfHmGqNZhTRNsySYSYOmCwIqiZS4deLs2d5wXVfVtELTsd3ugUEvrK2SKQdXZmYPgAMsswel1ykbpRPA7qYeFLgnIXERYqKvFZV2EhxXohjNFhR1FHEu5TTROJTQ3lROpe0bhAlgOXrp3OFBgHXu+PGpoi1aZ5iXCojluiFicnBzU9R7Q+wdNhgVoh9NA/Fhra3AzMw+NR8Rmj0oKVeJeDHQYtNstz4QXMjo4vjSUDEv5WMEZTAoRodGoQt1udJmsF5+uTi2/PQiOXZpcNY3+vWwMdWpr3/zt9sjwt6eqdno6yBqR/MIyNBIXC7yZONQFfUx0LHtQnjRRNxFOj/V69aYmdmn5gDL7AFZ0XIVqk4SLNSDu30piUxca+6ZLaionyinunvrrR5EDEbkEKG4+I2fa/taneBEEWwdycrbfbKAyBnB7Td/+1fWhq/1cl5ExalEG7CprV5vCG7klDbH3zvQPJn5YXl7e4OQTSJurJbNRIcHMzP7ZHxEaPaARFME8FxZakeTA9E2GVXEBwupHHVSf+XrX5+J0P5BUIUk6q0eEbyniFG/qu4mZY76aAQ7iUHcI5Gb3jpioqarjGJe8KVA5bBkPqCBuFhwT01XWyO2axiytXOoY4PQR2VVO8AyM3sAHGCZPSCpKg4Ai51Kg7ZWkAMkXdFXXx/VVS1P3z0q6XAejsdpA607UrxTr6dRgLNcUyqKE4KFUYF72/PhvQgmRt/UmR3AkxBFRIxmC2b07maj1YkHjfQk4sk82jMBrEBcrlfKBjMz+9QcYJk9AHe/9dxiZE4TpLqJYXuEWN/IPYLr42tVpaNEHBsFTUlEcJfQhU63HNVAlb2tKiJOgRbGM1iID1PERAYLNAPsi/HO7JCJ+Cjl/sbk2jg8X0xPxVgNFsFKkC7v3n3ANVhmZg+Aa7DMHoAoi92q8wmkcngpMII+8IbErXuW7wXtZdirKiUkVlBcTvXWKIOUmymlcv0I0o7tGiwhWM4wcdOwSMxOKe3byHk0ClqQkW50uuUmwBnOpKN7L0zXMJXjnpNAqSG0OezTZWZmn44zWGYPQr9YiqQXBVXOg6wQ1IjzNXmiBkrBcYhnIrdBzqCL+12Ii7uWprYzSJ2tJdCCVHDPkOcPoyhGGaxzf/L4VIajhTQ8Ghy9f8p648Q/OXsL4F99iUR36gkR09stRttu74K7U1FcevvsCWewzMweAGewzB6ExC4FJyOocgRlEkHUCr1Nf3L0jYJD1exMp7fWntylogB0u97svXV19f+rAQ69/IvTuhWHUXQn30iE9F6X/nvDV1ZvVU8R+ck6NAqbho1DN4r+leG6jfdvFo14GrQjxgKsQgnBxp/73n/jIc9mZg+IAyyzByHYXVTaX9dBxLD/lfqS3uz30k2Al197rehuvrtYS/OM9bVqJ+Xo+jf+0t8c1WrNXy/nm5LjQqMGo9vrdfXN/3O7RUMZxXwD89uHiDAYlXOnW3aK4bobK3dKut2jQezMY20f6mgIuKdOy8zMPg0fEZp9SvE7h7tK8eRUtR00pbaDe64Vl5746bODW3xvF01RHCZiLgbtpiTRW1vfgMm2C7lijsiHA0omemDVpGBtYm2keWB+vGg9xGqgi5t1b1TT1d9VJSkvAd3tFg1iPfeuKzj3oD4PMzNzgGX2qd2anT+Wg+OjWcyCfj+I4PZUKm8O13U3Z6tQPgUsDuuvkIjgFtxTCB9aJOkUUMagbD2IJiJ/qCImaroyzVHgyKBmnqK9QriciHeKZnZUU5W2chHoiMRcZqLIPWfdW/VuZmafhgMss0+pjOaw4HCTt+cP9ptYg/huvdkbdVHf7DYlWSeA3XmswF3iI3L+aHzPJms3wcmAitGoQvWBtyBNBGMJHQGODo/9EiKCjRx8ND23Ocpg9XqdMogvAbtGPbAkgh8Q4JmZ2afiAMvsU4qkgwQHh0mpsgBJN0Bv1GlrlEGa3shlwHFgfnSDsO1B9R6peG98z0LMS2m/oGDUeIE+4ju5mRzenGHfTJFmhikotftuFdKd+laxfb5YUQk9VShNjeYQIqS4KE3OSjQzs0/HAZbZp3dU4ugwg5UKQcRqhN7tL8+MMkgb0zsScKqoytlRDVbbxf1iiHuGQWtJaewOSlsUn8m6UShPzBYUzFRjRfOFRBA3c+Q3yqbpD1+fysxAzCbEhKBP27PLzMweEAdYZp9QBIozJAVPzs6k7jCDVbR/qu4CF/ceXR9lsIqmf0jE7PgNQhUJEu89993l7w1fO/nH/+ZexIHve0ORlbi+VaUNgHj55eKff+VLB4LYOX7PMAkg1qjKD55//vkG4NcO/8VuruIIUE1uKVC6kpXv6QxvZmafhts0mH1S33ypuPOv3zmUaPakcixoKgXB7WKreItvn68BXn7tVxdSP14IKUXeDoearT6KuHbmzJlRkXld5EPkOBgTdeeCIJPjnflbt+4AXL7+z6pUzb4ALDRjNw0LhNDGl//JGx/CGwEQpeZSP55GSjG5K8r51vTUdjG+TfrVQy9Pd9NStyibH3gRYDZNRbOxXG1OdWfLqKdzTqmc/JgfK3VkpZRzirzVydPL0Smbtbyle9ftBm7URfor7o9m9ok4wDL7hC5zudxd7XiWRjujHvt62halX5/7Y98e9bWq+vViKJ0iVLE9S6fJdX0niuLO+L6R45DEoXv7XyE2mly//frrr/YB1pktCZ0MWGjGljYEEayKsauCMd1F/SeCXIzvK4ks1ldWWX8wn8pn5zVeLm6f3j3Kwn+4eVtPr82mYqMpVvKcAObSTHSX1nV7oy6KXlPcu0cVffU6nbKMjrjnIyijoyYzQ1kfi9xbUqQaoAHGN6r7m01U5dxUjv2ZtK9MUcJ2FC0UQehx+XGpEKE+lLd76p2Lpt+bQqPPcfj7WwdmUr/4H4785bP0eh/kKo1lP2eAdXqdTl2sTwae06kTq2WTp9c26u1/DivRrZYy8+83t7u7R5/NK6+/Wuv7/kU3+3xwgGX2CR1+YrZc2dDJELvrwZeYlODucrMZiavja5tczaUinoYoImJ7GLO4kTJb42sT+WiQjjLW9yFyDfBRnu6MvlB2NrZSn6kloe520TrcrZsNKa6M76louqG8FFkpxnIVCZGkD7525dV/4QKs+tndu4uPmn1FkUqSmiPNzjKLvU23OjCjrbkQTc69WFvVVCflg5Q6DGoAgogUpKzOTBkchd4iFM3E/mqIQkqkApEitj/jiYhAAElBLggl6d5kUNxT9faofyxygBQZqVaMOv8D3//7i6Cm6jQw/m9OT1D2pnpxPkrdBvqgFBHqp/5mlXUlT09dntZWIZKa6PZXWbmdVubPdzZ6PXJVRK57r55+5RyDbxjMPm8cYJl9QstNqhR6EWKprrebfGbFlYiYqGlKRcwR+TioGKa4iKhB32nyZIuEID0JPDX8gq62B9YGcKPsbWelNtanC3VjKaC7HYsJIm4pNNl2ITeLoBckyu3B0cR67gXB6gP8WD7Wa4d+cXqzs7an36/rXKamDI6kpKWccy0VGfK+yFpC0RGRs1JHkZdoh2RnRERQ9fp5pig0A5Ei58htZDMjYiZQpSDakCAXRJoRzMUgahUQCoHKhGYqFT80jRK0+Z/vO0ObWDNY+Yct+oTawd3tfx6EIMhpGHR9/K4a+9/x1zJBP+q9oK2ALAIpFKGGiLUsVhTS4FPJgq1ILJPLBiKpKJrOzbz864f/8lZAKMgBtyXdCNgK5UaR3lfkFZFyU9DPkc9Vve7qX/jgH9zCmS97zDnAMvuE0kY/haqTwEIzOKNLCaLmcpHSpfG1irwY6BmgjBykMhGZvuA7Ku8NsLRUFJ2U60Fiq23lsAx6Z7PZGLuV2E9TUXwJtGv44uDL4DVSXLtnz3kRz7YB1mCd1ETEtZAmOsP/KF7j5WLt8OxcVc7lZrM/R6eZ7TVRtLU9abdyzEpFzsqRQrubFLPKkUNq1lg5EsFSKopabb+KI9GwhFRH++N9KJYEVaAgR0fS4lwxrWGmJWIY+Ix1uWfwWsT3feUNgrzd7mJCjsxW1GOfn4YZxpFB64sf+nloLAS6912GP/4kAZKAfjRk8iaw+QN/A/cngLlKRfFJnifGcl0CplR1JHVGPz/8piBpd0Lf98/h3husKY2PjArWco8gbgGbCjUQH4S0EkSmoZ+UzuVya/W/P/zv3pZ4P+Xihsp09hcu/LcfYfaYcYBl9glVRTHbyxya6SbWN9vEUlEIFBcUujC+NpT2dWa6s731zeHwQSAa0MWt3sbKcNXp018r1yJ2aLskBikRam4K3tjZKUfHKTNRztTwYzMpVRuDK4yp/Qp/RZEmjgghusCeCFJ7ZCQiIiOupqY9f3ztxMsdlg8Vm/0bqb+rSnW/TMO6pZmZIm31yrJWL6aUpjaa+iAUT9f9zX4UPE3kg2XSFKFa4kROOihyP6DJyifmNN1pivYZh0FQ+7W2IN+TIWqDIdprmjCo74e7zYMfl6ix/28DNHJEZN0TGwxeb0SEtB3VDR4x05Yu/dBu+BI5gqbd6n4SL1LALYkrBDcYq5X6hBqIw/1oDgCd+3wWAjrfF5aNlfSBiohIUmj4OeUMEgmihO+LUhOD4QPtBkKkheEqoSfHisnavm1JJEQdDT01Z1Mdfxv43+7jN2L2mXCAZfYJxBunZlfqfApIzditwNQGCldX1jZGGaQ/+5u/sqSIfblpYPs7fEBNTrq0Z3PxLsDp018rV3fuOioxN3GDsM1grQCX18u2cenZEyc6veCYBHniK5yQ8q0ib07cClRQdItqZjP3B+sGQUPmwyi0+9effOXY+krelcuV46mamk9b2t2h2U/J3kCx1cv7oXeijGiayKBUQBTRBj8FWUVKkNszslKDOvBBbFSt5c2Hdp6TBvmh4Vf6pO8/Trv3Fd2zZnjktZn7mwmuBKxq0MYmUAlxU8QFxDqDtFz7cyQFN5CuhOJG+gEBUORcouKGGi401BupyLktEv/RNOpF3kpNkZr8IE7FUjcXqqO4n2coipyJ3G1y8+OQutJkMCki5xwdxDOSdqOohpGkFLVCi0jHgvZIF5TbgCv2lSoWp1SRidE/h/aPyegbkVHmLBMwiFQBuqk6sZl7P/n1p1/5p19791W3GrHHigMss09gs98sKoovB7nKeXCwJCg6Ijb54MBPv3NjuDbqOKZCx8bbMwyOUjaafvP+q1/7Wh/gWme2nC3jFKGF8QHPQjSweq6j7/Fbf38L4PmnzursrWcW6zx1T9uFoJ/L/s3eE52//+SfODCbNp8rCs3kJv+Jsdqr4UFPlRIvRsSenPKKRCWYj4gOMAWa+f/Ze9Nouc7rOnDv8917a3jzw8MMkgAJggMoShA1WZYjSrIlu+1ue9kh5Wk5niJ3stLuxHYcx8tJo1cnvWLHtpJotVZHHtuD3BZjpdux28tK2pJbli0pIkWJBMUBIEASI/EGvKGme+93dv+4Ve/Vw0ASIEVRZO1F8L269dV3p6r69jtnn30ANPo0pFljkmnz69d/H2iPzLApRTcI7zwXLajc5DeUPsN6I+JSwjQYLwElIrperEpaJhEAmEvHKcyLSKrF3JYFzRNYBkTKgkwrcJ4i0FO/4k+kCHVkbEEoqH7+StEAdJWElTJ6mazLioAoZw3oIoSWMe1ezu4gKrNuMd/9qZP3vfQhuJcZv3HLjy5Zrwg9Zptu6ZjV1YplaLDz106rDVtVOEuBqhts0j0mCRKUKEEYEawZpWY75qngAuEAd4iYg5gScgFTBOcAn6qI2QZyRRJ4cGY8WX05r8MII7wQjAjWCCNcAxxhLsrfCDD1frZLglYuxGgXVRDCbK+IvRrqP+h56SJOFRPJusfQyT3XYf/S2dsTYXY4ghVJNKD8X5xf7mzf/+N7OosN/NnTJw/M1s6+o25rmQ8RJ0fEcm/37c+s7fz+MevlRh5waQvJ6wptFMkN+kIH2J7Ewp6BXqaaayNasKF50rpO6bkwTIyAKlIU+ls3R4w2xvVU5pRaXklyCgkrAnr9rGEBYAWqKi0JlpBWZP3KS7FH6bTMliEESEHEcRjmIVVVffJlD5qn6sseu8asDBnz5R88/vubmmaP8Pz4scd+8/mIzIv2zBLA39r/I3PqMWWou9idssg5kVMOl5FyGVPCJeall4/de+TDL2uhxggjvBCMCNYII1wDJM0SvANCKhdogBwFjA9S2rTI0LAbwu4NAbBBHi9QOLrj7HIGVKmmn3z6+JZPTYzdXFCTGCJYhYSbCx+//dG1169uSW/CWG9rq6jf3kwab85Cu+EqMaA0pUp0y+lvgDe/oW5xnST5ush7M0o5Sl1ROvSCsaFhUtE/HwGIWGeKjECl9errkRyQV1WVOOLAGQBBUlu0YyYtQDAQbUDH4LaghIYC7R9+5teexNe4gkyAPXLwYNKp1y97HI1ul9n1PbZPNZMkRl6tAns2BCWzkbG0NES/JmH7MoDxNVM2mZe91ZovxviC59kGoAxBrbExn1pZic91nrcfOVK8lF5WBISjv3V+aNNZAI+9VPOPMMLLhRHBGmGEa0DhGDfiRhBBAoIRDpWEnmLqmyIjDuxNQrjBvYog0QyiX0ijnrr1r5f2/R/4od0f22E7D6wUh4404zeeSWzah9TT9bKLG/P8ra2p5LcFBhgCgSQN3QxQGKZHroBSjkIlpE22TteEQdXXQLO0WYyMvnq5+lcoIld5DEABqC3wNIFz1Xg/I/FhUJnABXk8laS1+U7pYaKGot03q2xYpm6jV9qFWV/1NidsVRcmpsvabM8B4MDELuGZSw7zZcfffMPB6WahG8y6ng6J3gFAJVXWQ1rON2dU95tLMZsRr4rFOqMXbatDeqODdQ4J6B2be5xd6XETcK+r3c2TJ1H3+Rm3F/x9X5hIedksV8+V4+F0Gos1C75JX1ZILOsh/Nn+/Udw9GjvSnONMMJrFSOCNcII1wAL5a5mliXtbr/4v8qBFY2x8/cnk2fnAfHXb/vx65OvYM9ftYvXdWZrQN9hIZdjdq3Yuu+hpe+aeLjzDs2l6mQag/usgN1t0Or9gIADGJerHlFLLKmBFYlKDcisN1QILwiGwpuIeuGFZhmrrwCC/SbRVasdo6FURNvz84BiJbLnKYI5oAsAFgBekJSLOE1xBXDINR+YRDcvLaJtRLtUZBastZB0libK1CB0f/Tp3+4+54EN49zzDxmGAH7x0KE5q3vm3a7SLI1RYUoedzlVp4yiy8hAYUbSnJENsSJBlKLAKVC7INQIrvObirzQVGIM5IQBihfzWAqgSKAGYUpAAHVVER4T5VBCYA5AGC49vJyFxMWPvarLFICS4IocXfIqXLoEuuAkOvLYAq2IcXPlgBkhc+6aqS89+OY7WsTQG49GQSWkUxJXYSoJIyrfjRWC86CWKdDJ4PCVVOGUJ9YDgF7sdd/6+UdH7ZtG+LrGiGCNMMJV4Z7wxG93by3aZ+9grTe0uDlimaSPfPottz3xidkf/DX83WgIO7vvSW9sdP32Fff19ioFpGYnTmw5kR9s9lKERkCRAp4FlCRyAI3+WAcw7WIWIwpFRBGlCCEiYXdd3VQRLKLnY5ASJCQCDQYiyjcZIwBVZMrhKrw8JqIk0JGwBMAELBnRllBSeEJkpLAawdMBnkO4EILmA+yCYpr/wEvYq+7/2b+/NrsFtaScYtbILZbFlJVZjRKZirnYTMQmEFMAEJl41KSRdZFu7v4gsCOgmFNkypChdEXCJwHsToCaKvW6q7IHmBUxJ6ChDeFbBDTVNJvI1gX2G81xBsq0OLigl+GzAyWbX6Upw2A69nNupXSpsdYLwlCRALjFrjGHVzn9X7r7Sq9X/R54qb8VWR37ShnbJNYglIJo1VQrAM5LWAGMlELCsOzQacXYMwA1hc4Db75jwYQlGVcdcSFVOPW6b3/oBA9f2Q5jhBFeSRgRrBFGuAj//q4PpDiDdGYmsWJVaRlbBkwgqt3snE5vOP/U2rsaW1pvKSY7GPhhR0XEvNl8+hPb/k73j2oY3xURzVDMNpAIKD0qDGm/rYzAqTY6vYggR8cMz9YMBYB0ICwHUBKYiUIjblTqEUKgI2GOqNr6NojIY91zRx7lpdwBIicwRqB28XlSXBDwW6JWJJ4358NO1tbS2pGfPPqha075CLD777prnZFsz7JkZWUlAEA23rNO2ggDXVHJkPSKaLU0OCIyId4M54yFPCBHCk9udvoMqMQiLUA7AO0UOM7K/btp5E1TSUAUALN1YgNg3SyiEu1Xvw+uYv+SwS/DXgShHf0la9B4NfzIgcjKV2vIhfPF7P0ll6tVWfHNLRkvi0A2ATQHyeWKK3KHAQc2LLH67ldDFllkvyqXxGoZuyS/BPifP/RHr/s3wEOj5tMjfF1gRLBGGOEiZAs6qJruWGv3dhj5eqXZFNDbQYW9NTjWzma1XqtZL2MEkAAUFAPKbop2O6KDAmkZEZMEK1tT9BKD+UZ6Jhph0ZE+kMNvMJBAnhgWsgQlgWRoPSxBTEahWaofkTLU0hL10IM2hU4IVu1I2mnwTwo8RpND+DTAf1i39J2dvgdWoCHKV0X9NYL/bjGdnsUZpNiJYqa7xB858rHiJ/Gha75+j33jLWNZN99dBq+ZVC6UvYNqYBdI5V7fbj3sKsGmgATwmzNwGoUnVdSHCSurheqsiASCwTgw9TRVCzv7xqAkoJVyQ8D9UtGJgUXExRhEmC4dz8sFs9bnIp/fzT0QWC7jeQinaa/Q72ehALB7Mgk7ni9C55dx1R9EfX3I7EPY8LYazMl1LyzUU9hbc+j6tO5/IuD+YU3aCCO8UvHK/ACPMMLLjN+47kd3WRK+R663ELoewjRgDVFzqByvmxlS5iBmrmthfKY1aHQH0lF0x7B6fhqxU3UORAkoBdozKYrUMJBBi8DMWonxC0UViQKRgvAQsJgYSmzOOEUAzdJbWR6XS/hyBJ+ZDGuhnqzsNYSbBqtMpZ/yVj3p/O9ZXvzpWs+emWwqZaJFluGH7ZKlnxLY/bFjbzkL/EQBoMC69/tmEvDZt+6frNvYRJqXoWd2IMATp9UN2gJhRmBD0BYC2wHETq4Jmo9VppsmADOkxlCtlk1ATYfSvvvVRGYb8vnhViyDUkRtBDrWU2/Dq/bFPluBm2nMIIU1GGP9x4OFnkPbNuYUWtFRSs8CKNS/LQaYA8dVuaon63dVKEmtCjgFqOh76vffHzJJHQcXDFgkFX3o+U0QCHEpEC2nv3Ax3csIk7kLY6ulz8RLu+FUY9wdhgzOAzBkGhL5C3KCk5J2G1WranDZjyeiBmA3gClVb38QSAqhReDzXce5Ebka4esFI4I1wmsev37Djx0y8l5I9zRDepOhEnhXPgN9cbOEHCVKGBrbV9GYXoD6ml5aRN5pYPGpSXiH4KTAloCUWJ6roZMZTBui9al2xOSKE7446wAAIABJREFUI8kS5NJadG93LUnPJWGiJEJfpwICaFiC3PjnY93yUxHMo9uJufrCbWPJ8ncR4aZh93LIe9PZqU+8/YFP/+Xg3D58/d+bqbPYlMrpU5luamX7Lw59/PYdjfqFbnnTdIAm3S0IbADeNLLhQs2cu6Q4URDBoAOCJZDqArYAmAFUJ7BlNk0oVeRkyFMVUcJAgTZw6d5IrQo978eiLjpGDj0YULC+pqjyS++/hByubgQ67jmAFipSZCWwCGnwmARWAbQkOKqlPTrUJrgqiJCRplLCmgknHSrZb5rnriDoOMF5o1cJSBlditG4mkonDSh6Zb5OjkJWsx7yzmtRtP3AoUNbQ4g1L3rrpKgqOiimoGSXiJo7LdBFGd1Ul2sXwCkaIwDIlYC+FGAPr07Mnb7y3kYY4ZWFEcEa4TWLwzhstx98ttlq5z+dIfyAQxik0S6BV/GK2j6gPpkjqbdQ9KpWI6Sj6GVYPtGEOgTrADpAbJgvTqfWzQxpXGcDYBl7sVt0C8QLDn7JSp1ZTZO9pyy8M4HCcNiiCeDDE43f/fDT/+b/Gmx7eNet46Un6aXKHiKWTX7xDW+YzooH28/gfeNLvdU7e7E2s9kDizDG7mS2pkmbf39Z7gsm7nbwRpJ1QlsB7poMwSr/LFTRugDEdeNRYpgWuYTF4vmNSK+E4TMRAAnuRJX3qzyzIrjeTaXoH1bf4FUlNjRLAcARQqcBpgISSA9DdgqGlFJw8inIT3lgrybR3Xq9pHv6bZ87OjIefYnxxi9+8fwVnjoH4PGX81hGGOHlxohgjfCaxY3bjzVaa/V7QbwOrJrHXglygClQvw6VqehQxTspKQaW8xnSCGQkuntK5LPpCoFJG8r6pSFgdSL5qzO3T/z6Lfkjf372wg5+38rn195z8Ns/kIXsfR7zwawAVHgsnkQIy8PHEj3ZDWL35fIkBc2Zxbs9u/W6rb5Qd6X/3WJvy53duPFRz11opuXu8Wz1/bQy9qNJwYDQl9IbAK7GePn8z1ViWMs0iEIN9EiDC0P2d4rKyr3rvkzgKVR9DRcAnZJzAUAK8AhMpyCkTiUJ+XCi8pQrpB13TqBZLGRdn+of/ar3ykanGZMYia3Acm8iVuaZNbHbZV7P9NbPPfTiTcNGGGGEEYYwIlgjvGZRTKdmPW0DMBUGdfF9DKqa1klANGQNYHpviTTVJoKVJSktzZ9em9cnemV5hufKJ1funayfPjT79iIJ3xOqBrfVvCR6aTj60J7xL/wy/nQJK8CPA0DynenBoTAOKx+BeIF4+u/mK9lHbsGuByfuOBBIF/3dEG8YjkqVLhCYIPyfm9B0cAKKAeAeQvWoDdWPBKQWQzPpNDMCBoOTldHDQPeEK4uXB4RpnYmRfXK0QaSMlZ8WCSwWpaK0AKCLqpXKAoQ1QmsCTpFwOVchnRLZY2XY2nZx1UzmYjclWlHWjSGGmmsxpGVrrTtunTy3b3rolVFV9rpv/7mZsrS6e7kptFjSy3pM55y+LzqcpDT0BmLfqDQEUWId0C451lNkr0RIosBo8kUACyI77tVHZdP5JUBwFiXjfFbgbJluboZdsgzHPvGrrwDr2BFGeOkxIlgjvGax3Fotp9KJR0x2PFe8ocZkUEaOXCVitXh0AXTjmbjIm7217fUrt9XH27NQsv7ZSSxFfaL1yMlPN//13O7ewg/h1xfwqx/f8h2ff/rGiU6MledUBYaAszUd+S9/+yefPI6fqu/dA/70LT/6ti96722nUV9PlZUAmlD4Jq1tf2/x9Pc8MXH9twLY61CA+La6Gbq+EcPySiFcmwj2tyrRt1DSAKTrWrEBKmNUh7GLUr4u/x6OLg1E4OvapiEdVC5HdPVAtAF2JO8A6AHIASwTECsfrUVURZHnCC0Q7IBYErDo4iqIViqdjCF411urL1OKjne+92ealo+nK0lHlraV9iZnjD5WhOo2WYQbNVbSZ+mJV3cDCAZzYQpUDRoSsYtRxFTRwy6hrIPksAw7RSgj4xzIfWaMgIObeEZf5+ck4HWAu0RMvSRW/F89kFAUWREssG3rlRRD5+ei4EWQnY8pz0Kw4b9OUqZ223v+yQkS572/HkliIAuXtxVCG9GFYKTDDViWWRHA5drC9Wfvv/8nBjn9Qc3CCCO8YjAiWCO8ZrFy8mBvz8Fn/6K1Vux3+nhPfgMqk8lU4hkzPChpgeL5DtKHbn33/OL1dz3xiyGJb4SnCSCQQKcL1JvtJ34av/o4TlVz/8gnH7+lZ+kbBKQaMvEOcrzhwkr7P5PTD731dW97LF9Idsa17z6RNO4+oWzdrKorYCs8PagLd+7E8p3BxlDvO62XLnTdL7afpACsxYHbk6OU0I0JouwiWwHCICQs+iRqoKdiFORwOKgIwUU4K69SJ6oFX8ICyTMEzjp0nuQZCEsuX0mCPaGSKlCcedP9XznzUt+zu+76QArche6NZ9hbW2Az1pKYtxmypmI+Thvrpl72+mc7BfRaGQAwpMrFJCDfnsdkF7POeOpwFo1SobwjArss9pkUkQvYbeIdYIyAiZBHoUZgv1mWknaJezo0FPe7nPmo/ArOpHbxwKv3Ff1agdwNXGw/cak9Fi/na7HxJLApXUx4WQDAPKVzAEu4B4B5hJ4wV6sUj/r00b+6870/89hsPr74qU8dvnYB4AgjfJUwIlgjvGZxGIf98JHD7dsPPvuRhe7q71nZCBkT5SrZSCyGgkWaRD//ZBL/B2zrnn7ng/tD0A1ZZvVeXi2kwYgi6rhl9ujw3Dcst/acnGze3rYsVd8LKEAaX16K73ngoV/8yq4d/0t0z2IYx6QXjTWwNhhHAB0AdQnXlatg2Ubbgbi55d1zrsGkIBm6ZQOlB9jQayUgM2A66UJIEWjoREcuXTDhWRHnSJ5BFXl6Vo5zAM9SPKuM59S1PFpLeZb69rwei/qa91Zr7mldYa1bAsCdt98Rcf9XXoK7tBkrM9P7waO1ZAGWhcZMD7gZYTzziFKhU489vRHI6iAKqtNQYocA1AGPRlEwAzzIhzinkKDKaA45RNAqo42BMQTFyigi8XiFQoiXAJsjW1ccNVRn+lLs88rzaJ00vrh9Sd4noM8xBrp4zAyEqeq+kABE8NaqCFVy2HLh+MLp0P2XAP7rizrAEUb4KmBEsEZ4TeMwDjuOYA3A2vONnd5z23R5IdTIgA2PAKFcNK49grc9YAcn7BBuzZ440nzomVP7jrz+jm0JZJAgEiE6p7otNrrdLbVmAzRD6kJpDTzFGoI2lrEuiBTATOwgVY7niWnIAKZW9ROs9FAJqGyQHty0QmZB6Dq/3EPrP5Zxck3CImErNHUB6wjekbxNJu2g2Okp7wAT7UP339/BC03DHDnynE/f8o0/O6FaOplRZWS5D+AWAHBixqQ5gXUQRmGPg+OEAgiTsJViUFVoUCMwBSqgyrMlAOcABkouIKEl48MEYiOaOPjZzyxdZvHfSJwORnJj/PrGfgzwEpLCy7qRsj9+vRfO0HC4I5bd86hSrVdiWgbhrIh5I/JhLdfVgRQUjVxUxIKIjoYOuG/rmkE6ADCryjyuFVYCmgOwD5f3sHIADYCzIW0MX7dAMAAaJnpVRNIC5HE8Fp0WAyau/dhGGOGrhxHBGmGEi/DE/v217pb6tJkmyiLU8y/E5sT/aDesPGjvqF/n9Rg3VkYH0DuH2fYDeDcP8lsng20Nd9yIZmJoJQkmiyoN5wBMwmyrFdRto2OG0oUSwopqeAwpbhlacddQfThnPEdDJcxCv6/gpc7YBtCBTs/9HMFFwNeikny1aDYi8GYjsw26QIAx75S1v769/vQv37+K3pvux4sKyRy853CWnkczjnVZtDCFwCwAiaiaA1MAQLLprhladMAmJc4FFFMlrYRzHwxbIIjCrMQ5EDUIARa2JSEdlG5Cm9b5zcSIAOQD29G+kaiXG9druBXLxisueW4wYth5XRLkEZCvkhttCPuu5isO9LgeWpIDaEFYxbBFl+Ag24LahIrNO2Ul/QOfAJDbJlP4qsU0qvMzEWdpnPfoxQvoVnNZhCC6LEbHEkM5n+TsDAvQQyFHYpnDDoDM3K+dYBk8yjQHt33sa9CG+WPVVFoNSHOed2ZEBaxb81J9Aj0GYQIbJu+RxBKIhxh58lqPbYQRvpoYEawRXnPQPfeEo1/8YtJuNpPViZ6NtRqhnnWDK6TuHGsH3RAdt1DcR/Mt4Tre6Au8OT/H3bVdlQZqfS4AxQVNxuOYDCmwmpdobZ/AszVDMiRCF4hEwuzaMrJOG0oCBKATamgzRZWhKtfnJIS6XM0yj/CyKBhKSARRQ/W53RAKm6Hn8RmRfyDwSKruiWd7t3aPX9h9MA363xJythwsVwBcPJfH2uP81BWjdrznno/ZI488EnA7UO8i6a7Ceo0Fa9hY8LLHomeWwpICY2Vc6t4RU+xET0SimwVOR6IhcZrQzQAo184ka+yoCNLAib2Ky2m96c3gYg1dX4+I/mK13tVZ98lQ31pLDrDoEyJCjICXQ5fVUfVzHrC1AtAFgE84lFMMIpxCW8QxAAuooi0E2CN0CiE+5TEzeWSaON1UFp303NFP/6sreUO9EvH01/oAAODg+/7RrGLthjLKk0AT41pKnf7yJ3651R8yErmP8IrDiGCN8JrDl04+vgNbagcQfd9YkcwxKff1lB4gdIMMYxATAxIIAYChUGLjSGrbIBqoizJEsesojgLcDZg7WrMzWG7WEYYGOoEgYXZpBelaG0wDyIClZAwrNmRLDiAH8XqW2Ma1EtRxkx4siWMkMgDvA3iTQY0Bfasb0XV7NMbsgwCKQ/c/1P7t/d90Uxb8gGDJcMyLJCgtmcfFK16gw4f5xc99YWe6Xdu0YPU1ah9T25HkzcmC2g9lZgl2ROCgoVsCnkKD6IclhKzS/4sYVIZRIRadF3fjqjPo/8eNG9DfvjlNt5GiIw2x6BQAjgAMhFIHT5vwsIgAKANxCsLDqny3EpDzSUyOFSHvJEUVvelm8jSmMQnd9QtqSU158LLWdY/5eGUolq1pJR+PW1ZPR+AuAEC3e4bN+mndf+PSqM3LNeDI5Mnlgzh4JH0EwO3AtvPwT30KF4UzRxjhlYURwRrhVQddpHB58C2vPwD3d5G6U8AWlD4lcIrEBCutzySgqUDWQqWlxXAT2+IskMwJtd2+qUULBHiH8BbgZ4WwB2AZsTozh/mx8U2aKieQkti90sX2bonVhMjBk8fDFj9p6dxEZdoOoIpIudv5c6j9vyts/sFWPHy8V+5ZQJJsA/hdCdEYbkXjAgLiwqH77183JJ04mpRr12ErbHMJIQWUAa2z07XtuOXn3nsLtA2uWdJmAc0KnOZfdcYANGVW75ONCUhNGFIAU5WijE0LaQYMC6EH12U4wtdPTeryAYZ1UfclWqbNBKm6o0IsuoC0KKgHoJD0BIGCYC8S8xSWCAryVaedgrwHGMzYlrAkOc1gJrTcsaTUmMZg7tYqaitLXjQ51qUtxV735N/8qxfFCE9cbuP9L2bGa8fdnzyc7D7V2BHD8/fxi4US1LPz9937Uy8FI35pcN998Qjuq0KZzy3vG2GEVwxGBGuEVx0I6At33ZVS3RuSNLwBHt8F4F1G3jbWb0QTtUGiYr/vSpRQXix2FqAaYBNAGBe8N7QTB/yCgauOdBxIDEjLEq2pWZwdG1fYaFOMRILLV9pr8bPL51eXOV47U9j0s19Md7z9BGpv2T5EsBIaerCFj3Pi//v4Zz/5x9XWx/D4m6+vtzE5mZLoakOCveIxRtbWcI8CFn5hD2pp/NK5+bftWs3fkJWebgq5SVhsJtsemai/dw/0bghbSM4KmiU4naT19RMfCMKpvqWpKs0T+ym9K1fTcZ1ZrkeabHN0iWRf11TmAHIIvUqbxA6IAkK7r2EyCEug2hSFSnczT6gnsGDkEyILwXuQL5TRFgEBjebK0T87/LK0vjl8+LA9cF1jzCwL6VhPAJDlTeXdMrFxzQEWzDeEeyEmKtIiZY4xpGhQMMouYZ+i0dybbmxSnvplxjwfaC44MpyyuUjtYIRfWhW4+XGSMKD0+e/9vV85XqU9rx5GJypbj3m3pDT3TSI30SnCUaCjDC1zlm70Wq+38Dt/5+dfcz0bR3h1YkSwRnhVIkN+kwf7Ybn/vbrZ5IA8rZRXqeeJQHizwRqAhsTtA+V6sYiyWEVRTHrhQukq/cLYxMRCrVFrlP1ggRH16F6YHX3m9bf/g7/1H/7LEwCAb/u3tZni0x/aCkdGDDVIJgh1bocW4jf+7MRjn/ml1T+9+7/ZsdR+9l01dJM4RJgMQM/CwtlkxzhW/qfv2h/Kg0c9Ns820tfPdoq3pyVM2gilyR1LjcZNJ2vpTXUmlX3DIAIl4KVI4wkeKUZUsvQSVSArVgsuAaBUVXKfAzhGYFnCEs3OUP6sxBaB0wjhKZRFVtS6R47+2Yd6z7nTqwPv+djHbObGJcP9wNLMGQKTAagF4Dzq3TGlU27dNU+KTo2YBLACYBJAq8wwNjxVPX4lz/eOCbtFr7EMAgC3IiZ1NBT1RsDrEtcjR24xmts4DLvg2A4gETZ7cIAS5IkT2y3YXFJrXCTwvwqoH2V8HpuEzfsnuIkUXx1IIhYlYl48So/dyh5j+JiMFEoYztFxWmI7RC/ypPbl7/voL392YnXi2Ed+4ie+en4YI4zwMmBEsEZ41eGxu+6a61j3bwP2MwBs2PH8hWJQkE8n0j1EOo5NC5QRiGDZW9FJz/WgndXn4w32aOvW5vJjW7f8s/GsdreXFVkhiUi225ac/OzuHRfWJ/H/PLYdtZ0AGrpY2EXMo8QRprYF7/4Xs3/ME29+UzP8t29sP1NPtK7VBhRxPkzNfT7b+v4kFt9pYAKBEUzHel7xp4vWSZdQugMor0K4MpS+G1gNAJdsUyxA6bSgs1UESkchrMLsDMQTIDK5HVHsna5E8l5ayJTW5R2vx1oHPqxh6t64i0fv+6UC+NALPtLnw+HDh/lofGbX2mO2RROlWz5eC8QuoLMXmIxFirJY4xyQ3JQ21FABQ4NRhRpIwyEWqKvPdshCIhOQRogYds2nSLBqyj3sQ1b9j1V1HK3S+l8awOpfZPMyIo/try+V0UZG+CaAm3tLDZ6v/KxugxireCZBQBSPrDZXPgLgt17mox5hhJcUI4I1wqsOHXZvBHhwPFhoPUfDYqLqnZewag1j/Z+pEe3o6Lovak2LYwcQsq2YITA9mCsYEU2d+g58NF6PT0R/5NFTb7un+MNDh27uJjWm/bQjAJgFuPw8E37uQz/48+sVZDfGLALaT9rYcHRCsQTEO2LALxEwoM1F1Od64F4HatqU0hE6VrcLVmvOWGgaHGDloVUrHdEuXde6wXDObL3Af13jtE6iNuuf+iJxCH4SQgrxBODnQLYVeUqGtskXITvjlCCuWEBbMRZB6bJbWcTYa3ttanW8A3vwU4cv4AXgBNDXLB2+7PPf+we/cl1SWglwUtSc6FOAolxTYJiDYRLuDuMkHNVjwR8D6owYE2IdMBkVRDUhmwAkRkhAndCkyH7FppxAErJknGbQJankK/ho+UCfNky8+sS0ryvbfIMGkaMBgVb/h6oCBbu8v9bFIAjY5fy5Xl7Q+gRTVcq5iqStH2TfL3WDpIckQWfxwkHQdnyNDnmEEV4yjAjWCK86iMhJFEYgITcRrEFzYkDIXYjQWhQW6FqWqSNxlRErIM7Debo85mcbB/XebAveNTxRYkRh3pu+s/3xbd99rJIuf/A+fM8ffuPNafQZxQ3CRANiW+WFp/Psjff+/PtWTscsqWNC4G5A111sOimVIsPOELKd1QQB47GNaeRVYGCIXxHCGps4iwQ1LxEh3AigFiO42W6oGi+gCAmOJSlukyr3ApU9CKsCOgQ7AFZQ9RIsWPUWjBKeBXECQgbqhMzOMpadwHCqKMr2Vz71Kwu4xhjLPR87nI2lU8283aVbfUr0LCmVxMgazKeSJEEsVUeIk3IktFACmKNrXwwqJZ8iMCdhCrQIwyShrXBMwhghTIUsGU8b9fVU2fpiP7jmLsh9nZBU+jAfIgMVG/AYgTJWRGidvPRvCNG3sxrcGwBh8w0YpM7cY5dVR6Th4Q6gLaBNoRjy0ELf/iECXAbRA+CXRIWGdyIVIFpwdED4hiru5YcqQV9Ksimo+VwMkYA78BWjjZzZR/i6x4hgjfCqQ/T64ym7D6wovh8YMtEUVAmoFVE1J16CcBzgl2D+BIBzZDj+hs9/6fHh+VYOvO5WlJi9SCsOybpPPnnjGeAYgB+uf/PhvduSTvk6JDatYQ8sOXptnzn9YPdbesv+HUkNrwtpI5NHeCyqLnebFkBScsSy238cMOFdzJYXQDi0aX1yrLGJo6wjE+AgdnpEPfolqUEAcCK6vA2PXbkXrEjVCQBPgTwH17zMjgbiXKG4kp1pHjty5HB+Ndf/8OHDhnfCjpyHAZOh3o22XLjVJmRYyUIj7bLTGDegG5LSSvV0R6+MO6Ua4X6zCdNubBgx7bKbo8tkmg2WXB/qA9NRh9ZFa+r7jG9Ee9Z1RwBAIZYl4srzmvVvxjB/ErxvVMb+PpzAuo9WX0LnIOJ6gLHafQnCN7p9gxAWBZwmMY8BBSYJeQnYOcpPA7bGIXrsgEHKEfBEQltSqaLU5d3emchMcS2UPP27P/SPW5cb87XAPb/5v261JN0egifRw2YyngJJSS+Tsu2298T/ee+9EcNXcYQRvg4xIlgjvOrwpvvvbz9w6Lb/aEmyDOJ1kuoAQKgr4ksWw6MJ4pmeZ50i7bhYFkk5VW6ZWPCF1S1x2OZBQrb2Bb9ufDzFymolkA8GdHPvdXv10x//5I1vwPQvvO3m2/KD579c3JI14jvGt3GnJ0NiejliL862l4o3WUUE0lh0MbR2PHd0gcSUO7aWq1Xb4YsqwMQEuaUISCAQTQHpRVP2wyOxXQ9nx0v/PWT2cV+rPZmFPOSxF2tlGjsTlQZqub0cp/ZMxcknT+v+I79YXilFdyU8fagx1jqX7Aw5J0Oqm2Lg1HhIZlRoJ+raVlhtLC2KnUK4AUCkMYVgNAFC0q8crBJp1KCptnl0eOcate4kGLgRbOJmS4hNgu7Bc6z4UCxLxLxYBvQUYAYihes0yIdVWakHSGswnkbUORpLiAHwnLInoGLJrVaUSc4xjKFXXhBRi0ViF4kDDcBY7K1e8Fp3Tdi6ddOz9W5boViLrTH4TGun+hZbl2DpyTO8dQccf/n8lgwvK8b3L04tLV1YmjnDmRt3biJOS0+e4Vhrp3YdOKPDd987OO4RuRrh6xojgjXCqxJH999x8uDJR/7vIiafSUIMABA9iTl6C0/dePuFe++77wrlhCfWf/vHf//v7/j9D659w3ve9Pi+8bGNQACtwMrK1vDAY9ff+DdHJ/8Z7ogZHLOST9YnOR1SmIaNqqqF3OKaZ1YfPH6+tYN9bRQAGpoU6rGLiDqG+VhqAcHx8CNuXzmAYmURnH93pzsz1+q9icHeOCx4IeXBvXPdau9z+Py//fzjl9ttHxu9Rz6y/tv3/uavXMd6yM3jPhGzIgPcD8DM4JgVtI9E2VnFhFFNBKTumkLVy64GsAmgASFxYCytZby4um1Yo1O1WB48MeSpxb6+aEhnNCBL7KfkNj0XDL3VFhTjSYBBlaP7PImzqAjSioB5isuABxiXAcwjakU0GqODoaXoq2aiExaAVu7FUhIC3QKTQkXJol0vs3Yr72ksq9FmY/zN7/yZ1ee50V8V3Pe12Onz4L4qKvVibflHGOHrBiOCNcKrEn0Ctdj/txmffxQAcNddH0hb01smFYrJRJySJxNCrMNs/Ctdzj14pty7bUZ3tbpje4tiCUAGADAUWOuMJQ8+OTt3Ia/NXVcjTIZ0LCAdM1hCDNkeIfaEou2Vdkf2vGqYfiNbCHEpOiJYtMZjuxHEbfGi1+YyzMXunyCb+w/WO58vpDz7ljOtb01LvxVJWCcvrHy7YtrR0d3Hlo8N7+4D/+nfN1ZXV5tlWTYtS+sUJ829SWOqiiAFF7YZsVeIhVP7CM7KFYx2s1wBxGxjaqKxrl1yQVCVxlsXN/cf97eXvY3M4yBiNDhYDgT3NiBMWI8slb3cEdWWUIJ9zRJQotIwne//LAcaJBImaYHkcQABhoLCPAPPKiqhbJnifFJLl1vohd5qsfLHP/ZPvibE6KsFfXJv/cL0dF0xvKxRIevkNv1NDy29nPscYYRXCkYEa4RXPe6++3Dy+MTprFnuShrWDb1WEZCkkx1xN+n7EMNNkbwZ9H0A5yDt312ro5AhTQPcE8QhnRQpFGXAyYUEnV4OKwlrGNLxDHJsEk+TQGc5oj0fYekLkxrLYw7gqMQvrpHde7Wyep2fvYNW++aBsKqKgTGWCBdu73z+U/jMH93/aP/16XU/fl1MePumRsgiYIpxW3Li9Ht31PHTvzP2Q4/NT3uP29dW1nZI3JFYup1RW0XcJHCHHJMAb0rqtTQxYiDcH5AlovLVoqoqse7yNXCSqpJOkrzvlQWCpVckyQFFkOoXZRaoIk5PgzgNogXxWcpPk9YGmLvpAZUqgsX2K0GDJN0TcP+Tm7VSjS5PLk+GWm/lEhNPpiWTsUawTnFZfRUAWD0LnTIPzSsNGN5/LXjeiXOtYLusV8zJypc1bZjULSx+9o4jCctTxpC+kNe41UvP8si1i8xJx01TwYtzZdD2ZrvE/qP5RTUsI4zwisKIYI3wqsf5pLNrqj3zdrBzMAdvsCQcArTTKUfVCiYASlB9HgyAznZ7vHOqxP5di2jWWoiebHzZ01HGgKcvJMidCBJCjUibm7rS9McCZVco2oSlKayfwpLiZcTtgIUUisVvlPSPLCTdJxeTO8r//tnf+5YpX71FQ316+rzELepZe3xpkzsoz2scuzg9LMr3wuFTVmsdbL7n2F1zt3z3o/ONotS1Xu0fAAAgAElEQVRNMAlSYNWzJqjyZQqAQj+XmZTda9M9DawI1vVMmx6zKswzQ97qSMJZEs8C6DpwnOQZSatB9oTTJQtnYqdzBONJAOqx0VnzTlEXJvuapYmG6t22irRVzNy8U7tWz+iVoEGa/8zR7Zb5jKFM00CHqNhCfSpd26Uk7AUVAcAAOWVE1kQRb/Jgc7B+9+9BNagDpKIX5d6MtsuB7HkTzT0pMbMoBZi9COvQa0OUEMhSTGN8QX9eINDzI+zitFKrCJkDRhm66K6CX6xTqxc6tSemz3/DZ6W/6Y5I1givVIwI1givVvCWd/3sAQb7vgi9CdR1AKcJjYM2a5Zs9NDrOz+uN0WWEKMwXY84cP2zGG8uw33jo5JYFwLw52cS3DJeWTakjRS1sf6YTfIrg5fF+bLnX1aRf9mNy6CtQXo7LXy3fLMkhTTEqEef+OS/fnCwbc/2ELt7bh1XYutzs7JWit255PSXvuMHbzlw6M7ZQ53OwYVmggsfe/K9Mx9dS8q9QxN3BexgWL5h/IZOM9mdOOpJLbMN2wKsX4vh63KJ3xOGNFAkaLZBmKwimAwGLyKKdrcAtSRpCcYFuJZgXIJjScQCgCVASwa0HOjA1QEUhbBiFtoyL+Td5Vqjrlax3L7vR6+umvFasfDZ/ZOw+pTnaWwkRYywfaTPiVYGc4+yHaTm3JFZJRQrAc45uI9Ve5jBxQxAOSWhBpp5STm8nwNGE9DE4E1X1T6Qqr6TJwHUObBSG0j2qvipAEzUM4ZgL5BZ9O/jtbKQYLzYh/2qYP2/OqJX77PnOg4j0Or420G0OKiSZL/MQYgi3mJCrmC9lbD6sP7qdf8QGKUgR3hlYkSwRngV4rDd9s3tt7jwY5Deb2k2AVTprEr/48/RRw+IAiwA02OO6YkVZGkXRVn16CMdq+3dmF+eBFqG2Ixr6pbnauNJ0tyS7GJgMuRtBAZD2rDPJY3wO2uL+ecmpmtL6ViYLhG3kFZlxYb3XeaAYQEAvv9PPjzz0bQ+fuY3P/q2iWfOXM9iSAwehVhLw7N7t289umPL9xzI80kT9u++UGSxHsYJBzCUgSoET8nOdJaVtSTra5kuOfdhZ3Za34jpouhTXwPVEdFDWS4AzAW0rWooEx1cM2hJxJKBSyCWBC7AtOSuC0h8McS4+NEf+KdflYVRh2Hz33zL2Fx93BbLZTWziZkyz8cgqhCTJPVJWqgBgEpvOtGsHNcBSXWSuwhOolbGUuaE7xM4B6iMkQ5qh4Q5I9J+PLEUMDc1GxoY+IoOUJk3DKHiDO5C9EtDOiQQL04zY0OjRlRExb362bfeel7vUetHDK8WfcKTV+nYy9tCvAAIQApgrF4zGK9MstyB8aZlZsw2TdD/I8ASziAQqBHLZ4tbCyb/FMCIYI3wisSIYI3wqsNt39K6SeKPJLWxH/eii6qf8AtHz4mDTWF2PMLd4EPtT8wcT5/dVj7xzNgyGn6a0In2SX1m8juy65tz4UdAJZsiWBbQnAt/+Y8+fODj9/IXIgDc8t6fezOhOy4THXJAy1sP1ufe8XP/7lBrvnfH3Ul5cGnblm8fP/XMDe7pujOSYoTSRrqyZe7OdqNxZ5okSErH3HKOdM0vLdXquwoVCauG1n7RvvtREklRkCiWAspKXbXeRzCiWstPOHCOwAXIHoR8WeRZGY+7ld0//N6ffRIvUYn9QMP0SKPL27Me0W4mALDYaYfEawkAMCuMad3Yi6YkiytlvjeR7V72Xi2zsSIvyztI2yVTDEATshs9akv/Bm3PEsw1mlZdfVWthKr2jYPIS9hEeLw/bji/6xJWFssrnscLITf9lpHFZS5cX4u2QdX6xu6DsGvs+3RdaWaH6MOvvwoEEkcknO43CLhqCIxwTYjY1ev5tn6U7gW/P/pvzcoOY/AuFXsEHqyl1+rbMcIIX32MCNYIrz6I3w7yvV50X1iD3H7V2qBdTDsabpsosX2qBC9q5meWYG5q8cjdh/zX8M8P/u4TB48nOPnB5W/a80sfSOtZo+xt/r63YCginrmX965znjLyuizDTRjWG1cpPwuNdGpmb+N/7i2VPbjSTJaQtXr9xAKKnRvdQ+iCgmGpOY41ECzKSoReRMB1aWSkBSgllmdryJspBmE2WlXVSDMoOspe/ixha4A/BfFhED2JJwQ9lSZ2zkznitJ7WVFXmZgXmYp6t61QbolZnsddB85s7uTzIjH/maPb641ianfXmsut5jTkN4PGxBo7aTwooJDbFnW1G7RZlqUDlhhhAOlygEicCCQFgNK61g6ArCiBcnWDkl5NT2QjQCOMlXcDUBU+DhMqs6oN06bX2VC0ENXRFD2h0/NjALtkn9UL5sACgVMAFrzfNbn/SifRduDJAJuPiJd8n5NmiloI8FOoh3n24lVFoTrmrKFZoOheTMmvCgyRVmSB6dXtHw2qWIn1kIbdBK5zYY2Bx4hsHrGlibc8OopejfCKxYhgjfDqg5ATiAwJ4BHDXlCVf5L1011Vn70yb+WCnoTjNMgz88dw6tveeWHre+468Y4syfcJyfrnJJCo19pP3rL7+APAn6/gSLXd6qHBSyXE6rU6OYh3fv/vf3BK1L4QsP3p/7r2hnMPdW6gb+SIJCEEQ2NLYmkzm2KaIlXE3qKDrOiB8aKCM4/wkGBhchZraQqDEEg02xGh45vDAwI4bVBiKKH50v0kS18CtCbgKMA1EosAT1uwVS9iaeRqmWARSGOW9VYvnG+t/aefONzBSxCZWv7rg7Mun/BgYwHcLbAZDLMO7TBYIfg+wLZUYbZyyiMzAIlBGcgpSQTYdGgWhBtQs8B6Las0SbpIOzbc8eZiPZK0mQBVzhAbj836GqLBrQ39QQTgwupKhEctEuj0OWsXpU7DuFwVCyAQOu7SvBkDAMpVuGzeQnkWvu5DQbhHBZsP8LJyRQWii0bvmtRyhm6wDbaf50AKL0M9W87z1R6TqUvegAyR02srXb7rRPfi576e8MlP3n3qDbjwSC/3Ysf7vvyKcacfYYTnwohgjfDqA/GAgL9QzKcJBAF98ymPiFgQcAHCiogVgD2Dnnbak4DOJMHP4OlbHn//3R/5ltnpM+/u5eOQNqr3zIjE1o4vdbeex7/71cl7ps9sScjXI+LtXl6SIhKrljzfJvi3AdiejY81svECsdNBMpxwEUAD6pMJAEeRF8jyiJ0ri0g7a/BGffMpuoMhwerEFPJGE4lHoFvG5mIvhuWYYJrrkQICiGOI6PlTWRH/oGT6WAauuGHNXEeTRm3td777HyziRZCn45/cW5/ZMtEoVpJGWi8aCdiMBZsWVHeiabKGM45BmAFt1mATARiTuNugJoAtBHcAKpJge5rTAYih4lgDzb2E2A80uYQycsBz4C60u9qkRyKIwVUgMCTU5jppGmiMItGSYEYWkq+A6PWr9/5/9t48zK6rPPP9fWsPZ6hJJcmSLHnQYNl4trHNaAZjx2BCSEjAjROgA3RCdwJ5ujud3JC+t5t7052GpDvJ7Qx9IQxJgARwmsFON2EKZjBgY4HnQbI12LIlWWON55w9rPf+cU6pplNSVblkS3j9nqewOHtYa+86p/Z7vu9b7zeOGJdUmJk3bEimVic15xGHMQ540QQwU9M591RZ+mGTRSRyVmhHVEYHmopic94qVZf1X/7jA2H12/y55prbCmBeTcIDgZOFILACP3HUDx/ZMja4vCrIMS0H4nZjXGsK7nHy28zbtlpvbceWWz8w3u0cfT3nV9PasrNbeTnD18pzKN/o/3T3a9b93PJ9L4mduxjspUgX+2JW5ZPD6Ddz/W2jT9EcHicbGqccLYiXT2ZLpHaqKa05zLXb4USIwbFR4lYDxTM+qs7koWiWjDXzvKhIR5zX4fq+8dOjQ8Vp1F3l6K7OUSZ+uLozu/033/P+39vcFn3z4q67rkiumPBtGhiOopFeF+XjkUtzZ0nN0Sgti8qVkYtOt6bWpJXyNPO2uhSnE2l1CavwrPbmT+/vjZ06BdpSW114r/a/O2VhE0Xcwwfnrmea/F3Mfk2eUu3mxvJI8m2rA2vXKRWdToJTa5LaNUaePRiRpHHgMWSHXITwts9HesrnGk/ki8cf59ELb3zgWVnNGAgETm2CwAr8xLFly0eKc2543/d7G9HdecUcDHS2DFGMJvmIz4vV2Vix5Zsf6rqUUKI6viVb7/PKzC2U2SF+cOj6f/mdZs8vb4jyCFkMSoGkm6VBO/LSbrysEppHPNmIcLNPDQ6SuiNOIyyJSSTqRUaU51PDL0SCfKCWl5XywYE8+x+39K74DmdWHv+9m7ee0Xv/+J+5hl9OOrG2/2ixdtMndvCf+NUqfGTeAmt9lm0aJhoYSMZWl6PunMg1VvoKa0SyRmWxWjGrE3OJ8A7MSYoAh8PhiaxTniSwkdFy0hVjAUyk6aYYu2NmdCzF2vVMkVHkYrzhnzbjiBcNxBEH2+RMSHucufu9L1JhR2uSmkN5VKnXc8qmN0Cl08BpWbF/TyyA0yr9JT3DJaoK4IK3bDm+8gsEAgGCwAr8ZKJHv/ynLY4RqZnotXfT3/7Xld7bOc6xDtzgSGFr/uiLT59/zbKtV53v7kdq5/HaJjwRB1pnc0T13kqS9EZROyoleXScEuB2Kks0hz15Q0cLoidn3PYaqq+w/S7SnmZe7kzGmiNrH993RfXQ6NnUktrRc5lhnkY63HjsvCce/xrv+Q87AF7EJbufWnvVWpe6+lTXI+cM32Ck9ZRt/zU+MgTt1XnNLQ+uaxS2LHG2rERrDNYYJIKNwq1or1LTSvNKBXVn9HtUM1QDqyPqtapjIjo3Wf/U+XGTy+vR9OJx59r+ShM1T5GbrH9q5/PaN81nYmTMj3o4CBrHsbu92s4fFG4HkESwo6Q8aOYMz7Bz1jJUCDKTHzJnii0ZH89GDrtGr1vGkVO+JikQCJz8BIEV+Innlz713/vLKB9o99hTX4H1O8cyYKXJn+4cm/CcIfxg5KLT0yRakVZTfFkK4omKZjwV9rbWcCgzqkVG6Y/Tt9bARVGn4XA7otQcaRVZwzuLbNpqKovAl3o6qtpH0x73yP2Kd75iaERr7n/8/4kb+Vkkk30FnQPLNZw+0Xzk7d/46O53dM5xDy9Zsyr2qxIX0fKTgRbfEOlqkjN+Ltuw/8aX3lQbOGwjWx5eI7l1zlgmbJnBGmCNIEliO7M2ELWtHcp2yGnCt0leeBntdoOi2Zq+SnOiBqrdS3Bihd1kXbg5w3vRylR6adhkpfAjglFDDWENg3FD48IaEpmhPTgOOhjPvZ6MQMgdjPE7HC6pv+Te3QQCgcBJRhBYgZ8E7NUf+EC0/mziMuqJmtX+uNY4GGdpVIF4tXy5wUqdi2mTN9Y7OAdxdlKvmnw7+tSORImyNFbbED3Fk/h4QlzRbofnHYfzfkZ9PD9DII/3vhzDyK2kKDLvm0dyinG/zCKbrFo3w0Uq8nFt/ft3P/qf4SPjAG+B5YeuuLBPztWmph+dDEs06ja5vY/9m0sG9S/vHbr/Ez+76pFb8heN3h+5Mp9qdQrZU56BF+q0Nec33xwl2W9UkzhyqaMsJ1fcTYgmgKKcXw1UZ+pHkTo1UCBMpaBsm3CTd/oMquOl1QKewrOjXTCunQ63U46ncTxd5LZv+Yvve8oW59sUCAQCJwVBYAVOfSTWfOZPzmip3AycHWejl+Rx5SITZyF6hU/a/QaJaS+0jwHy8elZIgENH7E6HWMwfQqpMm2riDic9zDmY5LIcC7qpMD8rMIiM0PGQbw+gvf3Jn21Bw49ergYfrz5Z5S8zCIHmuiEYgg1MQ7C2hQYB9jHhb2xszUVZ9aakoL0mXCnk/S+Kjpj4EJ/49i9mzetOvvQxcU16foH9/b3tx702PLJuZRAZXneU1s2XjPzbrypTgn4wm7zhHdT5Nqr7zDr1Ee1U3tF2a6BAkYM9gA7BJm87o/M7TTnRjNfPprmrkUtkm9mpUqnMmmWy+OBgpGDnlU9/rbh0/yrl8ioNBAIBJ4rgsAKnFL84qf/69ne2bqotPUybZLZGj7931aa2TKwfkGf0AqD5S6KU+s0SJ7Wc0+a1WNvwhuz30p6ohaVaITMTwkyUYAlHE5PZziqEeXlES+/r+NXudac9U3UYVnkUOlHEVsc9lkntv/1G987BjdUzr3mktNdbPWp6iZyjv1N7d13wH3/xTcc9D/436T7b7n0wpG79brRr/l+34CpTUqyYVG53NZU19nPu5gc2bIiiwfH9lervgBF041GPUbS561nWSMy1zZOnSmuJmqijoqoqP3/MSA2lHlGxnwOfqgs7DGMfRjjoKeEHcSXhzAOe28jLiIzabwsbCRxvjTHofGxcnSo0co3v/7R4LwdCASeFwSBFTjpeesn/st6q1RegPebgQ1Wap031oM2uShaEdergCFftmuESt/uN1iUMLtpzCza0SZH4jynW4Nq1GqbkU7dx8WoLMcPDhW37WnwRK9jt+HGhF4LWtXuKzhRI+UoSh1qwl1ffNu/eQCsHaq64rINFvk1zsXTeiEOF3DBsrLym1cPn/tLP3XPe5r3nxuT6AUudVdZ6qvFiGBKZza/HSVvsd6Bs+ycuO5wKQyVMaNPVlALpndxa7fCS/sKepYPE8fCTTRqtvbqPC/Ryih9qWFzNCQ1MY50PJ5Kk422+wnqsGFDYI9J7HNSI4n8k9UkOmiX3h/MHwOBQGAKQWAFTk4ke+PH/6C3rxKd6eGfIb2t0tezscyLaSv3fOnJxhqLH6Yd3ioK+aKuwm/uORJV3FjqqU7aUhpIFWIaj791xbfe/f5rbtsL8DO3frjeOzz2BlDPtIiQc8RWjJ0ZFfu+/vVfOe3aazn82T/952d+8lvFNTuHLSr99NKix8dKXX92eeZFG8fetXygoFpJKGtGM6O9km56SRUCswFPuUzkLYgRWQ7NIUOlpvV4hnYKMq57n/YcLrKsWpookUqgAHmMBmIPxqOSDkhuP9LWUv6BKLbWwFX3LVlvwUAgEHi+EARW4KTkpr/7bytUjd/g4b1I5wL11lhjYY3ipmBm7b57neiNiyIkT9HMmsCOFu6hQVfue0nfzvWDyb4rLaqtmiixjpyRl34sctpWYeRo9fetB9L0reno5jhJ0jKfLArPPJzuWvb6wUdWX9Lz0LvL+1atvWD9gYtfsrv3gkMP9PTvHvf0TBVB3qyellTjBuONAu9EY0w09oFypqUHp8kcP3FtgIzsCKiYvr9KqPeDMxsGthnagdxewz+Ot0eLmO3V2B0qirilrOn702pJ76jn0PKCNCsY6ZM0v2bFgUAgEJgkCKzASYkpeqXw/x7Y6JLYqfSz6qa6Hhc5nHNY5DDX/kEiG2tkKsttlNqH2WNlK9+Bs72SHTFnQ7eOV57+2Gn7q2f1bP/d2Fpp2y+zPV4SG0WpfSbdvvaaLQcAfvTtG0674/BD139vdHXfzCTk4Vy8tDa+7tyenW9JXBZ7X+uVGDw0nqalwM0MBg0Z61e3OH/D40RRgZfDF1AOCUqYauggD8kVRs+Ao7fXQEaeiTwnH73dEjtd2BTx5pyh5X7k8PbKl2r9u//CD23MfEEjy6NRP1AMrbrwgdFF/HoCgUAgcByCwAqcdLzrSx/qa46Wl9cHB85pDo0yqwWNtSNS7YbNdvTfSJR5MVaW/gC5DoMNYzZi0hDGbhmPgu1T7rePN/q33/qe90xrk/OuB+gdGb/gDCkaKKes2ptoDizTyqE7LnlHLT4Q7Rr35w1EjRcnztdahZ+WlWt4tDIt+tb0Hj7PmZHEDojYujemVRjxVGsDgAIGe3NOG9xNM1tGFDtMUOxWOyI1ZX8T2GprNHP/5NgY24tMY5UKe4f21TbTctdR+mkpQueMgvKp3Z+ofNs+0biTie7UgUAgEDihBIEVOOlojFXqonDZWGN21KotpLy8SkyFIAcKJAkbc8a9YHfL60HFfnuSs+OT7/itp+caS998dbyTnXFteX80PMJFmDbVqs4aUww0s0IYrAR7c71m/y5O++gHknEjRpReRB0RJKCP0qqWQXGIpl8G8mS58cBBRy3i6L7Qrq9iuXBOyvNqWZZ45ZTZuKLiW0rdFUxL+UXOINFTxX73mXjQf6LnrPt3mVH+Ga/59ZXn2HWNGfZVhmGyvfWzOcyuxfw2AoFAILAYgsAKnHT83S/+632/+Ok/us/nBVESH03ztZ3RY1qj400z2wraZnAf2DZM24okeTxtjPoy6s1Hxg8V1UGKzzzCnI6ZuuuKZKQ8vGGl67/Yt3QZES80Uc/y6aLOe8DoRdTHm540a3J4vMJjY31ksmnRK4+xJmpRc03UsSN1rr1icOehiM0ry2kCK/fwkjVGEqkE7bKIp8tDtqv1EGckF3B1adPn4iLIn9bjo1vKH1fPvn87wN/2/erK5rJyjffTVz5OIStF176LgUAgEDgxBIEVOCmRuW+a/E0+Ky70qGom4S3D5dsQhxXZMGjIvA7lSe+Rm298z9Bc53rqrrX1qlZutFKb4ojVXqyTtHaozFZi9JpYLliJZxCjUnbrK6hO02KBkZH7CruzOoUMmyKCCsH6aoPT6iPUqgm1CA4PbeaJp5dDrAm7raOkkSMvygd3PV39UrW266vKz28deZS+8Xu4Me6xq8sZ9VqRGXnht5X32EMTr7VW+HMMzvFdatTaLmDsweyped/8QCAQCDxjgsAKnHRIMjPbB3zm7X/zh6vM+RRBltZaN9/4G/vnOm74jhetkLLlsmIgwvULP4DZMrzWePmNztlGL9YA62pVN5DWIihFWYqyEEXZbhMz97w6/wUyX2FPUSE1O6qYRDuCNeiaPvZjh8cb2kOUDz+ya3l858M96wZ6WedmrMaLI8dwrnve//urP/f+3y/uhvv4LpecVz/fkwy4WTZeDsDcbq1Nn2LP0XFXA6u7zdwwDA5h7tCcFxYIBAKBJScIrMBJh00JCc1VP6UHLkwPN6q1uByLizzqiarR6VLzPImLTbbZo83CNvTWXM05KErwpfCdxsWtTDRb8+u3NzkvMESr7NNIUeGIYjvNyqMCy2jXSJnZbo9920XZN6vVoUf/9w9fu/aDP6jfeMEy9ybvZ7bXMyK09/zX5Icf+qf2Kz1X6gUGG7tF0jpzGLpyy5ahyTNYDah1t6oyzGzUR61gBBoIBALPIkFgBU5Jxlt2SazsLd6SF7tE6/Hq7aTxYjNiQWxGNNbwEwsMF03kjCSGKDKiuGTHgbXlk1lfq2b0zNy3lkbcNz742ZWVzX9x5fr/udc20HzFG9OfPrdP1S5yCXMxlPmOh/7pPx8tQTfHRmDjbCnWThFKHJ76usyfYbJ1M/VYu8uNo+V57F2PfmLOyF8gEAgElp4gsAInPVK7mw3A8J0Xvczjfr4odbXEOgerktSlUWSTESp1rBXUjukcS1w512m2rPaxM4kceK8nm5l+BPpxGg3tfnTsZWfeN77iup7YXmpTU3gGcRJzoJFuvemGD+68qfPyQ8OJnRb7dGqEqd1ax/syH3/QcA9NHVPSaQanaer+gMAPF+WYR9PqzZxcIjT9/J39x3xz1Dl34Nh3OBAIBAJLTRBYgZMeM6R7Luk50tKVgl916Of7BuNqa7SkKCDLBfmxQ1Ttvntt/6x2Q+P2661MEmq4tiapzTwuTR2Npv+mNz62rOLusUt2H+bjl7/hDUnzlctSTSuRklBrdLyoOpsWLVoeaZ/E/sglHC1ENwPPPom/tNhNM6cyMZhGVs9nK74S2GvYjN5AvgQrrROqM1BkkeW+9ObsVqTHj3lzAoFAILDkBIEVOCUYbpUXOLnfxrghScyGDxWzVuR1YyI9KOFLUYByFSoNK83RBJ40My/pdOc4c2aJlDPwsq8Nvui+2yZeuyltvBDTxVNtEcwZeJ+D3SvjyNRzjI+37u/pTX9QFs1foN3gxiEOgN0Wl/5zD3zj9/dOnzSDPS7isJ+sEetchwRDMsum7S87iHEQWDuxt5fHjMcl+2Qzs0ePd58CgUAgsLQEgRU4JfDYmc74KYC8EMwhrpxr10w513YxjzoF7s1WOQo8LHP3ObHNyx712Ha5eHuk7F3Ae5wzfCdqZNZOsY2O+xZoZOoYZtqQ9NSWT28ybe1pwkFZ2Zy6/+7v/3Hjouv//ecLFePAjWDjJv8V4ugLpxXVo+m7u664IomjYoNUrihm5DUdhke5g7tFOS3lF8X6VlHYpbG5i2Nz1FzKkB9/1MTvQ37He576q2mO9YFAIBA48QSBFTgliMwV3qtVrVhitOusImdg7Topl7QV0chw2cxLbcexQ97vMbM9knYZ7PVmI8o4VCYaQo2hFVc9OgwwdOfFg8DZ3k+tkQJ5SoMdEW4I4AMf+IB7bGNPrTCWm5tu6tkuErPS0A5X2jRBBnD/y5Inz72t+YUoju7zpiIqtPuBb/z+3qnFV1m6L47LZecaDMz0v+qoydIbT+LSaSsCx5dFu9LD/GXLlw8anNUqxgvg7ix3337PU381LZoWCAQCgWeHILACpwQFbI8cf93K9DLgrParOgKUoCOY7UccMGOvjO2gHd65PbHP9gy8+OGDxzy52eb+XlcdHimnvGQYKgTbSvwwwAMXEEelO9dK9ftydn9EoJDZtryw2aanH/iA3woHaP90pTU8ENXqOgtZb7eCe8A7sc+pmFaD9Z4tH8mB+4D7PrH+l9f4qht79yMfnyXyAoFAIPDsEQRW4JRg8MrzHjr0w4c+lGDXgl4OFnt4xIwW2MNmrR/2X7V1Qavl7rrriuTcstgg+ZUztzmDsiOYzBdDAM3DxL19fjPmBjRDAZkZoALcNmrDc7rKH4tab8uZr6wR1DUzgmVgovRme0bibM6U3zt3/tXeubYFAoFA4NkjCKzAqYHd7O/95qv3nJ8durla50sAuWXFysFYPD1WsH/ngnvtrRg5GLne3rNLWa+fIZhc2+egMMd9ZjoE0G0brbEAACAASURBVN+zPJayiwXLNSOC1U4ZWlkU0T03/+IHRhdzifWkFvmWNpjRN9NQ3mEIKSp57Oo7HwnRqUAgEDjJCQIrcEpgIK65rQAKYElcydev6olHRu1ijOUzM37OGZg8xiN9L3r4MECWFnGS22ZgegTLjDIvAA7Fcb7ognINW2IVnS8YnNpX0ICW94D2FT4/drozEAgEAicF7vi7BAI/mRzJklhwBeK0opgeMuq0qRlJvH/KDA9Qa6QGbAaWaYqfg5kh7xvAriTvYtg+X3pBWNWBTT1JpV1Qv9ewf8zSclHRsUAgEAg8uwSBFXjeUpStmuBCjMFySk4uckaWKzd4vGOt0KZW9gjOjCspmhphatvBDwnbNuzzGbGw+dMsslL4x7wxGnWcUKc0kr7Ho0/FxUBj7jMEAoFA4GQhpAgDz0skbGhLcrqZVldSo5VNEVgRlCWH5LjPj1VLgLf/zR/2lFlxCWZOM9xIzRkUNuLQrqSnsrAO0lMYSJS1WnaH4IX12PU2Sk/qjLGy3GnYly/74QN3L/bcgUAgEHh2CQIr8Lxk372X1Ovm1wpLZzqWpomR5Tosr/uXLfc5QBnZSg+XG0o00wQ0chToIKZ7esb2L1pg7UlObwyM7/t0FEfZcFG8DmwwK/x2w26JTV9b7HkDgUAg8OwTBFbgeUnFu0SePphpiHC0OfROF9ltW/Kk05bGDxruAsPFMwWWOYfBkFr5tp27WLTAuua22wpg151XXfipCtyPaZUzty0a81sufOCBTEcN5gOBQCBwshMEVuB5icpI8mVhM8JXkTNGx/2oGXf2X3nfw5NbXL9hm4RimyVxDKCRRPH+V9Pytz3Dub3ohw/sBf6xyyhBXAUCgcApQhBYgeclg5AfRo3ILI0jo4VwDnr6HMNHylvl7EtT95exHHEpkMw0GZUvERz55Dt+a0nsIwKBQCBw6hNWEQael9iVW8Yd7gHEF8cafqR/WYz3aGio+Ixz+sjAyPJ7p+0vVsWVNGVGk2lzRt5oHXGw61m9gEAgEAic1IQIVuB5y8Cu8x4f2bj1wyr12PCRYjPwNN4+1dtYcY+1TU0BeOPHPtTnYVXsZpbDg4siyrJ4UPIPPptzDwQCgcDJTRBYgectduPNJfDdzs+cLOtL+vPM989MDU6iuyOSe5Z8goFAIBA4ZQkpwkDgOGSlHO12gLMos8ILd/un3v6vH3nWJxYIBAKBk5YgsAKB4/CZm37zCRy74kqFuJISpQlJrQrQAj7kzN/+HE8xEAgEAicZIUUYCMwDE99rDo18EdgELCstP4R0u/L8I3/3zveHAvdAIBAITKNL0iMQCHTj7X/zhz1FHN1o8hvBPZBmg1/8q3e+s/lczysQCAQCJx8hRRgIzJNN28cacVF+zpT+4cjo8C2f+OVfbj3XcwoEAoFAIBAIBAKBQCAQCAQCgUAgEAgEAoFAIBAIBAKBQCAQCAQCgUAgEAgEAoFAIBAIBAKBQCAQCAQCgUAgEAgEAoFAIBAIBAKBQCAQCAQCgUAgEAgEAoFAIBAIBAKBQOAkYT5NyE/GRuUn45wCzw3hvRAIPM8JfwQCJyVpml6Ac2/GWwYIMDMKbzoYm32j0Wg8/lxMK6nXL8X7ywxW4y3vzKtZOn5YNBq3PxuTqFQq5wLnebPVTjYoEQGYUXrTYSftlbQjy7LtQGOJhu1JarWLIqmvlM4x2Qqwgvb1Z950SPB4DDuazeaOJRqzG9UkqV9opg1yGnCy5Z3rV3uznBz7nLTPO3cgj6LtjI7uX6qx07T+WjNtkFQHKyc3yZlZC/z9rVbtTjhyZBHnT5KkfjGRf6HBms77C5wqmG3LougbjI4eAPyCjj8uimQaMrmnzHxWOjcUeb+31Wo9yVK9f/r6VlSy7IXgLpZUAZvrGhaGU+Lhu0WzeRcwuiTnDASWiPi5nkAg0J3oPEm/bU4jgAQO0UJsy42twHMisCj1doPrZJxmTjlgApz4BHCiBFZcrVbPkHS+hw0edxHoXBOrhQZxbYElUZo47LG9mO2sVGpbwT9gZg82m83dQLHAcV2aphdCtBmnC5Fe4GV9BufIsdJQ0Rk3N9khg8dL2JFUKg/LbOuSia3e3lVJWW6wkjPN2CDzFws2mGxAaHnn+kX7f5zJ9nnYZ9KBtCi2q1p9TGaPFFG07ZmJrWVVWfP1wKvkWD5x/RPjIrWEbY2rzQ8WTb6xiAFSIn8p8A7JLjanBoBEv8l/OS3LezI4zNwCq+vxx0MQmWxIpqeEZc77IY/bm6a1J4Dtingij6IdjI4+vYhrAqCSZYMyezXSjXIMTL13zwTJ6k5ST0/PQ2NjY0FgBU4qgsAKnJw41Q3rQeqBo6FWbzDS/gb87FOtVld66WcxzjJN2WCGpKtqtdoZjUZjD1DOdY5FECVJ/WKPfzPYTQYbMI7Ga2DGv2GdwUUYSAJsh+DvkqT++TwffwBozTqiOz1JvX4B3v+6pF8wrLd9WPtQm3UGnQVcZgbgMGmHNz5ZrVY/0Ww2n2Dh98SAeq1WW14UxQ2IGzGullGZHH8iaDX9INBqm/KKSYC+nxTFx6Nq9WvNZnMPkDO/+zBJv3fW0kphZxj0zB4XzOws5O+p1+sPjo+P71nQ+cGQ+gxbg7EMsaxzTiRWIZ8s5vjjDwrAKoPNE6+Yic77rIXnu4mKz8W12pcbjcYRYIy5RV5XJCXCDRo6w6C6wDs/99wNQMskRUtzxkBg6XDP9QQCga7Y7Ec4UHbSMkv053kB9PaeVsJPyaxv9ujCYGNZ6p8DtSUc1eJa7aXm/O8j3g+c2R5uHpc/ucuZiN+yyH+4Uqn9K6BnHuOmSbV6k3l/i8Sb22JC87vrOjq/s4S9z8PNlUrldfM4coIJrdKfVKtvKaXPI/uQwdVAOkXjLWQumLgC7INefDmtVm8EFvdANivBijnnIGHYG/Oy/NlFnb8tXMouF1la98/EfI9fGJP3OW3fe/tgKb6QVGrvpLd3RWevhZSYCPCCcmk/vYIFir1A4NkiRLACgXmQeL8ecaOh+qyN7QfGGTKu7+np+egSpSrq1Wr1Zd7rt4BXYhjq8nmdeMTN/dCK21/ztZb25/24D8WkWn2ryd6Hac2cOx9/3MikQeAib7Zizr2mn1GAkqTnMlzxNhOvB84zdOwvglMnOfd8UpNWACsQ/zGtVs836ROtVuvRGeMvBZsNd0OaprdnWfYQC0/NnkwYULF21PiFBsuSvNxA0vPXeT5295R9FiJ7l3h6x3l/BALPEUFgBQLzwLw/F3glMFeaJsU4ryiKS4Dv8gyLg5Na7SLv+TXQ9Z3Hl5ghjgQjJvbS/gbfIxi0bhEqqQB9zzv7Fu0U4VzEcbX6CuDdmC6Z61Eos0MmHQZKma00aRldouEyDhjcinMPzeOSBVilUtns8b8C9jbM+o8VrROMGhxENGnfgwijHzHAsSKJZudI/JpQNU3Tj2VZtpWlFEEGQi+F6N3AfwSGluzci6cQNKcX5h9FoKTre2c6htkmpHfhfKVSqfxJq9XayjMXTS1BtvDCd5lJdczGzZaoaD4QWEKCwAoEjkNPT8/qvCwvwiw9ZnpO9Hrcz6Zp+kSWZQ8/gyH7rNS1GG/qnBemi6sG8KRh9xt8x0Np+DMM9wLQpYIV1hYYRjtJ9m1T9Mm8MX7nsQat1WprSumDiKu6bC5lNmTiCUP3Ih4yswbochnnWTsVOUhH2HTE1VezJPltRkYOzOei6/X6mqLwv4PxJjPmElctQWaw17CHMN0j2UHwmcNVvdho6Bxgo2BN5z5MF8WSzFiG7DdwllcqlY+1Wq1t85njvGiXL50GenNSq/1t3mhsYWnr8hY+JeMQ4h7DD7fTnNPeTyWyPmAtptXCakgVgwozU6kSZvRL3CRZpV6v/1/j4+NPPcPp7TRsG6ZxFpZ2BFkVtHVsLD7WF4dA4DkhCKxA4Djkub9ajqvtOLVPBlXQz5nZLcCiBVaa1l4np9fPXXGjPzP4aKtVfRqOTEReHH19aa0oqoXnt0H/AqjJ+L6T/qCVjX/l2KMODJZqvUqwwWY+5MxA2unEX5jp881m8+DERGAggaEsrlavdMa/RLy1s+WLWRL/LiMjh+d10X19K/M8f705XmfSsrmjZ9wJ/JWDbzab6REYKmlHrzoRvmUxHFGlUlkjeDW4XwddxPRrss75ncS/ktkDwNIJrIm5wqB53p8kPf/3lHTas087RbxVxu+lUbx1bCxp0e9nRRx7yjIpy7LuPZfjeKPgp02s7GyejKAKDC2T46fLUg/U6/XPLFpkGUj2FVP54ayVPUl//8Jq4yRjZKQBzeaixg8ETiBBYAUCx0HGK0y8fOpLgHWpPImAdR53PvANFh+12GiwadY8YMzEZ6Xos1k+vnVWtm9khAZQrVb/uJS2gl0q+Eyr1fr+8QasVJrLhV2ImFVjJjgM9g9ZGv81IyMHp29tZ7+KZvP2pFZrIPY42CPvvrYQS4Q4zy8x2W+AVs/a2BZ4jyE+JuN7RZrelw8PH4Juz9S2/VSr1Rqit/dQXJb3meddmL3J0PIZvy9n0C/x9kqlcqDVan15vvOdD+3omV6H87cBW4HxpTz/ghAtJ79/rNncB8Dw7F3GJv95IE3Th43oVpluAHuzGQMTy1IndjKxSuhXvNe9wKKjWGYazdLKPrJsiOEuEwsETlGCwAoE5iauVCrrPbp0Yq18BxM2ZNI+2kJo8lu3gaGXJrXaHXmj8YPFDCpjrYnTZ20wmoY+n2XjDxzr+I731EeTJDmvyPN7Jmc2d62MpIqwwTm2PmKy784WV1NmBkXeaNxZqVQOtlqtvUx7Xh+PgUFH61UYs+u+2knOx5B9NMsafw6MzDtYMTq6v4D9aZqOiCiT2T8zNMiMCJ3BdR7bDnyddi3WYmqKOqv3pqUjDbMq0psqlcqOVqt1yyLOu1Q4IKU9v+MZkI5kWfYg8GCapltl0TjoF4C1M/YzzF7g0Svo7/8Rw8OHFjUzKa6XZeW5U5+BwIkhrL4IBOam1n4oc9YssyXT/Yb9fzKb/pW7vbz9ait51WIHNdOqjsHPXMwnjdLMJ8XVxMyOhZ/TAkOMmflj1bgcPabVaj3GgsQVpGl2neDaLjVX7dL+qeJq4ViWZfc5/J8YulXd3L7NDOOSuFa7irYIWTAyOww2e8WghMGrZPZmoI9T7G9ulmX3pbH7z8Anuu4gIXhN2sxf8+zOLBA4+TmlPuyBwLOMk7gWOGOWsadsSyuNP2niiVlHma3D6XLaRcKLaUfV/RiRyuzltVptPrYHS8nLZPaiE3VyGS+fkYKdoInxt5J9ncWJK+iIv1ar9ahK92cGu7vtYmKNk65jMQKrncL8MY4Paq7Vo+KFSaXytkWd/zlmbGxsnzf7Mtj/olteVlzReb8HAoEpBIEVCHSnt1KpvMKM85j1ULQfmfguIyOHBN/C2DvraNm5aVp/HVBd8MjS40jZzJc7Dtg/X3j/M7SjIUtJBErpIu4MahKvjKvVa5Z8zL6+lQYbu0XsZAyb9OmOA/0zxef5+FaMzwA7unhnrZO4hv7+47mld8WMvVkUfR3jbrqn4M7D7J8nSf18Fmty+hxSNBo/RnxMkM18h5hZDelcTsEIXSBwIgkfhkCgC2manuWxn0Usn7bBDMHtzulOwBz+VsHj0wSChIz1OP8W5vbNmhPBTto/M0loP6jfnlar/7parV5XrVY3sgRRkSiKRkzsmnsPu8SJ30oqlffGtdrLe3p6ZhejL5ykkmVXYl0K26GFeLCVJD9k6RpWj+P9zYIdXXRkasbmapYNLPLceaeo/y/BHp5xemHEJq4wV/5itVo9c5FjPJeMZ2l0u8ET3ZLNwlamaXo2ixGPZsV4FAWbhcBPHKHIPRDogpmdDVzDzM9Iu6/dQ81maxdAq9X6Tlqt7gKmpdA6LuZXV6vV5c1mc0FLoxzsaIsAzu06N/Fi4MUedmP8TVytfi117pHx8fEx2jVALRa4grHRaOyJq9VvO/EeZhtOytAy4AbDbsDrW5kv/j5N028nSbJvbGysAWTMv8/hBDG4C5EGuzQ33GvGdxkdXcrl90WWZQ+l1ersHoEGgkphto52GvF4heAzqQDkzeYnk0rtChMXMvkFdsIWwmTund5zJ90F9MnNaJxRLe4Stqbjij+JUXXm1rAIuwvJetNWa3UGOf39838mDZtgqMUi3u+BwLNBEFiBwGxScOeDZlolZGAPyHhkymtN4CHBYYNpq/Bk1lein6K390uMjj4938FbrdY/JpXaZjO99jhyZY3E+wzeW5TanlRq3zTHD2Ozby3Clygv4vjhNCu+JrOfN5vmRTVz1d1LhF2Os9GsLB9LKpUfOvhKq9U6nlP8TJxMK9GM5r/t9Y6jgsc5MX3mHhE6YBz1eOoYb5hzJatpm5MuVGBN4u1TRFoJ9kszCvcjk1bg+IW4VnuyaDS+t+gxnhOOFKbavaCXYqyY/J0JE/1l2+D1+yzkPdD21Loeizam1eoYWTa/rIosoqoxUb0tNvtKo9F4cqFXEwicaILACgRmEFerL5G4eqaxQdtB3H8tErumLhUz6YeCHwHXMv31HsGNScv/OId5CyxADv+PEn8A9kvAurmmatDXsTK4zIxVeHtNgX9bWq3e5c2+WjQat8971NHRQ1apfEhYS7KbZoisqbRdvkW/wWmYbRJc3YnkPYL3n8mybB51UwMRtE6XWX26iash0xHBI5yAPn6S9ht2gKkCa5KYZ1g6kefjdyVR9WtIbzToZWaLI9lrHdoGnGICCzy+ad3b7US0U9WLWdSxQWgdWki7GyUGR0za56XvLmLMQOCEEwRWIDADB9fIeNWsrJUx7rGvFM3mtJVocRz/MC/LO4BrZwiS1OAVivyF5Ny1kDm0Wq2ttVrtT8uSQxhvBV02584TfQrFWoy1YJdKvNyhcyuVykCr1bqd4/fDM6BstVpbkyT5MC4uBTcarDrOcUl7XFsLvEjSsOHWxtXq3xTN5nc5VuqmX0ZLfXSrUxNNJ3+IExDBMrkDctpv4gVdNoslaEjspO957G8Fv9QRWZPjG8sE11Uqle+0Wq1/4tRqBu3oLqLE4n9XnbY8C7jt7S8/kbBe5E+5RQOB5wehyD0QmMQBNWRXGjOK2wGTPVk0Kz9mRgpkbGxsH2b3dZoOTw/FmFWQXVmpVGY5sx+PRqOxO8saHxL+L8HuVtuqYOYY7XEmkDreSxpAvFW4D6bV6htgtkP7DCbOaXme3xOZ/huyTwM71XYgz7qMO+XoiXHpx9m7THwgSeqXc6ymy0C7L17XpkCOE7Tazsw3Or+rE0ar1dpm8n9i2DZmCg8JE5cJ+81arbbmRM7jJxaBoJjTuy0QOAkIAisQmKRSqVR+ClO3h95u8N/o9L6bhYcnBD+gLUQmkcB0ueReuNhJ5a3Wxwz/Vox/C/Z1IMNmdQycA12A+E9pWnvfPIcTQLPZfCKvJP8J+Tea7PdkbGFiif7xxm0LrZcT+T9PkvqFHCtSLjlQtzNOOKOfANx5NscCgqUky7I9gr8GtnexoajKuKyQXktfX7dUZeBYmGGQgmIWl5YMBE44IUUYCEy2kXEye4uwTdNqgsyQtM2kj9O1ixsUSfJQ0sq/KLjcUGXaycXLZNwF3LzI+bVardYj9PYeSry/x5X+w162ycQlcrzAxEswc12c0AEijPVCr42r1TuKZnO+Rcglw8OHMjhUq9WO5Nh3zHO6wXqZrgCuAjYdowFPYuIynD6QJPX/kOfjP5q1x7DzqthBjCaif+omM5aheDNk23kmBeddkKlHWG/X5t0RMQy442dU58VwnsafTlv5JaANzIjImVgB9htxnj9WwG1LMeAJRphlqKvwdQ632OfJDsEua9txzO9rgxQbNgr+3iiKZrvzBwInAUFgBQIdiZCm6SbE1Z1+ddM2GzZmZj5N0/OZISnMrFSzWZVzh8D87ASeGdKllUplU6vV2sVia25GR/fncLSBcpqml5iPXiBji6GXCttsqLuPk3GRyd4M3M3CVvrRaDSegKOO9ZWkVrsM+Reb2eXILhPabLOtHaAdYfhpIn2BnNkCiyPerLoHzWiC3BY+a7DyZcA/sXQ+WJ3T2ypDM/zNOv/x/gAMLVX6UIyMHLBK5QseO8eMV85qDm5c4qTX09d3PyMjJ3unY2ewHuibLaqt6U2Lq5kz7jL4kkn7mWdWxcCBcqQnG43G4nogBgInmCCwAgGgVqut857rPVox6yu08MA6D7+CRRPRKZvcDBgZUm/HDX3WCQzOkuytwH9n8W1fppFl2b3AvcDn4mr1VQ7/Xpm7tuPBNXV4DE4DXkFvb8roM/rC38objTuAO4C+tFp9o4l3CF7eVWSZYehs+vuXd2kGXAqeNBjrEglbJbOX9PT01MbGxpZKeET1en11UfrNM5p3T9gFNIDHWGJB12q1vppUapuQXjlrowTYm5Is25nDR5dy3KWmp6ennpXl1cbMRuSGTEOYLXzVZ/tTtC1Lkn88RjPxQOCUJAisQADI4Wwz/Zypqyu6A10Etvk49bRm3YrJ24ecIeNa4E+XYr4zKZrNb1er1V2l9H/K+BnTjNV/bSuHFT2SW1An5mMzljWbNye12mMm/Rrw9tm3R0jWX82ygSbMFFg5ZvcJHbbZCisx2Jjn+Upg3xLNN8m9v9aw07v8HnMZ27M4GaG15KbiGd6+S6TPIN5Ex5T0KMY5Jq5N0/TbwkWgE+H99YzJ83ylmdtEl1WfJkazONrB4urmonpZVsaPv18gcEoRitwDAcDBehMvYe62M4lB73F+epi7hiQ147xKpfJKZizbXyLUbDZ3Rcbf0b2oGtmSf6HyQJY3Gj8QfKtTmzNdubSjZ2cXcHaX4/O80dhisKubcJVYJrN31mq1szovPaNi5nq9PmjirUKbuqzDPIDsriV2jj9Kno/f6+EvYK52RPZicP/WTANgJ5NtgwFUq9X1Mvc+zTDTBdqtoeCJjpnuwgWWui5yCAROeYLACjzvqVarG+V5GWYRJ3JFkhj02M+maXrW8Xc+ykKsCqzZbN5ustmtYBbHvMcWbAeeZGEPWAG5ye4BZs3ZoGpmv1hI19OOmix6OX69Xl9blvolYS+blcps95fcIdMtLLA+bZ4YkBfN5vcx/ifGU12bTRu/gHgxzGnw+lwgGBj03m4Ee6vNjL61eQhbmM9bIPB8IAiswPOeUrrB0E/NsQovX8RPRnehkRhcY2bzFVi1JKlfVq1WNwDVeex/TJNM0zzrY3p7T0vT9JIkqV/K8XysOkRSAozOGr/d429XPGfkBkrTD5C6Oc5HwOmIf5am9Z9m8b5Y1bwsf8Yb7zfUP2urBLK7i2bzNk6MwDp6Txz8JbKuYsSgH3gNczv3P9tEQKVSyd6N6Vc7CyhmPTOEfd1J33r2pxcInNyEGqxAALuI7r5IHngULGNhka0StBI4c8brMbDJd0+XzcQlSf1Cc/pwCc2kWv3LvNn8q+MdVKlUrpPpjFnTbVfi7x+z47cjSbPyXZj7VXP+UEL9X+X5+BaOHT0yjzvf0AVdNmGm4WaaDtHsnn0rms3vJJXKpWa8edYo7RTjdXK+J63Valmj8XfHm/9MKpXae4XeizTLPLYjAL9vnmdDIBTNZnNHUq3eYrKzQZd22afCSeLrVK1WzyzF/yH0eqDbl4IS2O3wX2+1Wluf5ekFAic9QWAFTiUElGa2VHXaaZLULwH/AsyYEcESsA3Zv/cRT6NuqwO7Y6Ubtkg/g/iPszeCieviWu2+YzX7rVQq13n87wCXmjCMJE2rp5vp861W65HZRyxbltZar/de70FcYLNLoYbNtBXnjhXFqlYqtfcJvR3YiDgL5z+UprUPZ1njfwGz7ntPT8+aPPe/DHpH1zNKyNjZZQXhNEz6NmafAt7WqXdvt/85up0XIv5dUqm92OH/sdNYes7VfvV6/fSi0NUyXin0WuYStUIO+/tW1viHY81vKcnj+Ja0KM5GdBNYJ0pcFc65UY7jKVar1c7y3r9AZi8txSswLmbmgonOLCVaYH+UJfEPntHCALPm+Pj4yW5REQgsmCCwAqcSDjTgvF2d1GpI6ua9NIsYotJsJIYnG43GHibTd6m58i1dVwca+yT7Sp41vsgian8S6s4i/wbExUwtnBfI7FVOuofZzX7bNgIFVwm904xrjoo+cRWOdV7ujKRSuc/BU6XZMKBIGpA1L5O43uDlkyN1HtZmmNgFuoXh4a5hpFqttq7w/g1Cv86kGInNeI1QlFar5wqeNG9HnNNIAd55W5GX5QsxbsLs7C4pVi/jDpk9fLz7lWXZw3Gt9hdOOg3xKozqlLsuoILphSYuEnZ+mlYvB9vmnA4X7d+nARaDK+H0oiwvlrOXWpem3UdPahxAfMnwt9JuBzS3bepSMjq6X7Xa/0J6icGr6daLcUkRhp1WotdUKpVNpVnOpJCT826ZnO9H6iu832DYBYKrzGzlHGlz1PZj+3wau8/m7eL2xU4NjHPTtHaDd9rHAtPAMUSSdrRard2cmPRuILBogsAKnEpEwFqhXzdvbzNsXn+MPaqZeLB0fAb4Ep3IR61WGyy9Xg+sm95B0BDaLtMXaIujBf/hjmPt8d4+69smnNOiXx1PqotoWzo0mTRnTItCL8Xpd4Aru6TL1prp18AhKXOy+wHzZutNGpwR+pjanzAT9p282fx7Zrby6VBK12Duv9DdQ+tVYK8yhEzjXux2gEzrTJ2C8W4PYmMv8PEiih6d+04dJSsajTviWu0/OS9DXD/rWtpDpMD1OLsehBcPO6xJpwmxRz0GGzBnNilOZyHjgMFXszT5HUZGDjDnnieGvNG4t1Kp/FeZXYhYe0IHEwidY+K3hWs6TbvOEvMXGpa2V562m/y1u0POeTuaiC/krfR389axI5PznN61ZrrUyRbq2G8e1Qz35/T2fprR0f3HPyQQePYIAitwKmG0a1TO6ngFraIwbQAAIABJREFUzTedkoBa8lrO0SLdZctKWi+XsaZbq2GTHcpbjdm9BedJo9HYnST1b+D4XUzdnlUbK5XKta1W62swo/GwqB592M1k8sGXtL25wHSMz3HbT/N/xI4/yucWigN4zjKb6WA/ddz2XKxdbL+h8+/uArdd1/Q0ss+lsbt1AREOXzQat8fV6h84WYbxhrkiKFNe3zTh1jk5Ot0F38RWIcSXOuLq8DznttQ04ji+Ny+K7wm7vlPgfsLorJzc0OXGCEjmvF+T+0zc3xLjjyP4SM4zF1cAJpYDyxapbxOZVtW9j4OPVuBkIwiswKmGsdD3bbu+KqUtCAwgTcfXInc9mu0+LjhopruYKXwWSF5xT6R5ebvEq6dZA7TThOdg3Ah8c8ohWZK472ZF8RGTvROzy4/x4DPm9uziaE2Z+Ac5bm40Go8fY6qjkvuKWTko3L8w07KJeXbBcazVx+2+jcNgn4tM/+/Y2NhCTUJVNJu3x9VqaeIpM34GcXqXGrkJ5pde6xwv+J7D/qfhb5kSuXpOGBsbO5Ak9T8g8mvArj6OyHmmLPxzc/RIM6Qc7KvC/0OEfbXZbO5cwrlFLHaFqBnIh4bPgZOSILACJyeSW+K/ma7dSm1CNkQvEPppm2lD0K5X+oE3vvOMRxwdHVW1erOJDZhdMPUBamgQ8eo0TTdkWXZf5+VybGxsH319f5vk+RGT3QicT3sF1zyFBEiMm7QD40cefbxoNH98nKPKPB/fUqvVni6lluCVwHlGl+LmOcbsZJaGTdoN+jLefbqZN3bO6/jZNItm87ZKpfIUco8KXol0nrDTDC1baKWUjH2gR8HuMc+3OgXtiwt4yCJQ0mUOixEIRZ6P/7Diap8XWo9xxpzXZcTyiR0/oOocKH5G5WSTh2bA00K7we5w+P+dtVpfyxd3YgNFBt3u3TMliKvASUkQWIGTE28ZJtReufaM/hybVAcbBt/i/2/vzqMtu+o6gX+/+9wz3Pveq6qMFQhklMwxSAjSUSAMzZQwmIiACWCLmhYVXdrdS9vWRm3tpmkHaEVtbJo2SLCBkDAEFDIRiAkkQAIkVUXmqZJUknrjHc6wv/3HvW+s8VVVwnP5/axVq2rV2+ecffa5557f22fv3x6OdwokjoVwuIYP2vkxUKQ0BuLGOsu+vau0AqtQVq3WlVlVnQfhlKXnQqEAERCS04D1DwJTi6+qZmaeqIBL2u32tU2Dt4v41yROkNgGNN+DtPQxRQANyBrDPqQbEXhJ2et9Cqt4xTla1Pk/tYriJRTfBODFog6HmANKRsddekwBiBBF6AlC3xJ5RdVvfxaYnMR+PeWB0dT/9+V5/pkIvJLE2RDOFjgxrItaO9n/fFs0hAYQH4NwvahP1IPedSvKra5u0xQKzRGYhJBoNCOP0jhWLli9CknCv6+jDobwH7U4M3KhbpTGCcyA1Z6SuGr4GQ/TkKJWF0SO2oM1ABGaEXAPoZsQkk9W3e43Vnlay3dONoK6IicpbNAeZjPu9W6lDsgensbxc2Z7ywGWrUkS7yb04dGX5/7tC8pIPSDwDgBlURRHNdAkhP8FLB9YK6gA+eU9pRXYSw1mZ7cha39i2Iuy+FAXlECaYww9jDct7GT95dGMxw8A+PMsy56NEJ5H4FiJB2FZZnOlJLZS8ZuS7knT9LHRAsn79BCr+/0bAXyr0+mMl1HPIfUcAkdLPARLglEANanHEPldMt4xGBTbgKkBFiPTA/LQGwwGdwP4MCYmPpaX5YYIHEXwDAAnAlwZdARKD0LYLIW70xSPdLvdLnZ83bsPdZsaCMW1lB4VOL5wbGpcxFdWv7+hbrf7cJp2LkdoOkDIsLJHRmqLurWVJNux2P47U4vcROhyCbeM8rftrQBgAMS7g/B9SfdWeb4NMzM1DsDi161Wa6qq4o1ChBDa2P157DVBGWO4pdvvegiWrTnuWrW1al2WZc/Gvi0eu1IIIfT7/Xz7qKdooiiKQ2KMbez4oE3KsrwP2FnIs4/Gxw/Lq+pgLV9zjSRjkiQz3W73CezNTMV16w4uynKdpFzS0t6kEELo9vv9xw9ovYcyjI+vL+p6IsaYLzkmScYQQq/X6z35FBx3t3XqdDqH1HV9EHZ8UDNJkrlerzcJ4EDnVkra7fYRMcYxSQkW2yJptVrbu93uw/ux73ae588a7XeH4yZJMtPr9R7FsEdyV8FhANavL4rBQTHGAqsLYkiyabVa03Nzc1M4AEHVCtnY2NhBdV2vX9F2+yuUWbYNs7Pbgb1cqcDM7F+wtRD4H6g6rIVzsafHvl5rf0bMzMzMzMzMzMzMzMzMzMzMzMzMzJbYt+y5Zk+vgGFKkQR7PzNqPnN1axXb7C9imD5hf/I/pVieb2qtmM8c//QsiLz2zX8m3R5PrxSLzy23u61pDrDsn4OJLMuOTZLk4KZp9np5kzzPjw0hf3aM1ZPYMd3Dvszc2tM2WZZlJzWdToWy3Kdp7lmWnZSmaVHX9TSWP0C4i3/vbd32V56mnVPTNLSbpjkga9DhqbkG+1J+9e05MXFwBhzXdDo1yvJA5GDaUz254u8Dtd+novyu9rG357hLWZadmCTJoU3T9LA8ia5nYtqa4w+lrVXtNO2cwiSeD+H5AI8AVUF4VNAXA/CFwWBw56jsQi9Cq90+O8T4RoFnkpiAmAmaAvgdCleXZe+LWMhwvWFDmvf/O4kH1DSfqarq1hV1KPI8P0fimQA3l2XvkyuP1+l0ntk0+mkBLxY0TnCDqB7Fx0B9j9Ilg8Fg827OM83a7QvQ6JUgjgR4KKgawnaBdwXEKweDwVUYJspcOG6WZachhLcAAGL8eFmW393P9t6ZJC2KCyG8CMAJBNeDGkjoArwtIH5+VLdlwWuapmeQrVeB8SwgFMPs8/NLaisB8Tgir1jSnquS5/nrIsJriLgRCDkgDvcvCkhJ3KgmXFFV3VsWy/N1AEDF95dluRkrcibtpj3n2zxtFcXZFH+KwNGiNlAcEzVH4GEBX67S9DLMzDyJxR7T8TxvXxwRS8Tka1XV/eZi+yTnIuAkAddUrdbnseOC2J203f5hSr8Ugb+p+/2FLPRpnr+L4LkABwCyFeefg/i7KsuumE+Wu4/lzxtldQ+AAohJRHxPCldWVfd2LMnblmXtnwR0IqlbBoPBtQD6nU7nmVWMryTwMgCbEeNny7K8bcU5FnmevziCFwRw02DQ+9OdXO4d7w8AgmZJ3IPIL5R566of9LqSZjvjTO62JqVp5yQm8VcEnEdgu6itFMcAvRbkBkVuBTAfYAnYsCHLBi9FjBcJ4eWjpV02iepSOFrE6aLOzLJOLMvsWmByst0ejDURPw/xthDCrQBWBlipxB8Beb4QrwHwycXjoUg7ndPrGM8H8BYBhxHcImpAsQPqhQJfLOCIVlF8rO73/wnLkzey3W4/s47xfET8jIgfIvCQqGkOH+onAXhhBE9Oi2JjliSfX7pwMslnS3jr6N9fA3BAA6yiKI6V+BMS3i7qGRSmRW0jkJE4AdCJUTw1LYpnV63WZzA7u21+2xDC0ZG6gAgvgLQFYG90PQAgkZAjaN2+1k3kWZDeAbADaPMwcFAAAAKZhLvUUns+j73IMyn8PEgIySDP8/85WoZnwW7aU5iYOCSr61ci4kIBPwZomsCjw2uN9QCeT+D0tCyzCvgI5pOuTkwUsaxeR7ALaiuAb863j4g3AHwBpbOyspkqgcuWn+WGDOqfAPAiKt4AYCHAInguyNcK2E7pkeFqBAvn36a4ATEm+1H+PJCvgXTv6FwyAOtA/BhDPLnVav9l3et9bfF6xBcS4aUSIoCvAejXdX0QQzgH4NskdRlCC8DtWB7YpkA4g9AvROhqAEsDrPn74wJEvGPp/QEAFI6DcDaCTs3LcmoAfHGXHxizHxAHWLY2heZfQXwHwdsg/GE16H0hy7KjxOTnCB2hoLGlxfO89yKB7wd4JKivQ/oYhX9IQuhGxVMAvEPgq8XmRXneu2MwwCTJKGI7pEnufFkZkexFaIrk3NIfpGnnVMb46xDeDGALhT8k46cShn4Tm47Al5H4GQDvpLixVRSx7vevXdjB+PhhdVW9nuCfCCoB/K1i+FCSxO0AYhTPJONbAZ4H4Zi6jusA/Nn85iQrAdsBgCuW+zkA1kfgbYB+T+STEC+JAZ9MgfuaphknebzINxO4UOKZWdnMlsDfL9m+hNAVNCviXYnig6PM4gAykFVVptn+9DgMCDwk4AER7wmxeVxSNto/k6SZ6vd6i/uP7IF6CNIRBC6Owwf9XVjS87a79kyr6nwI7wZwAqHPQOHSQN0CIDQxHIwQf5HAS4nwKkxMXIqZmfms9iI4DapLxKWvs0oITw6X/uNJoM5P0879VdW9ebHIpBjbA1ANyBXL/LAvaZbEXyvwCjbNjKTRd3kaWikewezs5H6UryDdC/HfS7wLLWUh4kWi3gLwwhDjVoyPb5kPqknOSZoKy9cEbCTOApolOS7o1a2iuG60DNPCUkoRsQeGJ6jlWffHxsY2lnX9RoL/Y3R/XLLi/ng+gt4E4MUROBbDZ5kzudua4gDL1pzRl+vxAAai/rjK0qtRYqYsyy0A3gOsS4DphYdOu91+Vh3jOQSOBPH3Ij9Y9/s3YDjGUAAebbfbm2rg/VU/vxOYntrPKhYh6KUSfhLgdyD+bll2r8Di+oAEcGee51+O4AcBnRMiHgPwDQx7sWJeVWcI/A8CSoC/VQ16fwOgqqqFB9RD7Xb7G410h4CLBV2Qpp3rqqr7PaxiAed9keb5hRDeLmIbiV9rBV7T7XYfq4fnRQCbsiy7F+TDBH4d5Ftb7fZDda/31SW7CQDrlPh+r9+/f9Q2AKrhK7ey3J+JBwTQEJzOkrBlrt9/dOn+qwoRSyc2BLUgPgHgcUBngLwoyzoPj67Z7mRp2jkdiG8TcRiB9yYMHxqtETnvwU6n87t1Xa8LIfQxMzO5y73teA6A9IDA8xC0HcDNu99k8YxAlhIeqfrZZmBqEgvf5RWrCg2WT+xYbfkEwJzEe6qquxkVBgBuTdvtryDqywCfl1fVcwfAl/amrhKmCGwE8NtjY2Nvm5ube2RPG1VVfAkC3yPgSUjvqQaDjwIYLLk/HsPExLV5WR5aDorHgIGDK1tzwg+6AmYrzZECAgHkBE5u13U++lEFYAqYfhIL46iApsGPgvxRAFsj8Fd1r3cDhg+MCsPfaqter3d/1evdPNp2ccyQQABlE8LOgq7ZSM2Oyi+MV0zTzilCfCGAlqg/LsvuVUvqV8//PRgMvk/xLwg8CvK5aadzCkazz6RwJoCjSFxONdeOzmd++xpA3ev1HkiT5IMUbiZwHBlfC2C+LZ4yFM8E8EwC/5gA13W73a2jNpg/N5Vl+V3F1qUAbwN0chLxguU7AUE0vV5vfmxRNfpTjv5e1qarrSIAgeoteW26dP81lgcMqaAnBXwN4GcJHIcQ3zo2NrYRu/8OzELQiygcReGWNEk+2Ov1HsCSawSg6na7D5dluanf79+LvVw7U8OAcCDwTwg9QuqCtCjehsWJR7trGwKqQE2O1tbUivPfyYSO1ZQXAZZJEp/A8HPZAOhLygG0CM42IezV2pMEckCXCriKwCuqpvnVdrt91B426yDoRAqHQrwsANdg+Kpy6f3Rw8zME8PxjVPbFw9ntna4B8vWntnZJ5Dnm8WwndL5tdDJss41UnVPVRQP7TCgNeiHKRwN4Lt1v/8NDB+uO5s+v2OvCVVTOBYxnp+128dISjHcuJE0RuAcgAcDWvgNmUk8GeAxEO6u0vRK9Pu7fNiUZe8zWV5cDOoMRJ0O4NY8z48WdTKEejjYu7x3V9vPzc09khXFzRBOB3kW1q1LMX2g1zBeQACpiGNITIL8XK/X27aLcqqquU1p3r4exFslnbyshFADamft9hujtDUZPpwBIMSYPFYVyf37PDA5ogGRQTwxzfN3MYTJ+esGoIUmfLuqundgMQgPBEoCdzbUpwj8PoCXVVXzTgAfwC4Xql6fioPnQwggbl3R8zKWZdlRIYRnSkpIxprs1UnyfczOPonF11W7SiWQCOy1Aj7VRD1D4r8l8ctpOvadqpr7Nnb7uitWFA8B8Yq0KHICXS0GZlkCXNXv9+/e9/KsQG1spFfneX5vQ3YJHEfgVQDaoL5V9/rf23X9lp8nA69njNtEngvgZ2rpdgCXYBfBaJZlxwM4UUBP1CcG/cF83QKAsTTtnBhCsxFA1ZB1iPHxMs8fwszME3tZJ7OnhQMsW4saSl+F9GkFnEvo3SIuIpIvpFV1Tcjz6waDwT0YfUFLOHz4wMV9wIYcmFw6FmSXSIpADeJ4ir+BqBW5EDh64aetiFyYNUVxo6BcwN0gd/eqS8M6albiOIlnAWATwqEh6nABA4h3A5jZXT0lPU6EJwVtgPRU9jqnado5ndDBgB5C09yGnbfj/P8lQNwEhGT0CmjBaExbB9K/I9CLZDL6/wxBX0nr+v9VwD6Ow2IDqgPpeILPW3bdSCA07+t0On/W7XbnAywJSAXEut+/Os3z08Dwuwr6tbTdvqrq9W6qgWaHhp2IiUo8i0CFuPwaFUVxqMTXNNK5JNdJzAlN5VX1BwPgBiwGbbtOWUCo1+tNp2n6MYbWcyCdx6R5S5EUk/1+f+sutgPIEmAL0kUELlp2EBIRugjA3fteXn0IzyTCL4oaBGFc5BGQxgF8Pw4H3O9NlD88TINyUA6+lhXFhyD8NonzRoHkpmExYWkzkTwqAkeD7NVp6zvo9+fHxIU8zzdG6B1CeLGobhDWi+G6Vl1/tB4OsDdbMxxg2ZpUluUdGB//rbyqPhURXkno5QB+isCbhHBlnud/ORgM/nF/jzP6Tf5xgjdq+JCZ/80+AipAnEZhPYJ2fq88ZZ1JK6u5MP7pnwUBybAXELcQmhJCa/T/KahNbOLejlXa2d4DhBLAvQKuAjiH+e8yKaOSG7rd7txONiSAokrTj6dVczyJdyPit9rt9rvrmlNIhL3NXdlvtXpZ2dzLgJskHE7gTICnSFyHVeQXHBsba8/Nzd2aZa1LQDxX4C9E4jYAV+ymMi1IEHE9hDtG6ReGAWxUIYWVaUFWV15qCeySuh3CeoEnUHqC4H8l9clyOKZurymoA6AbgI9E4rUQ3ogQtwHrfwforyZRq5Ik6camuUMIgJABeDuB+0KM4x6EZWuNAyxbiwggYnb2sQFwXZ7nW0h+TuLpoi6U9HIh3AvgHwGAxGOjB+7RwGS1ZB+7/eKWRIAJgXtEfSYBrooxZsN9so4xWcckvknEi7gwiBoQ9SiAPoXji6Jc1+9jV4k3CSABOE5iVsCDAJTE+LjIxyjkoI4DsAW7CdVIPhPSOInvYCbs1RiffVRVVfc7aV5sJ3ASkJyOxVQYy6qEhd65cBKgRsCjK8okAroiPpaAD8TYtOe3DQwz/bLc99c5AQHCQMD9CPxQIm2bv24AQpm1tqHEDgHWqIcqwezsYyqKKyCcBujlMfLNSOIjGr5GXLjOmAkNCzwI4VhQBy3b2ezsVDo2dkNd19+N5JGE2hROAbiq5M3DzyBQZslX06p5P6X3SvjZLGs3ZNyuYf6w5YG12BI0Q+A6xfDpEJrpxVmBCFXVf3C/yiNkhLYi8lMx6HFK/xnAC0WdMuj371nSnKtZVQH9fv+BPM9/T+B7Cb0+ywZbidCVNFh6jpLuJ3mfpOe1quq0Uc9UBSB2u90ni6K4UopfasgjIVwEokN5PLGtPQ6wbC1aGhjNjRKK3gng2qwoJgj8jqBTF0pE3qag+yiclrbbp1e93o3YeXDVwfDB0Mf8GBchCJoWcefycSgAgJCG/IUA++DiF7iacAdDcy/A5zfSa4D1H18y0HaZLGu/DtAPQXwYCb8DIA4Gg3uyrH0HqBaC3pBl2aadJGEEAOR5fnwUziKQSLwZmNohJUN94JYCEoaDnrdIeAGDLmi321/t9XoP7aQc0nTsJCK+CMIkwTuWlSACwKru975dA/s7a3Ol4SxC4smy1/tWtXJWZbnbSZYEgLrfvynL2n+hoNMi9BOUtoKcD9JGn52pimrfLOhsgc/Lsuzksiznz3MwGpP1CICtWZ6/ehcdjHvXOzM7uy3tdD5RN3gFiLMBvT0CX+DOl3pKQPQF3D+fvHQPVlleCcBZMt5W9wdb0jw/EeBRAF7VKoqXjHK67ctM1nowGHwuK4qzILwTxM+L+orEcSIudECVZXlXVhSbCbQZ8bYsyx4ry/J2DNuyP5pMAAAPp0W7PxyU72VzbO1x1G9rUcD4+GF5np8IYALDRIfAunXrKPZEbB+NjloHAEmCGyHdBOBwRL0jTTtnYfjZnl+3rFUUxbF5np+T5/nZY2NjhywciRCAJJGKndSjExAyrFgbsKq6txPhJgA1ES7OsurFox9lo2OmAFp5nj9H1C8J2Ajp1qrbvR3Dh2VNxlsA3C/hjWJyDoCxJdu3ALTa7fazRb4dxOkiHkDkV7DywSYyWcgBtXDsDIvr5K0ecQOB+yG8oZHO6XQ6z8DiWpApAGZZdhpD/VZAPwzwjibg68vrNdxTp9Pp7FMd9qaWYjY2Njbfs5Su+LOn77a5sux9EcKnCRwzyjd2GMSkXrzWZYy8XsSDIJ8nJhcXRXEMFte4bAFgURSHCWECO3/I7/U16Ha7TxDxryjcK/DHQL5p9KOVvZYCmEDsAOt3dv4rr/0qy1OAEg3vCWat1uWALoOwMQC/kKadU7Ef1DSXgfgSgKMFvJrUenBZ7rEuIjcLnARxochXYPH+mG93FEWxEUICYcdePrM1wD1YtubkeX5crJpfjuRb0jz/I4TwdTbNFPr1CaL+DYXDBNyP0Wu1Xq/3UJ7nXxLwSgI/pxCfkxbFpUH6aghhLsZ4chwmGv0JgpsHTfMb2PGV1mr0Y+Q1TPRJSG8G9d6sKM4Q+UU2TR8ARJ4t8mcpnAXwczHob4HF11aDNL01rar3EXy/oD/KsuKMGPAxNuHJEJoZKZzexPjTAM8jsJXgZYPlvQ+CSEB5JI8qiuK4GOM4AEitJIRmejAYPIThkiar+u2+6vcvz4aBxO8J/EDVxMvyPP9kCOF7TdNMzCcahXChwCkKl67IgfVUE4BE0LpB05yQZdlBGAXhkkiyKrPs8Z0sP7NSmRD/LYrPAnEupMMBTGJJgFVV3Vvy0L5M0LMAvKsRTsna7Q8nwA2SKKlogJeQej4EIkECbOBwN6s2GAwGn8+K4kcoXAzhx0GC3CHAipAyEkek7fJENtk0Rt/lUhqSpJnq9/uPY3HyxGrLL9Wam5t7NM/z6wVcIPFcJPFLqPCtfTlBAKiq6taM6eVgfBmFZ4AEoGW9dEmCf2oavQ/EHwD8oywrnhsDLmkB90liE8LhivhRQuMiAuR1dW3tcYBla85gMHgkz9sPSjgY5G8i6kkwGQBxHYAfAnSZyL9dsc3X8jz/TSG8k9ALAPwXITxcSyXBIzV8AN8k6tIshE01AEmB0kEANwBKd1IVSmqTXC/FZZnjq6r7vTTt/AljvA/C6wX+GqPePKwnElKHC8wA/W9RH6v7/ZuW7Xl2dlur3b6ijrEF8qdEvC4I5yBoWmQN6FAhHATon0B8NE3C5weDxc1HY2gOBXAUgfdE8RfB4UByMo5LvDrP8/cOBoO7sfoM19MBuETitKg3gXi9xFfW0sNkkovaiGE3x9WgLi3T1tUr+tUyghsgHaSnZmxMLuBIAs+hcOSwzUdLvxCJgEfSuv5oBXwYAIbpNsJ6SW0s7+mo+/3+vVlRfBzCMSBPhXRwImVLG6zVCpeWTTMN4SICP46okxtiq4CGCDmlw0VkAK5HzS3A5HwgTUHrKLSkkC3Z5W7bJyE/UguHk/gVAog79K6qGGZHx8WMegOYLC59wyZrhKtb7fbfLQa9qysvaj2Fg6RWazgsDRik6Y151XwA1J9C/NUs60yWZffy3bRvQmpsmIIr7tA7XJbZdWnR/wMKf04Sili2dFKv13uoKIpLG3EW1Pz98ZKGeJwkQtR6EesgbCXwVUl37fSTYvYD5Kjf1qIyScIUAqchEEQ2ypjwCIBrRP513e8v7TEhgEHTNN9nlj5IYBaiRCUEWgK2AfxygP5PORh8uqqqaQCo6/EktOpDSNyoGL8eY1zZqxVaraSAMEWEW5umvn3J8epYVQ/nWXZ7ozhDotFwaZRc1BzFLaSuDNBfVoPBzdhJkFPX9Uxsmm+1QrYNw+lUAtEWEAk8CPC6AP3fcjD4TFVVU1gSHCRJkiMwAXHfMEu55gBOApwS0GXApkB+o67raezDGK26riebpv56K6TbR7POWiQyEX0IjwK8NkAfKQeDy1CWywaUhxAKBjYC7hz0iyuBfn8Xh9knrSQZF8IsofuBMAVoZv7cAUyTeJSRt81fr1aSrQO0jdQ3m6bZIeBsiuKRoPg4gT6I6yFd3zTNfP4vVlU1G+v6jrSVbB0el30RGcWOqC7BuwldRYXLq6p3M+bzb5VlSFvphKDNULgtxmrr3rRPXdfTSci2MWgc4p0K/Gys6wcW2reVbBjmccVdAKcXzx/TAmZIbEETvrtwvFWWT5P0UBB3thJcV9f1FIaZ9+eKIr+niVoP4JHAuKlpms27at88z9NGSgj0RV4Z63rFzMN+P9b15qSVtCFOCvEfYtPMv2YmgFjX9WRs6mX3B8EJgGE0TOB2iFcoCVdW/f6WldfVzMx2byzP8xNH47HG9lh6qYmJQ4qiOBY7H5+xL2M29rRNlmXZ6ZiYOHQf9j2/g1NH43xW9mxwF/9+urAoimMxMXHInovuuO2BrMcqy+5PtvhdH3Ni4pA0Tc/A+Phhe7H9ao61pzJP5fkfqPL7er/tsUyWZadkWXYqhmMzzdY0Dwy0tS5gsad15Zppe5JgNOMMT88sI2Jx1te+plOYX8/w6arz3hqlnFio2790CRZTFbg9nj7zr/JX+11gZmZmZmZmZmZwvmyZAAADVElEQVRmZmZmZmZmZmZmZmZmZmZmZmZmZmZmZmZmZmZmZmZmZmZmZmZmZmZmZmZmZmZmZmZmZmZmZmZmZmZmZmZmZmZmZmZmZmZmZmZmZmZmZmZmZmZmZmZmZmZmZmZmZmZmZmZmZmZmZmZmZmZmZmZmZmZmZmZmZmZmZmZmZmZmZmZmZmZmZmZmZmZmZmZmZmZmZmZmZmZmZmZmZmZmZmZmZmZmZmZmZmZmZmZmZmZmZmZmZmZmZmZmZmZmZmZmZmZmZmZmZmZmZmZmZmZmZmZmZmZmZmZmZmZmZmZmZmZmZmZmZmZmZmZmZmZmZmZmZmZmZmZmZmZmZmZmZmZmZmZmZmZmZmZmZmZmZmZmZmZmZmZmZmZmZmZmZmZmZmZmZmZmZmZmZmZmZmZmZmZmZmZmZmZmZmZmZmZmZmZmZmZmZmZmZmZmZmZmZmZmZmZmZmZmZmZmZmZmZmZmZmZmZmZmZmZmZmZmZmZmZmZmZmZmZmZmZmZmZmZmZmZmZmZmZmZmZmZmZmZmZmZmZmZmZmZmZmZmZmZmZmZmZmZmZmZmZmZmZmZmZmZmZmZmZmZmZmZmZmZmZmZmZmZmZmZmZmZmZmZmZmZmZmZmZmZmZmZmZmZmZmZmZmZmZmZmZmZmZmZmZmZmZmZmZmZmZmZmZmZmZmZmZmZmZmZmZmZmZmZmZmZmZmZmZmZmZmZmZmZmZmZmZmZmZmZmZmZmZmZmZmZmZmZmZmZmZmZmZmZmZmZmZmZmZmZmZmZmZmZmZmZmZmZmZmZmZmZmZmZmZmZmZmZmZmZmZmZmZmZmZmZmZmZmZmZmZmZmZmZmZmZmZmZmZmZmZmZmZmZmZmZmZmZmZmZmZmZmZmZmZmZmZmZmZmZmZmZmZmZmZmZmZmZmZmZmZmZmZmZmZmZmZmZmZmZmZmZmZmZmZmZmZmZmZmZmZmZmZmZmZmZmZmZmZmZmZmZmZmZmZmZmZmZmZmZmZmZmZmZmZmZmZmZmZmZmZmZmZmZmZmZmZmZmZmZmZmZmZmZmZmZmZmZmZmZmZmZmZmZmZmZmZmZmZmZmZmZmZmZmZmZmZmZmZmZmZmZmZmZmZmZmZmZmZmZmZmZmZmZmZmZmZmZmZmZmZmZmZmZmZmZmZmZmPzj/H8i0NUIZzTXXAAAAAElFTkSuQmCC;clipPath=inset(23.33% 26.67% 29.33% 26%);" vertex="1" parent="1">
          <mxGeometry x="130" y="130" width="290" height="290" as="geometry" />
        </mxCell>
        <mxCell id="-DLyb005Au-b9Tz6lp2c-2" value="" style="shape=image;aspect=fixed;image=data:image/jpg,/9j/4QAYRXhpZgAASUkqAAgAAAAAAAAAAAAAAP/sABFEdWNreQABAAQAAAA8AAD/7gAOQWRvYmUAZMAAAAAB/9sAhAAGBAQEBQQGBQUGCQYFBgkLCAYGCAsMCgoLCgoMEAwMDAwMDBAMDg8QDw4MExMUFBMTHBsbGxwfHx8fHx8fHx8fAQcHBw0MDRgQEBgaFREVGh8fHx8fHx8fHx8fHx8fHx8fHx8fHx8fHx8fHx8fHx8fHx8fHx8fHx8fHx8fHx8fHx//wAARCAG4A8ADAREAAhEBAxEB/8QAywABAAIDAQEBAAAAAAAAAAAAAAcIBAUGAwIBAQEAAQUBAAAAAAAAAAAAAAAABAIDBQYHARAAAQMDAQMFBw8JBQcEAwAAAAECAwQFBhEhEgcxQWETCFFxIjKzFBeB0UJSsiNzNJRVdZU2VjeRoXKC0jPDdBaxYpK0FcGiwkODkyThU2OFo9M1EQEAAgECAAgKBggGAgMBAAAAAQIDEQQhMUFREjIFBmFxgZGxwRNTNBWh0SJCkpPw4VJygrJzFPFiwiMzQ6Ik0uIWNf/aAAwDAQACEQMRAD8A4ExDvYAAAAAAAAAAAAAAAAAAAAAAAAAAAAAAAAAAAAAAAAAAAAAAAAAAAAAAAAAAAAAAAAAAAAAAAAAAAAAAAAAAAAAAAAAAAAAAAAAAAAAAAAAAAAAAAAAAAAAAAAAAAAAAAAAAAAAAAAAAAAAAAAAAAAAAAAAAAAAAAAAAAAAAAAAAAAAAAAAAAAAAAAAAAAAAAAAAAAAAAAAAAAAAAAAAAAAAAAAAAAAAAAAAAAAAAAAAAAAAAAAAAAAAAAAAAAAAAAAAAAAAAAAAAAAAAAAAAAAAAAAAAAAAAAAAAAAAAAAAAAAAAAAAAAAAAAAAAAAAAAAAAAAAAAAAAAAAAAAAAAAAAAAAAAAAAAAAAAAAAAAAAAAAAAAAAAAAAAAAAAAAAAAAAAAAAAAAAAAAAAAAAAAAAAAAAAAAAAAAAAAAAAAAAAAAAAAAAAAAAAAAAAAAAAAAAAAAAAAAAAAAAAAAAAAAAAAAAAAAAAAAAAAAAAAAAAAAAAAAAAAAAAAAAAAAAAAAAAAAAAAAAAAAAAAAAAAAAAAAAAAAAAAAAAAAAAAAAAAAAAAAAAAAAAAAAAAAAAAAAAAAAAAAAAAAAAAAAAAAAAAAAAAAAAAAAAAAAAAAAAAAAAAAAAAAAAAAAAAAAAAAAAAAAAAAAAAAAAAAAAAAAAAAAAAAAAAAAAAAAAAAAAAAAAAAAAAAAAAAAAAAAAAAAAAAAAAAAAAAAAAAAAAAAAAAAAAAAAAAAAAAAAAAAAAAAAAAAAAAAAAAAAAAAAAAAAAAAAAAAAAAAAAAAAAAAAAAAAAAAAAAAAAAAAAAAAAAAAAAAAAAAAAAAAAAAAAAAAAAAAAAAAAAAAAAAAAAAAAAAAAAAAAAAAAAAAAAAAAAAAAAAAAAAAAAAAAAAAAAAAAAAAAAAAAAAAAAAAAAAAAAAAAAAAAAAAAAAAAAAAAAAAAAAAAAAAAAAAAAAAAAAAAAAAAAAAAAAAAAAAAAAAAAAAAAAAAAAAAAAAAAAAAAAAAAAAAAAAAAAAAAAAAAAAAAAAAAAAAAAAAAAAAAAAAAAAAAAAAAAAAAAAAAAAAAAAAAAAAAAAAAAAAAAAAAAAAAAAAAAAAAAAAAAAAAAAAAAAAAAAAAAAAAAAAAAAAAAAAAAAAAAAAAAAAAAAAAAAAAAAAAAAAAAAAAAAAAAAAAAAAAAAAAAAAAAAAAAAAAAAAAAAAAAAAAAAAAAAAAAAAAAAAAAAAAAAAAAAAAAAAAAAAAAAAAAAAAAAAAAAAAAAAAAAAAAAAAAAAAAAAAAAAAAAAAAAAAAAAAAAAAAAAAAAAAAAAAAAAAAAAAAAAAAAAAAAAAAAAAAAAAAAAAAAAAAAAAAAAAAAAAAAAAAAAAAAAAAAAAAAAAAAAAAAAAAAAAAAAAAAAAAAAAAAAAAAAAAAAAAAAAAAAAAAAAAAAAAAAAAAAAAAAAAAAAAAAAAAAAAAAAAAAAAAAAAAAAAAAAAAAAAAAAAAAAAAAAAAAAAAAAAAAAAAAAAAAAAAAAAAAAAAAAAAAAAAAAAAAAAAAAAAAAAAAAAAAAAAAAAAAAAAAAAAAAAAAAAAAAAAAAAAAAAAAAAAAAAAAAAAAAAAAAAAAAAAAAAAAAAAAAAAAAAAAAAAAAAAAAAAAAAAAAAAAAAAAAAAAAAAAAAAAAAAAAAAAAAAAAAAAAAAAAAAAAAAAAAAAAAAAAAAAAAAAAAAAAAAAAAAAAAAAAAAAAAAAAAAAAAAAAAAAAAAAAAAAAAAAAAAAAAAAAAAAAAAAAAAAAAAAAAAAAAAAAAAAAAAAAAAAAAAAAAAAAAAAAAAAAAAAAAAAAAAAAAAAAAAAAAAAAAAAAAAAAAAAAAAAAAAAAAAAAAAAAAAAAAAAAAAAAAAAAAAAAAAAAAAAAAAAAAAAAAAAAAAAAAAAAAAAAAAAAAAAAAAAAAAAAAAAAAAAAAAAAAAAAAAAAAAAAAAAAAAAAAAAAAAAAAAAAAAAAAAAAAAAAAAAAAAAAAAAAAAAAAAAAAAAAAAAAAAAAAAAAAAAAAAAAAAAAAAAAAAAAAAAAAAAAAAAAAAAAAAAAAAAAAAAAAAAAAAAAAAAAAAAAAAAAAAAAAAAAAAAAAAAAAAAAAAAAAAAAAAAAAAAAAAAAAAAAAAAAAAAAAAAAAAAAAAAAAAAAAAAAAAAAAAAAAAAAAAAAAAAAAAAAAAAAAAAAAAAAAAAAAAAAAAAAAAAAAAAAAAAAAAAAAAAAAAAAAAAAAAAAAAAAAAAAAAAAAAAAAAAAAAAAAAAAAAAAAAAAAAAAAAAAAAAAAAAAAAAAAAAAAAAAAAAAAAAAAAAAAAAAAAAAAAAAAAAAAAAAAAAAAAAAAAAAAAAAAAAAAAAAAAAAAAAAAAAAAAAAAAAAAAAAAAAAAAAAAAAAAAAAAAAAAAAAAAAAAAAAAAAAAAAAAAAAAAAAAAAAAAAAAAAAAAAAAAAAE19njH7DdqS+Oultpa90UlOkS1UMcysRySa7u+12munMS9tWJ11ho3fDd5sNsfs72prFurMxzcyX/wCgsG+7ts+R0/7BJ9nXmhpnzXd+9yfjt9Z/QWDfd22fI6f9gezrzQfNd373J+O31n9BYN93bZ8jp/2B7OvNB813fvcn47fWf0Fg33dtnyOn/YHs680HzXd+9yfjt9Z/QWDfd22fI6f9gezrzQfNd373J+O31n9BYN93bZ8jp/2B7OvNB813fvcn47fWf0Fg33dtnyOn/YHs680HzXd+9yfjt9av3Hu02q15pT09so4KGndQRPdDTRsiYr1llRXbrEamuiJtIW4iItwOi909xky7WbZLTaenPDM68ledGxYbOAAJk7O1hsd2W/8A+q26mr+pSk6nzqGObc3uu3t3fR2mu6muhK21YnXVpPfDd5cPsvZ3tTXpa9GZj9nmTN/QWDfd22fI6f8AYJXs680NJ+a7v3uT8dvrP6Cwb7u2z5HT/sD2deaD5ru/e5Px2+s/oLBvu7bPkdP+wPZ15oPmu797k/Hb6z+gsG+7ts+R0/7A9nXmg+a7v3uT8dvrV/4+Wm1WvM6antlHBQ07qCJ7oaaNkTFessqK5WsRqa6Im0hbiIi3A6L3T3GTLtZtktNp6c8MzryV50alhs4AAAAAAAAAAAAAAAAAAAAAAAAAAAAAAAAAAAAAAAAAAAAAAAAAAAAAAAAAAAAAAABlWt9Cy50j69qvoWzRrVsbyrEj06xE0VNqt1PY4+Fazxecdop19J08fInKxUXZ3yGujoKWl6msmXdhhmfVQb7l5Gtdv7mq8ya6qS6xitOjQt1l7a29JvadaxxzEVn1auu9BnDL5pd8pqf/ANhd/t6czDf/AKnf/t/+Nfqa+/cMuDWOWyS6Xa39RSRKjVcs9U9Vc5dGta1JFVVUptix1jWUnadt9p7nJGPHbW0/5a/Ug7iFVYPU3aB2H076a3tgRs7ZEems2+7VU33PXxd0iZJrr9lvnZGPd1xz/czFr68HFxaeByxbZYAkPh7W8I4rNJDmNJLLcnVDljmYk26kKsYjU96e32W9zF/HNNPtNb7XxdpTlidtaIp0eLg4+HnjxJhouDXCe4UcFdSW1ZaWqjbNBK2pqkRzHpvNXbJrtRSTGCk8jTMveTtHHaaWvpas6T9mv1OQu8XZzslwloZqR9TUwOVkzYX1czWuTlbvLIjFVOfRS3b2USzO3t23npF4t0azxaxSPVqhW7PoH3Ssfb2qy3unkWjY7xmwq9VjRdVXajdOciTprwN428XjHWL9fSNfHpwsQ8XgDuMH4RZVlaMqY40oLU7b5/UIqI5P/iZ4z+/sb0l3Hhm3iYHtTvDt9p9mZ6eT9mPXPJ6fAlmj4PcLsVpG1WRVLal6f8+vmSGJXIm1GRNViLr3FVxJjDSvG1DJ3i7Q3dujgjo+Csaz5Z/wfPpI4GWpdyhpad6psV1NQacn957Ga/lHtcccT35N2tl4b2t5b/rl6M4o8FLovVVtPAxHLonndAjm6r0tZJp6p77XHKmewu1MXDSZ/hv+uGbV8J+FWVUa1VqZFE1+xtZa5k3UVObcTfi76bup7OGluJYx9v8AaG0t0ckzPgvH+E/SirNeBWUWFj6y2r/rFuZqrlharahid10XhbydLFXvIRsm3mOLhbb2Z3p2+4mK3/27+Hqz5frRoWG0AAABJ2D13BRuP01PlNHK67o6TzmoRKjc0V6qz9y/mZp7EkY5x6cPG1XtTF2pOabbe0ez4NI+zzcPHHOlS3cH+Ed0oYa+30CVFHUN34Zo6qpVrk/7nNyKnMSIw0mNYanm7xdpYrzS9tLRxxNa/U87twn4N2al87ulIyjpt5GJLNV1DGq5UVUamsnLsE4cccarb9v9p5rdHHbpW8Fa/U0sVq7N3WJG2Wk3u66oqt3/ABOfulGmJOtn7c010t+Gv1OgpeE/CC8U3X26jhqIV2JPSVUr0177JFQrjDSeJjr9v9pYbaXtMTzWrH1OSyns3w9S+fGa9/XJqqUVaqKjtuujZWI3d6N5q9Klu+15mY2HfOdYjPXg/ar9X1eZCVytlfa66aguED6asp3bk0MiaOavrLyovORJiYnSW9YM9MtIvSelWeKWKeLoAAATPY6ns8VlPR01dSvp6x0cbJppVqmMWXdRHKr43q1E3uddEJVZxTxtI3VO2qWtalotXWdIjozweWEhpwO4YPajm2pVa5NUVKmpVFRf+oX/AGFOZrn/AOo38ff/APGv1NbkPDPgvjdtdcrxQ+b0rXIxHLUVTlc93I1rGyKrlXTmTpKbYsdY1lJ2fbfam5v7PFbW37tPqRTn9w4ST2aKLEKKWnuSTtWSV6S7qw7rt5PfHu9lu8xHyTTT7LbuycPaNcszubRNOj4OPyQj0sNjSLw4quEbbU+mzGme65SVLljqdJ9xsKsYjUVYXJ7Le5i/immn2mtds4+0vadLbT9jo8X2ePh548SZU4H8MHojm2pVa5NUVKmp0VF/6hK9hTmaT/8AqN/H3/8Axr9TSZJgfArGI2SXqBtM6TbFD5xVySvTupGx7nadOmhRbHjrxp+y7V7W3U6Yp6WnL0aRHnmEY8Qq/hNPaIYsOo5YLi2oassr0l3Vh3HI5PfHu9lu8xHyTTT7LaeyMXaNckzubRNOj4OPWOaPGj4stjAAE9dmX4lkHwlN7mQmbXlc+779bF4repNpLaKAAAAAAArZ2jft3S/R0PlpiBuet5HTu5vwlv6k+iqKyO20AATn2Y+XI+9R/wAcl7XlaF33/wCr+P8A0p0JjQQAAArZ2jvt3S/RsPlpiBuet5HTu5vwlv6k+iqKyO20AAAAAAAAAAAAAAAAAAAAAAAAAAAAAAAAAAAAAAAAAAAAAAAAAAAAAAAAAAAAAAAAAfrXOa5HNVUci6oqbFRUDyY1Wq4O50uVYw1tXJvXe27sFbryvTT3ub9dE2/3kUyOHJ0o8LkvePsr+0z/AGY/278NfBzx5PRoyuLuNT5BgtfS0zVfV0+7V0zE2q50O1zUROdzN5E6T3NXpVWu729jb7utrdWfsz5f16KlGNdgAAGfYbNWXu80dpo271TWStiZ3E15XLpzNTVy9B7Wus6I+63NcGK2S3VrGqyXFHJ4MGwKC2W1/V1s8TaC3aLo5kcbEa+XZp4jeRfbKhPy36FdIcx7C2M7/eTkycNYnpW8MzPBHln6IlV4x7qwAAmzg/wairYYMjyWHfpX6SW+3PTZI3lSWZF5Wr7FvPyrs5ZeHBrwy0bvF3kmkzgwT9r71ubwR4eeeTxus4rcXIMTZ/o1mayW+OYm8qprFSsVPBVzU5Xqnit5uVdmiLczZujwRxsP2B3endz7XLrGL6bfq558keCud1vF0u9a+tudVJWVUi6ullcrl7ya8iJzImxCDNpnjdK2+3x4axTHWK1jmYZ4vgGysGR3vH69tfaKt9JUN5VYvgvT2r2L4L29CoVVtNZ1hF3eyxbinQyVi0fpxcyzfC/ijQ5lROgma2lvlM3eqqVFXde3YnWxa7d3VdqcrfyKs/Fli3jct7c7Cvsrax9rFbinm8E+H0tBxY4NUt6hmvWPwtgvLNXz0rERrKnnVUTkbL0+y59u0ozYNeGONkOwO8lsExizTri5J/Z/+voVzex7HuY9qte1VRzVTRUVNioqKQXS4mJjWHyHoAAsj2cauaXCquCRyuZTV8jYkX2LXRxvVE/WVVJ22n7LmXfLHEbqsx96kemXv2iPsCz+eh9y893PVW+5/wAZ/BPqVnIDqLY2LILzYbgyvtNU+kqWeyYuxye1e1fBc3oUqraYnWEbdbTFuKTTJWLV/Ti5lquGueU2ZY+2t3Ww3CnVIrhTN5Gyaao5uu3cem1PVTmMjiydKHJe2uyrbLN0eOk8NZ8H1w53jngdPe8ckvlLEiXa0sWRXom2WmbtkY7u7iavb6qc5b3GPWNeWGS7rdqzgzxitP8At5J81uSfLxT+pWYgOogAAAAt1wnrJqvh1YpZV1e2n6lF/uwvdE3/AHWIZPDOtYcc7fxxTe5Yj9rXzxr60ddpqrlRuP0iOVInLUyvZzK5vVtavqI535Sxup4my9yMcf7tuX7Men9SCiG34A7fhXw6qsvvbVmY5lko3I6vn2ojudIWL7Z/P3E29zW7hxdKfAwPb3bFdni4P+W3Vj1z4I+mfKnniZxKt2F2tscKMnvNQzSho/YtRNnWyImioxvMnsl2JzqkzLlikeFoHYnYt99k1ngxR1p9UeH0Kt3a73K73Ca43KofU1lQ7elleuqr0JzIiciImxDHzaZnWXVtvt6YaRSkdGsMM8XwAAAnrsy/Esg+EpvcyEza8rn3ffrYvFb1JtJbRQAAAAAAFbO0b9u6X6Oh8tMQNz1vI6d3N+Et/Un0VRWR22gACc+zHy5H3qP+OS9rytC77/8AV/H/AKU6ExoIAAAVs7R327pfo2Hy0xA3PW8jp3c34S39SfRVFZHbaAAAAAAAAAAAAAAAAAAAAAAAAAAAAAAAAAAAAAAAAAAAAAAAAAAAAAAAAAAAAAAAAAAHVcNMykxPKqa4OVfMZfeLhGnPA9U1dp3WLo5O9pzlzFfo21Yjtrs2N3t5p9+OGvj/AF8S3cUscsTJYnI+KRqOY9q6o5rk1RUVOZTJuOWrMTpPHCrnGrCP6byp9TSx7tquu9UU2ieCyTX32JO85d5OhdOYx+fH0beCXV+7Paf9zt+jaf8Acx8E+GOSf05YR6WGxgE7dnfDmRw1OXVrEbqjqe3K/kRrf30qa9KbiL+kTNtT7zQO+HaOsxtqeO3+mPX5kccUszdleW1NbE9Vt1P/AOPb28idUxV8PTuyO1d+ROYsZb9KzZuwuzf7TbRWevPDbx83k4nIFpmQDv8Ag1gjMpybraxm/abYjZqtqpq2Ryr73EvQ5UVXdCKnOXsGPpT4Gu95O1Z2mDSs/wC5fgjwc8+T0rG5nkkGM4vX3h7UVaWLSniXYjpXeBE3ZzK5U16Cde3RjVzXs3ZTutxXF+1PD4uX6FOq6uq6+tnrayVZqqpe6WaV3K5711VTGTOrtGLFXHWKVjStY0h4Hi4AAAGfYr3cLHd6W62+Tq6ukej4126LzK1yJpq1ybFTuHtbTE6wj7ra0z47Y7xrW0LiYxkFHkNhorzR/uayNH7nKrHp4L2L0scitMpS3SjVxffbS22zWxW46z/hPlhCPaBwKOhrI8pt8aMp61/VXGNqbGzqiq2XZ/7iJo7+90uIm5x6cMN67o9rTkrO3vPDXhr4ubycng8SGiK3YAAWL7Nf2Suf8+vkYydterLmvfT4mn7nrlm9oj7As/nofcvPdz1Vjuf8Z/BPqVnIDqIBJ3Z8vUtFnX+n7y9RdKeSNzObfiRZWOXvI1yeqSNtbS2jVe922i+06fLS0T5+D6vMsvNFHNE+GRqOjkarHtXkVrk0VCe5fW01mJjjhSCsg83q56fXe6mR0eqc+65U/wBhiZd3x36VYnnh4nisAAALZ8Gvw0snwcvl5DJYOpDkHeT47J44/lhHXab+OY/8HU+6iLG65Gy9yOrl8dfWhEiN6dJgeDXTML2y30aLHTR6PrqxU1ZDH3elztNGt5+9qqXMeObToxfavamPZ4unbht92Oefq55WEybJcZ4W4nBQUETVqdxW2+h18OR/spplTbprtcvPyJ0Tb2jHXSHOtjss/au4m95+z963N4I9Sst6vNyvVznudymdUVlS7ekkd+ZETmaibEROQx9rTM6y6jtttTBjjHSNK1YJ4kAAAAAnrsy/Esg+EpvcyEza8rn3ffrYvFb1JtJbRQAAAAAAFbO0b9u6X6Oh8tMQNz1vI6d3N+Et/Un0VRWR22gACc+zHy5H3qP+OS9rytC77/8AV/H/AKU6ExoIAAAVs7R327pfo2Hy0xA3PW8jp3c34S39SfRVFZHbaAAAAAAAAAAAAAAAAAAAAAAAAAAAAAAAAAAAAAAAAAAAAAAAAAAAAAAAAAAAAAAAAAAACx3ADN/9Usb8drJNa61NRaZXLtfSquiJ/wBJy7veVpO2+TWNOZzPvb2Z7LL7esfYycfgt+vj8erseJGHRZZitVbURErWe/2+RfYzsRd1NeZHpq1ehS7lp0q6ML2L2jO03Fb/AHeK3i/VxqhzQywyvhmYscsblZJG5NHNc1dFRUXnRTGOyVtFoiY4YlscZsFZkF+orPR/vqyRGb+mqMYm1716GNRXFVK9KdEbe7uu3w2y24qx/hHllPXGLIaTD8FpcWtC9VPWxJSxtRfCZSRoiSPXpk8Xp1cvMTM1ujXSHPu7mztvN3bcZOGKz0vHaeLzcfmVxILpgAAtZwUx5tmwChe5qJUXPWumXupKidV/+JGmRwV0q5J3m3ntt5aPu0+zHk4/p1cl2lru+O1We0MXRtTNJUyonchajGJ3lWVfyFvdW4Ihl+5W3icmTJP3YiPP/ggAhOiAAAAAATx2a8hV8F0x+V+vVK2tpWqu3ddpHLp0Iu5+UmbW3HDn/fTZ6TTNHL9mfTHrSzllhhv+N3GzyomlZC5kbl2o2RE1jd+q9EUk3rrGjUOz93O3z0yx92fo5foUwex7HuY9qte1Va5q7FRU2KimKduiYmNYfIegFi+zX9krn/Pr5GMnbXqy5r30+Jp+565ZvaI+wLP56H3Lz3c9VY7n/GfwT6lZyA6iASRwCtU9ZxCp6pie826CaeV2mzw2LC1Ne6qya+oX9vGtms97M8U2U1njvMR9OvqWTvNzgtVorLlULpDRwyTvXoY1XaeroT7TpGrmO2wTlyVxxx2mI86k0j3SPc9y6uequcvSu0xLucRpGj5D0AAALZ8Gvw0snwcvl5DJYOpDkHeT47J44/lhHXab+OY/8HU+6iLG65Gy9yOrl8dfWinFMWuuT3qC022Peml8KSRfEijTxpHrzNb+fk5SNSk2nSG27/fY9rinJkngj6Z5oWLr6/FeEeGR08DUmrJNeph2JNV1Gib0j19ixNmq+xTYm3QnTNcdXNcWLcdsbqbTwVjjnkrXmjw+njVuyHILrkF2nut0mWarnXVV5GtanisYnsWt5kINrTadZdN2e0x7fHGPHGlY/TWfC1pSlAAAAAAT12ZfiWQfCU3uZCZteVz7vv1sXit6k2ktooAAAAAACtnaN+3dL9HQ+WmIG563kdO7m/CW/qT6KorI7bQABOfZj5cj71H/AByXteVoXff/AKv4/wDSnQmNBAAACtnaO+3dL9Gw+WmIG563kdO7m/CW/qT6KorI7bQAAAAAAAAAAAAAAAAAAAAAAAAAAAAAAAAAAAAAAAAAAAAAAAAAAAAAAAAAAAAAAAAAAAbfEskrMbyGivNJqr6V6LJHrokka7JI1/Saqp+cqpbozqhdobKu5w2xW+9Hmnklca1XOjuttprlRP6ykq42zQv7rXpqmqcypzoZSJ1jVxbPgtivNLxpas6Sr72gMI/0y9syOjj3aG6O3apGpsZVImqr/wBVqb3fRxC3OPSded0Xul2n7XFOC0/ax8X7v6vRo6LgBikFrs1ZmNz0i69j2Usj9iMpotssv6zm6d5vSV7emkdKWN727+cuWu2x8OnH4bTxR+nP4ESZ9lk+VZRWXZ+qQPXq6OJ3sKdmyNvfXxndKqRsl+lOrceyez42m3rjjj458NuX6vE50oZIA+mMV72sTlcqInfUPJnSNV3qCmjpaGnpY03Y4ImRMROZGNRqf2GWiNHCct5vebTyzqr92lJ1dlFrh12R0W+idL5XJ/wkLdccOidy6/8Ar3n/AD+qEQEZuYAAAAAEhcB651NxIoo0XRtXFPA9O6nVrIif4o0L+3n7bXO9WLpbG0/szWfp09a0pkHJ1OeIdG2jzq/U7fFStmc3oR71eif7xi8kaWl2nsfJ09pin/JH0Ro54oZIAsX2a/slc/59fIxk7a9WXNe+nxNP3PXLacfaKtrMEbHSU8tTI2sie5kLHSKjUa/Vyo1F0TpKtxGtUTunlrTd62mKx0Z4505laPMK7f3PNpd9diN3Ha697QgaS6j7Wmmused0mP8ACzOr5M1lNapqeFVTeqqtrqeJEX2Wr0RXJ+gildcVp5GL3fbu0wRra8TPNX7U/R69FjuHuA2zCLI+BkiTVc2klwrnIjUcrUXRE18VjNV016VJ+PHFIc07X7Wyb7LEzGlY4K1/TllFHG3itSXiJcasUyS29r0dX1jF1ZM5i6tjjXnY121Xc66abOWNnza8ENu7s9g2wz7fNGl/uxzeGfD4ORDhFbqAAAAC2fBr8NLJ8HL5eQyWDqQ5B3k+OyeOP5YcP2gLLcb1kGL2y2wrPWVLalkbE/SjVXOXma1NqrzIWdzWZmIhne6W5pgw5sl50rXo+tIXDzALbhtlSkg0lr59H3Cs02yPRORO4xuvgp6vKpfx44rDXO2O1r73L0p4KR1Y5o+ueVA3HCyZNRZhNW3eZ1XSVuq22pRNGNhauqQI3kaseu3u+NzkPPWYtwug92N1gvtopjjo2r1o8P7Xl+ji5EdlhsgAAAAAACeuzL8SyD4Sm9zITNryufd9+ti8VvUm0ltFAAAAAAAVs7Rv27pfo6Hy0xA3PW8jp3c34S39SfRVFZHbaAAJz7MfLkfeo/45L2vK0Lvv/wBX8f8ApToTGggAABWztHfbul+jYfLTEDc9byOndzfhLf1J9FUVkdtoAAAAAAAAAAAAAAAAAAAAAAAAAAAAAAAAAAAAAAAAAAAAAAAAAAAAAAAAAAAAAAAAAAAAE59nfN/32JVsntqi1q5f1pok92ifpEvbZPutB74dl8W5rHgt6p9XmS/lGOW/JLFVWevRfN6pum+3xmPau8x7dedrk1JV6xaNJabsd5fbZa5acdfp8CL+OuT0tgxmiw206QuqYmJKxi/u6OLwWs7vvjm6d5F15SPuL6R0YbX3W2NtxntusnD0Z89p5fJ64V9ITooAA9Kd6RzxyLyMc1y+ouoU3jWJheGN6Pja9q6o5EVF6FQy7g9o0nRXztK0rm5FaKrTwZqR0aL0xyKq+UQhbqOGHRu5WTXDkrzW188fqQ6RW6AAAAAAdvwWY5/Eyy6exdO5e8lPIXcHXhgu8s6bDJ5P5oWwMk5Cp7xKqWVOfX+Vi6t89lZr8G7cX3JjMs/al2fsWk12eKJ/Yj6eFzRbZQAsX2a/slc/59fIxk7a9WXNe+nxNP3PXLuM+zSDD7G27TUr6tjpmQdUxyMVN9HLrqqL7Uu5L9GNWB7J7MneZfZxbo8GrjrL2icRrquKmrqWptySuRvnD9ySFuvO9WqjkTp3S1Xc1njZrc9z9zjrNqWrfTk4Ynyf4pUY9r2o9io5jkRWuRdUVF5FRSS1OY04JV24/VeaUl98zq7hK/Hq1vW0MDNI4/B0345EYjd9WO0XwtdioQdxNonwOkd08e1vi6Vax7avBaeOfBMa8Wvg8KIiM3IAAAAAC2fBr8NLJ8HL5eQyWDqQ5B3k+OyeOP5YZudZZj+I0C3u4MbJX7joKCFNOulVyo5Y2quu6zVGq9e9yroh7kvFY1lY7L7Pzby/sqcFNdbTyR4fHzf4ud4T8WostbLbrokdNfI1dJGxngxzRaqvvaKqrvMTY5O5t7ulGHN0uCeNku3+787PS+PW2KfPE+Hx8nm5teyyrF7Vk1lntNyj3oZU1jkTx4pE8WRi8zm/n5F2KXb0i0aSwmw32Ta5YyY54Y+mOaVSsvxK64te5rTcW+GzwoJkTwJYlXwZGdC6eouwxt6TWdJdh7O7Qx7vFGSnljmnmaQoTgAAAAAJ67MvxLIPhKb3MhM2vK593362LxW9SbSW0UAAAAAABWztG/bul+jofLTEDc9byOndzfhLf1J9FUVkdtoAAnPsx8uR96j/AI5L2vK0Lvv/ANX8f+lOhMaCAAAFbO0d9u6X6Nh8tMQNz1vI6d3N+Et/Un0VRWR22gAAAAAAAAAAAAAAAAAAAAAAAAAAAAAAAAAAAAAAAAAAAAAAAAAAAAAAAAAAAAAAAAAAAAZVrudZa7jTXGik6qrpJGywv7jmrqmvdTuoexOk6rOfBXLSaWjWto0ldxi6saq86IplnC5VW45OcvEu6aqq6Np0TXmTqGGO3HXl1nuvH/o0/i/mlwRZbCAAAFw+HF8be8Is9ejt+RadsU68/Ww+9SbOlzFUyeK2tYlxftna+w3eSnJ0tY8U8MOL7RdhdW4nS3aNu9Jaqj3xe5DUIjHL/wBxrC1ua6115mc7nbvobi2Of+yv014fRqrgQXTAAAAAAJQ7PNtdVZ46r3V6ugpJZN7mR8itianqo935CRto+01Tvhn6O06PLe0fRwrFXq609ptFbc6j9zRQyTvTnVGNV2idK6aITrTpGrm22wTmyVx147TEedSqqqZqqpmqp3b8873SyvXnc9d5y/lUxMy7jjpFKxWOKI0eQVgFi+zX9krn/Pr5GMnbXqy5r30+Jp+565ZvaI+wLP56H3Lz3c9VY7n/ABn8E+pWcgOorF8Ac8/1O0uxquk1rrazeonOXbJS8m734l2fo6dxSdt8msaS5r3t7K9lk9vSPsX63gt+v06u14jYZBluMVFtXRtYz36gmX2E7EXd1X2rk8F3Qpdy06UaMH2N2lOzzxk+7xWjwfq41Q6mnnpqiWmqI1inge6OaJyaOa9i6Oaqd1FQxkw7HS8WrFqzrE8MPMKwAAAAWz4NfhpZPg5fLyGSwdSHIO8nx2Txx/LCOu038cx/4Op91EWN1yNl7kdXL46+tDFDXVlBWQ1tHK6Cqp3pJDMxdHNc1dUVCLE6N2y4q5KzW0a1njharhdxIpMytGku7DeqRESupk2I7mSaNPaO7nsV2dxVyOLL0o8LkvbvY1tlk4OHFbqz6p8PpZnETAbfmVkdRzaRV8Gr7fWabY5FTkXTlY/TRyeryoh7lxxaFjsfta+yy9KOGk9aOePrjkVOu9puFouVRbbhCsFZSvVk0buZU5FTuoqbUXnQxtomJ0l17b7imbHGSk61txMM8XwAAAAT12ZfiWQfCU3uZCZteVz7vv1sXit6k2ktooAAAAAACtnaN+3dL9HQ+WmIG563kdO7m/CW/qT6KorI7bQABOfZj5cj71H/AByXteVoXff/AKv4/wDSnQmNBAAACtnaO+3dL9Gw+WmIG563kdO7m/CW/qT6KorI7bQAAAAAAAAAAAAAAAAAAAAAAAAAAAAAAAAAAAAAAAAAAAAAAAAAAAAAAAAAAAAAAAAAAAAAF5Yv3bO8n9hl3Bbcaq3HH8TLr+jT/wCXYY7P15da7r/A0/i/mlwZZbAAAAEz9nfNWUtdUYtWSbsVaqz29V5EmRPfI/12oip3uklba/I0jvh2ZN6RuKxw14LeLknyevwJ0vFqpLtaqu2Vjd6mrInwypz6PTTVOlOVCZaNY0aDts9sOSuSvWrOqnGTY/X49fKuz1zdJ6V6t3tNEezlZI3oe3RUMXas1nSXatlu6bnFXLTitHm548jVlKWAAAACyvZ9xWS1YpLdqlm5U3l6SRovKlPGipF/iVznd5UJ+2ppXXncw73b+Mu4jHXq4/5p4/VDUdofNo4KCLFKORFnqVbPct1fFiau9HGvS9yb3eRO6U7nJwdFM7n9mTa87i0cFeCvj5Z8nF/ggEhOhgACxfZr+yVz/n18jGTtr1Zc176fE0/c9cs3tEfYFn89D7l57ueqsdz/AIz+CfUrOQHUWwx++V9ivNJd6B27VUciSM15HJyOY7+65qq1egqraYnWEbd7Wm4xWx36to/TzLiY1kFBkNjpLxQu1p6tiP3V5WOTY9jtOdjkVFMnW0WjWHF97tL7fLbFfjrP6T5UKdoTBPNqtmWUMfvFSrYrm1qeLLyRy956eCvTpzuIm5x/ehvPdDtXpV/trzw14a+Lljycfi8SFiK3gAAAAFs+DX4aWT4OXy8hksHUhyDvJ8dk8cfywjrtN/HMf+DqfdRFjdcjZe5HVy+OvrQiRG9Njj9/ulgu1PdbZL1VXTu1avK1zV8Zj052uTYqFVbTWdYRd3tMe4xzjyRrWf01jwrZ4Jm9ry+xsuNGvVzs0ZW0irq6GXTa3pavK13OnTqhkseSLRq5B2r2Zk2eWaW4Y+7PPH6ccOf4ucMYsttvntAxrL/RsXqHbE6+NNvUvX3CryL0KW82LpRwcbI93u3J2d+hf/htx+Cef61XpoZoJnwzMdFNE5WSRvRWua5q6K1yLtRUUx7q1bRaImJ1iXwFQAAAT12ZfiWQfCU3uZCZteVz7vv1sXit6k2ktooAAAAAACtnaN+3dL9HQ+WmIG563kdO7m/CW/qT6KorI7bQABOfZj5cj71H/HJe15Whd9/+r+P/AEp0JjQQAAArZ2jvt3S/RsPlpiBuet5HTu5vwlv6k+iqKyO20AAAAAAAAAAAAAAAAAAAAAAAAAAAAAAAAAAAAAAAAAAAAAAAAAAAAAAAAAAAAAAAAAAAAAiKq6Jyh4vLGmkbU6EMu4NPGqxxzY5vEu5qqaI5lOrelOoYn+wx2468us91p12NP4v5pcCWWwgAAB6U881PPHUQPdFPC5skUrF0c17V1a5FTkVFQKb0i0TExrErRcKuKdFltAyirXtgyCnb7/D4qTNb/wA2L/ibzd4yOHN0o8LlHb3YVtnfpU4cM8U83gn1S++K/DGDMLc2ppN2G+0bVSmlXY2VnL1Mi9zXxV5l76jNi6UeF52B25Ozv0bcOK3H4PDHr51YLlbLhbK6WhuFO+lq4HbssMibrkX1l5l5zHzExwS6rhz0y0i9Ji1Z5YYp4ugACROFXCmuyqujr7hE+DHoXaySLq1ahWr+7i59PbOTk75fw4ZtwzxNa7e7fptKTSk65p/8fDPqj1Jw4hcQ7NhFnbGxGSXJ8e5brczRERETda56J4sbdPV5E6JeTJFIaJ2R2Pl32XWdehr9q36cqqtzudddLhUXCvmdPWVT1kmldyq5f7E7iJyGOmZmdZdawYKYqRSkaVrxMU8XgABY3s2xuTDri9U0a+4ORq93SGL1ydteq5p30n/2aR/k9ctj2goHScPJHomqQ1UD3dCKqs/tcVbnqo3dG2m9iOetlYTHuqAErcBs9SzXpcfr5N223R6ebucvgx1WmjfUkTRq9O70knb5NJ0nlaj3r7J9ti9tSPt4+Pw1/Vx+dYa72mhu9rqrZXR9bSVcbopmdDk5UXmVOVF5lJto1jSXONvuL4ckZKTpas6wp9mWK1+LZBU2esRVWJd6CbTRJYXL4Eje+nL3F1TmMZek1nR2bs3f03WGMteXjjmnlhpChPAAAC23B+GSLhtY2yJuuWF70Rfavle5q+qimSw9SHHu8VonfZNOf1QjrtNxO67HpdPBVtW3XpRYl/2ljdcjZe5FuDLH7v8AqQcRG+AHQYTmd1xK+R3OhXfZ4lXSqujJotdrHcui+1XmUrx3ms6wx3afZuPeYpx38k80ra47kNsyGz092tsnWUtQ3VEXxmOTxmPTmc1dimSraLRrDj+82eTb5Zx5I0tH6awjHjVwoddo5MksUG9dIm619JGm2oY1P3jETlkanN7JOnlj58OvDDae7Pb/ALGYwZp/256s/s+CfB6PFxV4ITo4HoAAnrsy/Esg+EpvcyEza8rn3ffrYvFb1JtJbRQAAAAAAFbO0b9u6X6Oh8tMQNz1vI6d3N+Et/Un0VRWR22gACc+zHy5H3qP+OS9rytC77/9X8f+lOhMaCAAAFbO0d9u6X6Nh8tMQNz1vI6d3N+Et/Un0VRWR22gAAAAAAAAAAAAAAAAAAAAAAAAAAAAAAAAAAAAAAAAAAAAAAAAAAAAAAAAAAAAAAAAAAAz7DbGXW90NtfOlMysnjgdUOTVI0kcjd5UVW66a909rGs6I+7zzixWyRHS6MTOnPomzH+COHWm6wV11yWGujpntkZS+9U7XOYuqb6rLIqt6E0JdcFYnhlo277z7nNjmmPDNZtwa8NvNwQllcoxpF0W7USL3POIv2iT0452n/2Of9i/4ZcLxCwDC82q4q9l8gobnGxInTxyRTMexFVUR8e+zamuxUd39dhZyY634dWf7I7W3WxrNJxzakzrppMaT4J0QXxAw+DFL4y2QXFlzY+Bk/nDGoxEV7nN3NEfJybmvLzkTJTozo37sjtGd3inJNOh9rTTzeCHMltlAAAA9aapqaWojqKaV8FRE5HxTRuVj2uTkVrk0VFESovSt4mto1ieSU04R2iJYWR0WWQOmamjW3OnRN/uayxbEXpcz/CS8e5/aaP2n3PiZm23nT/LPqn6/OkOsh4YcRqRrXzUtxka33p8b+rq4kXo8GVqa8zk0L89C7XMdt/2bbitSPFrWfV63C3TszwOlc61Xx0cXsYqqFHuTvyRuYn+4WZ2vNLPYO+06f7mPh/yz6p19LEg7MtwV3/kX6Jje7HTuev53sPI2s86/fvtTkxT+L9Ut/R8JuFWINZW5HXsqpWbWpXyMjiVzdq7lO3RX/orvFcYaV42Oydv9obz7OCvRj/LEzP4uTx8DXZj2hLfS062/D6ZHua3cZXzM3IY0RNE6qHYrtE5N7RE7ilN9zHFVJ7O7oXtPT3M/wAMcc+Ofq18cIPuVzuFzrpq64VD6qsndvSzSLvOVfWTkROYiTMzwy3zDgpipFKRFaxyQxTxdAAEnYPwgtWRY/S3qsyKOgSd8iSUixsV7UjkVnjulbtcjdfFJGPDFo11ar2p3iybbNbFXFN9NOHWeWNeLo+tOWMphOL2Sns9vudKymp0VVfLURK973LvOe9dU2qv/psJdOjWNIloe9/ut1lnLelulPNWdPFD0yCfDMjslXZ626Ur6WsZuPWOoi3mqio5r2rqqatciKgt0bRpqp2ld1tstctKW6Vf8soTybgnaLTY7hdqXKIatKOJ00dN1TN5+nI3fbMu3p3SLbBERrq3nZd5smbLXHbDNelOmus//H1onIzb36iqi6psVORQ8WB4YccrdPRQ2nKqjzauiRI4blJ+7mamxOtd7B/dcuxe7qTcW4jis53253XvW05NvHSrPHXljxc8eDjdrmeGYtn1oja6pjWaNFdQ3OmcyRWb3NsXR7F526/kLt6ReGD7N7S3HZ+SeCdJ61Z1j/CUQV/Zyy2GR3mdwoamJNdHPdJE5f1dx6f7xGnbWbli75baY+1W9Z8k+uPQicjNvAJosXArGZIKKuueURup54o5pKWNscLvDajt3rHSP5NdPFJVdvHHMtH3XenPE2pjwzrEzGvDP0aR6Uz0t7xGgo4KOnuVFBTU0bYoIkqIkRrGIjWtTV3MiEuLVjlaTk2u5yWm1qXm1p1n7MtDndnwzNbM23VV4poZIpOtpamKaJzmP0Vu1qu8Jqou1CjJWt401ZDsrcbrY5enXHaYmNJiYnhhCPEDhXQ4pZYrlT3+K6OknbB1DI2sVEc1zt7VJZOTd7hEyYYrGureuyO3r7vLOO2Kceldddf/AKwjwsNkAJR4B5hNasp/0aeVG226tdqj3aMZPG1XMemuxN5Gqxe7s7hI299J052qd7Ozozbf2sR9vH9MTyevzrDyZBYY/wB5cqVn6U8af2uJvSjnc3jaZp4qW80o6zHhvwyyiqkrqa7U1tuUqqsk1NNC6ORy+ykiVyIq9LVTXnLN8VLcOrZezu2t/taxS1LXpHJMTrHin69UPcRuH9JiElAynu8d2StbI5XRsRm51atRNdJJdd7e/MRcuPo8urc+xu1rbyLdLHOPo6cuuuuvghxpaZsAnrsy/Esg+EpvcyEza8rn3ffrYvFb1JtJbRQAAAAAAFbO0b9u6X6Oh8tMQNz1vI6d3N+Et/Un0VRWR22gACc+zH42R96j/jkva8rQu+//AFfx/wClOhMaCAAAFbO0d9u6X6Oh8tMQNz1vI6d3N+Et/Un0VRWR22gAAAAAAAAAAAAAAAAAAAAAAAAAAAAAAAAAAAAAAAAAAAAAAAAAAAAAAAAAAAAAAAAAAAAAAAAAAAAAAAB+oqtVFRdFTaipy6h42lNlmU0rUZTXmuhYnI2Oplan5EcVReedEv2ft7dbHSf4Y+p9z5ll1Q1Wz3uvlavK19VMqfkVw6dud5Ts3bV4sdI/hj6mpkkkker5HK97trnOVVVV6VUpTIiIjSHyHoAAAAAAAAAAAAH0172LvMcrV7qLooeTES+3VdU7xpnr33L641UxjrzQ8grAAAAAAAAAAAAAAAJ67MvxLIPhKb3MhM2vK593362LxW9SbSW0UAAAAAABWztHJpndL026Hy0xA3PW8jp3c34S39SfRVFZHbaAAJq7M1WxtzvtIq+HNBBK1OiJ72r5VCXtZ4ZaP32xzOPHbmm0efT6k+kxzwAAAKxdoKsbPxDkiauq0tJBC7vrvS/xDH7mftOp90cfR2UT+1a0+r1I1LDaAAAAAAAAAAAAAAAAAAAAAAAAAAAAAAAAAAAAAAAAAAAAAAAAAAAAAAAAAAAAAAAAAAAAAAAAAAAAAAAAAAAAAAAAAAAAAAAAAAAAAAAAAAAAAAAAAAAAAAJ67MvxLIPhKb3MhM2vK593362LxW9SbSW0UAAAAAABXntK0SsyS01vNPRuh/7Mqu/jELdRww6P3Ky64L05r6+eP1IeIrdAAB2/BzI47FntDLO5GUtbrRVDl5ESbTcXoRJEbr0F3BbSzBd49lO42dojrV+1Hk4/o1WwMk5CAAPieeGngknnekcMLVfLI5dGta1NXKq9xECqlJtMRHDMqZ5hfnX/ACe5XhdUbWTufE1eVIk8GNq9KMREMVe3SmZds7O2n9vgpi/Zr9PL9LTlKaAAAAAAAAAAAAAAAAAAAAAAAAAAAAAAAAAAAAAAAAAAAAAAAAAAAAAAAAAAAAAAAAAMq2Wy4XSuioLfTvqqybVIoI01c7darl0ToaiqexEzwQs589MVJveejWOWXjUU89NUS087Finhe6OWNyaOa9q6Oaqd1FQ8mFyl4tEWidYlk11lu1BSUdZWUskFLcGrJRTPbo2VrdNVYvP4yHs1mFrFuceS1q1tE2p1o5mEeL4Bl2u1XK61rKG2076qsl1WOCJN5y7qK5dE6EQ9iJnghZz7imKk3vMVrHLL5uFurrdWy0VfA+mq4F3ZYJEVrmqqa7UXoXUTExxvcOamSsXpPSrPLD1qLHd6a2U10npJI7dVuVlNVObpHI5uuqNX1FE1nTVRTdY7ZJxxaJvXjjlhgniQAZNut1dcq2KhoIH1NXOu7FBGmrnKia7E7yHsRM8S1mzUxVm956NY5XxV0lTR1UtLVRuhqYHrHNE9NHNe1dFaqd1FExoqx5K3rFqzrWeJ4nisAz7hYrxbqWjq66jlp6WvZ1lFM9ujZWaIurF59jkPZrMI+HdYslrVpaJtTgtHM8rbbLhc62Kht9O+qrJlVIoI03nO3UVy6J0IiqIiZ4IV5s9MVJveYrWOWXlU009LUy01QxYqiB7o5o3bHNexd1zV6UVDyYVUvF6xas6xPDDyCsA6Sm4cZ3VU8VTT2OrkgmYkkUjY10c1yatVO+hcjFbmYy/bO0raa2yViY8LCvWJZLY4o5bvbZ6KKZysifM3dRzkTVUT1Cm1Jjjhf23aGDPMxjvFpjmagpTADMtNnul3rEorZSyVdU5FckMSbztG7VXToPYrM8SxuNzjw16WSYrXnluKjhvntPC6aWw1qRsTVypE52id5uqlc4rcyHTtnZ2nSMtNfG5stskB6AZ9msN5vdX5paaOWtqNN5WRNV26ndcvI1OlSqtZniRtzu8WCvSyWiseFm3/AAnK8fjZLeLZNSQvXdbM5EdHve132K5uvRqe2x2rxws7TtPb7idMV4tPNy+ZoyhPAP1EVVRE2quxEDxm3eyXaz1SUt0pJKOpcxJGxSt3XKx2qI7TubFPbVmONY2+5x5q9LHaLV4uBgniQAbu04Tlt4o0rLXaqirpVcrEmiYqt3m8qa9BXGO08UIG47T22G3RyXrW3NLN9F/EL5grP+2p77K3MsfPNn72nncy9jmPcx6K1zVVHNXlRU5ULbKxOvC+Q9AJMwrhxX0nnlzyLHK6vdBEiW20NiejaiV+zeklTYxjOfn/ACaLIpimOGYat2n2zS/Rx4MtKaz9q+sfZiOaOWZcXkmP3601SSXa2PtfnjnyQQuYrGaIu1rNVVdG7yc5ZtWY44ZzZbvDmrpjv7To6az9bTlKaAT12ZfiWQfCU3uZCZteVz7vv1sXit6k2ktooAAAAAACIe0jaHT41bboxquWhqVikVE8WOdvKvRvxtT1SNuq8ES3LuZuOjnvjn71dfLH6plXYgukgAAHixXCnjRbbhQwWbJKltLdYUSKGtlXSOoaiaN3nrsbJ3dfG766E7DniY0njc27e7tXx3nLgjpY54ZrHHXyc3oS41zXNRzVRzV2oqbUVCS0+Y0edXWUlHTvqKueOnp401kmlcjGNROdXOVEQ8mdFWPHa89GsTMzyQgPjDxjpbtSy47jkqvonru19emrUlRF/dRc+4q+M72XJycsPNn14IdB7u93LYbRnzx9r7tebwz4eaOTxoZIrdwAB+oiqqIiaquxEQPG3y2xf6DkNXaN7fWk3GucvO5Y2ud+dxVeuk6IfZ+6/uMNcn7WvplpylNAAAAAAAAAAAAAAAAAAAAAAAAAAAAAAAAAAAAAAAAAAAAAAAAAAAAAAAAAAAAB3PBL8T7L36n/ACspewdeGB7z/AZP4f5quezL7YX36QqvLvLd+tLI9m/DY/3K/wAsO34p/YHh3/Iz+4py9m6tWC7C+M3f78f60YEdtQB3/Ar8TLZ+hU/5d5e2/Xhrven4G/jr/NDpOK9spspsP9Z21ief2qeS23+FvL7zIrGSqnqp+q5PalzNHSjpRycbGdgZ7bXN/a36mSIvjnxxrMfpyx4WvzD8DcP/AJqb3UxTf/jhJ7O//rZ/3Y/0osI7bADs+Dn4lWP4WTyEhdwdeGE7x/A5PFH80NbxD+3eQfz9R5RSnJ1pSex/hMX7lfQ54oZIAliF39UcCpof3lwxSpR7U5XLTu12/ooyR3+Ak9bH4moWj+17Wifubiv/AJf4xH4nhwYjhtFFkea1TU6uz0iw0m9yOqJuREX22xrf1zzBwa25lzvJac1sW1rx5Laz+7H6TPkRjNNLNM+aVyvlkcr5HrtVXOXVVXvqR201rFYiI4ofAVAE8Z7S5/PjmHLiq3FI221nnX+nySsTe6uLc3+rVvTpqTMkW0jo8zn/AGTk2dc+4/uPZ6+0nTpRHPbi1RVlkGfwR0zMqdcerernUra+SV7dU0RysSRXbdqaka/S+9q23YW2dpmdv7PXl6MR9OjnChkwCSez/wDiJD/Kz/2IX9t1msd7fgp/eq2uON4ypncCtW7+Yefe/JVrP5r5t1vh69cvV6dXrppt9rtKq+06XKibyezP7Sf+Lp9Dg6PR6XS04OLh4/1uR4uLbF4i3pbbueb9a3f6vTc67q29dppz9Zvb3TqW82nSnRmO73tP7LH0+PTl5tZ0+jTyOPLTNAEw8LfOq7hnkNmxupbTZbLUNlYiSJDM+nRI9jH7OZJG9Crza6krFw0mI6zS+3ejj32LLnjpbeK6cWsRbh4483m5dHI3TJ+IdltVdit86/zet0WSK4NdK9qNXlhfIq+Cqoi6t1TXaham9ojoyzODY7LPkruMWmtf2ODzxDjC0zYB6Qfv4/0k/tCm3FKTe0R9uab6Oh8pKSNz1vI1buf8JP8AUn0VRcR21gG2t2WZRbKXzW3Xaso6bVXJDBPJGzedyrutVE1Uqi8xxSh5uz9vlt0r0pa3PNYlKHHbKsmtWY01PbLrV0VO6ghkdFTzSRsV6ySort1qomq6ISNxeYtwS1XursMGXbTbJStp6c8cRPJCGnOc5yucquc5dXKu1VVSK3WI0fgegeJ84wUfEubJKR+MLdEt6UESSeYyTMi67rJN7VI3Im9u7v5iZmi+vBq593dybGuC0bj2fT6c9aI100jn8qIMrizSGogiyl1cs6MV1M2vfI9yMVdHKzrFdoiqm3QjX6XK3LYW2sxM7foacvRiI8+jRFDIAE9dmX4lkHwlN7mQmbXlc+779bF4repNpLaKAAAAAAA02Z4+zIcXuVndpvVcLmwudyNlb4UTl7z2opRevSiYTuzd3O23FMv7M8Pi5foU1ngmgmkgmYsc0TlZLG5NHNc1dHIqd1FMW7XW0WiJjhiXmFQAAAZ9DkF+oGdXQ3KqpGe0gnkjT8jXIexaY4pR8u0w5J1vStvHES8q66XOvej66rmq3pyOnkfIv5XKomZnjVYsGPHwUrFfFGjFPF4AAAO04Q4w7IM5oInt3qShclbVrzbkKorWrr7aTdavQXcNOlZg+8O+/t9paY61vsx5fqjV5cXPxHvvw6eTaM3XlX3e+Bx/u+uXIFpmQAAAAAAAAAAAAAAAAAAAAAAAAAAAAAAAAAAAAAAAAAAAAAAAAAAAAAAAAAAAAdfwkuNLbuI1kqap6Rw9a+FXryI6eJ8Ldf1noXcM6Whhu8GG2TZZK149NfNMT6nxxBxq90ed3Skko5nS1lZNNRIxjndcyaRXsWPRF3tjubn2HmSsxaXvZG9xX2lLRaNK0iLcPFpGk68zpeMjPMLDhNgqFRtyttvc6thRUVY1lbE1EVU2eNE4uZ+CKwxndyfaZtxmr1L5Pszz6dL64RcR21gHf8CvxMtn6FT/AJd5e2/Xhrven4G/jr/NDPwrLaazcRL1bLpuvsF8qqijuEcniIr5XtY93Qm8rXf3VXuFWO+lpieKUftPs+2fZY8mP/mxVravPxRrHrjww33GHH1x7hrYbNv9YyjuE7YpF5Vicsz41XTn3HJr0leavRpEMf3d3f8Ac77Ll4ulSvn+zr9KEyI3oA7Pg5+JVj+Fk8g8u4OvDCd4/gcnij+aGt4h/bvIP5+o8opTk60pPY/wmL9yvoc8UMkASTwLutPHk9VYK3wqDIaWSklYvIr2tVzdde6zfb31L+3nh052sd6cEzgrmr18Not+nl0nyNhn1G/DeGdqxByolxuVVNW3JWL4zYnaM17/AIGn6JVkjo0iqN2Tkje76+5+5SsVr5eP1+dExGbgAAJs4l12XU2PYWlgqLhCx1satQlA+ZiKqRxbu/1Sp06akvLNtK6czRexMW2tm3HtopP+5wdLo89uLVFd9qsvqWQvv81wnYxVSB1e6Z6IrvGRiy66a6bdCNabcrbdrTbVmYwxSOfo9H6dGnKU0Akns/8A4iQ/ys/9iF/bdZrHe34Kf3qt3gPES7VmbV2OZDcJqq1XdZ6GLrHqixSOc5I9xyaK3eTVmznVO4V48kzbSeKUHtbsfHTa1z4axXJj6NuLjjl19PnRhlOPVePZBXWeqRespJFa1/t412xvT9JiopHvXozo2nYbyu5w1y14rR5p5Y8ktUUpgB0luwzKHY0uXW1N6kpZurV1M9VqInN2rIrWbWo3Zt11268m0uRSdOlDF5u0tvGf+2v1rRyx9mfBw8f6cqSMfud4yjhRkj8wb5xR26HrLPc6hqJIs7WO0Rr9EVyo9GN15V3laqqX6zNqT0ms7vBi2vaOGNtwWvP26xxacHJycGvi01QmRG9AHpB+/j/ST+0KbcUpN7RH25pvo6HykpI3PW8jVu5/wk/1J9FUXEdtYAAlHtE/bml+jYfKykjc9byNU7n/AAlv6k+iqLiO2sAB4m7jbcM3p8po2WKpucNGtvhV7aF9Q2PrOtl1VUiVG72mhLzzbpcGrRe7GHaW29pzRjm3tJ60V100rzolvtRk9RLFLf5K2aVGq2F9e6Vzt1F1VGrLqumq8xGtM8rcNrTBWJjDFIjl6OnqaspSwCeuzL8SyD4Sm9zITNryufd9+ti8VvUm0ltFAAAAAAAAK7cfsBkt12/qihjVaC4ORK5GpsiqdPGXT2Mun+LXuoQdxj0nWHSe6fa0ZMf9veft06vhr+r0eJEJGbkAAAAAAAAAP1EVV0Taq8iB4tNwZwN+LY111bHuXe57s1W1eWNiJ71EvS1FVXdKqnMZHBj6MeFyfvJ2rG7z6Vn/AG6cEeHnn6vAgfi5+I99+HTybSHm68ugd3vgcf7vrlyBaZkAAAAAAAAAAAAAAAAAAAAAAAAAAAAAAAAAAAAAAAAAAAAAAAAAAAAAAAAAAAAADtaDjJxGoaFtFDd3OiY3djfLHFLI1ETTx3tc5fVVS7Ge0RxsHl7ubLJfpTj4fBMxHmiXJ3C411yrZq6vnfU1c7t6aeRVc5y8m1V7ibELczM8Msvhw0xVilIitY4ohjHi6AZ9kvl1sdyiuVqnWmrYUckcyNa7RHtVrtj0c3ai9w9raYnWEfdbXHnpOPJHSrPIxKmomqaiWoncr5pnuklevK5z11cuzuqp5MrtKRWsVjihuL3muUXy301vu1wfV0lGqLTxvaxFaqN3EVXNajnLu+2VSu2SZjSUPbdmbfBeb469G1uPjaMoTwDMtN2uNouMFyt0y09bTKroZkRrlaqorV2ORU5F50PYmYnWFjcbemak0vGtbccPOvrqu4Vs9dWSLNVVMjpZ5VREVz3rq5dERE2qJnXhV4sVcdIpWNK1jSGOeLgB70NdV0FbBW0cqw1VM9ssErdNWvYurV29J7E6LeXFXJWaWjWto0lm5Dk19yKtbXXmrdWVTI0iZI5rW6MaqqjUaxGt5XLzHtrzbjWNnssW2p0MVejXXX9NWrKUsAAdhR8XeItHSQ0lNeXx09OxsULOqgdusYm61NXRquxE5y7Ga0crC5O72yvabWx8MzrPDb62vyLPsuyOljpL1cXVdPDJ1scaxxMRH6K3e97YxeRylNslrcaRs+ydttrTbFTozMacc+uXPlDJAGxsWQXiw3BtwtFStLWNa5iSo1rvBcmipo9HN/MVVtMTrCNutpi3FOhkjpV/TmYiVdSlX54kjkqkk65Jk2OSTe3t5NOfXaear3s69Ho6fZ0008DNyDJb3kNa2uvFStXVMjSJsqtYxdxqqqJoxrU9kp7a0240fabLFtqdDFHRrrry+trClLAN3jOaZNjM0kllrn0vW6dbFo18b9ORXMejm69OmpXS814kDe9m4N1ERlr0tPP54ZOTcRMxyWFtPd7i6alau8lOxrIo95ORVbGjd7Tm1Pb5bW41vZdj7baz0sVNLc/HP0ubLbJgH6iq1UVNiptRQ8lsb/kd6yCtbXXiqdV1TI2wtlc1rVRjVVUboxGpyuUqtabcaNtNni29Ohir0a66+XytaUpQAA2d/wAkveQVra28VS1dUyNsLZXNa1UjaqqjdGI1OVylVrTbjRdpssW3r0MVejXXXy+VrClKAAHat4zcTGtRqXt+iJonvNOvJ34y77e/Owc929jP/X9NvraXJM1yfJUp0vdc6sSl3uoRWRs3d/Te/dtZy7qcpTa82403ZdmYNrr7KvR6XHx+uWkKE8Anrsy/Esg+EpvcyEza8rn3ffrYvFb1JtJbRQAAAAAAADGudtobnQT2+vhbPR1LFjmidyOav9i9xU5DyY1jSV3BmvivF6TpavEqzxL4XXXD6500aPqrFM7/AMWt01VuvJHNp4r07vI7m50TH5cU1nwOsdi9u495TSfs5Y46+uPB6PpcOWWeAAAAAAAAJ14NcH5YpYMmyODcczSS22+RPCR3K2aVq8mnKxvqrzEzBh5ZaD3k7xRMTgwT4LW9UeufInIltCVH4ufiPffh08m0xubry7F3e+Bx/u+uXIFpmQAAAAAAAAAAAAAAAAAAAAAAAAAAAAAAAAAAAAAAAAAAAAAAAAAAAAAAAAAAAAZdpuL7bcIa1kEFS6FVVIKqNJYXaorfDY7YvKexOkrO4wxlpNJma68tZ0nzun9JtZ8wWL6ui9cue18EeZivklfe5vzJPSbWfMFi+rovXHtfBHmPklfe5vzJPSbWfMFi+rovXHtfBHmPklfe5vzJPSbWfMFi+rovXHtfBHmPklfe5vzJfi8Ta3T/APg2JP8A66Ie18EeY+SV97m/Ml+ekuu+YrH9XQj2vgjzPfklPeZvzJPSXXfMVj+roR7XwR5j5JT3mb8yT0l13zFY/q6Ee18EeY+SU95m/Mk9Jdd8xWP6uhHtfBHmPklPeZvzJPSXXfMVj+roR7XwR5j5JT3mb8yT0l13zFY/q6Ee18EeY+SU95m/Mk9Jdd8xWP6uhHtfBHmPklPeZvzJPSXXfMVj+roR7XwR5j5JT3mb8yT0l13zFY/q6Ee18EeY+SU95m/Mk9Jdd8xWP6uhHtfBHmPklPeZvzJPSXXfMVj+roR7XwR5j5JT3mb8yT0l13zFY/q6Ee18EeY+SU95m/Mk9Jdd8xWP6uhHtfBHmPklPeZvzJPSXXfMVj+roR7XwR5j5JT3mb8yT0l13zFY/q6Ee18EeY+SU95m/Mk9Jdd8xWP6uhHtfBHmPklPeZvzJPSXXfMVj+roR7XwR5j5JT3mb8yT0l13zFY/q6Ee18EeY+SU95m/Mk9Jdd8xWP6uhHtfBHmPklPeZvzJPSXXfMVj+roR7XwR5j5JT3mb8yT0l13zFY/q6Ee18EeY+SU95m/Mk9Jdd8xWP6uhHtfBHmPklPeZvzJPSXXfMVj+roR7XwR5j5JT3mb8yT0l13zFY/q6Ee18EeY+SU95m/Mk9Jdd8xWP6uhHtfBHmPklPeZvzJfqcTK9OSx2NP8A66Ee1nmjzHySnvM35knpOuPzJZPq6Ee1nmjzPPkdPeZvzJPSdcfmSyfV0I9rPNHmPkdPeZvzJPSdcfmSyfV0I9rPNHmPkdPeZvzJPSdcfmSyfV0I9rPNHmPkdPeZvzJPSdcfmSyfV0I9rPNHmPkdPeZvzJPSdcfmSyfV0I9rPNHmPkdPeZvzJPSdcfmSyfV0I9rPNHmPkdPeZvzJPSdcfmSyfV0I9rPNHmPkdPeZvzJPSdcfmSyfV0I9rPNHmPkdPeZvzJPSdcfmSyfV0I9rPNHmPkdPeZvzJavIMtqr3TxQzUFvo2xPV6PoqWOneqqmmjnN2qnQU2vql7Ts+uCZmLXtr+1abNEUMgAT12ZfiWQfCU3uZCZteVz7vv1sXit6k2ktooAAAAAAAAA8qqkpaumkpaqJk9NM1WSwyNRzHNXlRzV2Kh5Maq8eS1LRas6WjlhC+bdneGZ8lZic6QOXVy2yocu53opdqp3n699CLk237Ld+zO+ExEV3Ea/5o9cfV5kN37E8ksEqx3i3T0e3RJHt1jcv92RurHeopFtSY4267XtDBuI1xXi3p83G1JSmAAAB1WMcMc0yNzHUFufHSu0/82pRYYURedHOTV/6iKXKYrW4mJ33be123XvE2/Zjhn9Xl0TrgHBKwY0+OvuDkul3Zo5kj26QxOTnjjXXVye2d6iITMeCK8M8MtA7W7z5tzE0p/t4/pnxz6o+lJBfayAVH4ufiPffh08m0xubry7F3e+Bx/u+uXIFpmQAAAAAAAAAAAAAAAAAAAAAAAAAAAAAAAAAAAAAAAAAAAAAAAAAAAAAAAAAAAAdBgONU+TZbQWSomfTw1ay78saIrk6uF8uzXZt3NCvHXpW0Y3tbeztdtbLWNZrp9MxHra2+25lsvlwtzHrIyiqZqdsiporkikViKqJ3dCm0aTolbXNOXFS88HSrE+eNW/y3C6Wx4xjN3iqXzS32CSaaJ6IjY1YkaojdNv/ADOcrvTSInnY/s/tK2fPmxTERGKYiPDx/U5ItswAdNw6xSmyrKqezVM76eGZkr3SxoiuTq2K5NN7ZzFzFTpW0Yvtjf22m3nLWNZjTj8MvriHhM+IZA63rItRRSsbNQ1aoidZE7vbNWu1Rfy84yY+jOjzsftON5h6emlo4LRzSyMhwikteC2DI46mSSe7ueksDkRGM3ddN1U2+x5z22PSsTzrWz7Ttl3eXBMREY9OFx5aZoA6DAcbp8ly2gslRM+nhq1k35Y0RXJ1cT5NmuzbuaFeOvStox3a29na7a2WsazXT6ZiPW1t8t7LberhbmPWRlHUzU7ZFTRXJFIrEVU6dCm0aTok7XNOXFW88HSrE+eNWCeJAB2WY4LSWfGcfyC3VMlVRXiLWdZEanVTo1HdXq39ZP1S7fHpETHKwnZ3als2fLhvEVtjng8Mc/o87y4bYRFll4qKerqHUduoqZ9TV1TERVajdEam3Zt117yKMWPpSr7a7TnaYomsdK9rRWIcrMkSSvSJVWLeXq1dscrddmunPoWmWrrpw8b4CoAlq/cNeGGOz09JfMlrKasqKdlS2NtMsibj1VuurGPTxmLs1JNsVK8ctP2vbW/3MTbFhpasWmOtp6ZcRmFuwqidS/0xdp7o16P86WeF0PVqmm5pvNZrrtLN4rHFOrO9nZt1fpf3FIx82k668/O5woZMA7Phhg9Bl10raWuq5KSCjpXVKyRNRzl3XNbpouvM4u4scWnhYTtztS+zx1tSsWm1tOFvaDh3w0v9QltxzLJX3eRrlpoaumexkitTXd3lbH3ObVehSuMdJ4InhY/L2xvtvXp58Eezjjmto1j6ZRxcrfVW241Nvq27lVSSvgnbyoj43K12i8+1CxMaTo2bBmrlpF69W0ax5WMeLoB32McPrE7Fm5Zltzkt1nnlWChhpmI+eZ7VVFVNUciJqx3sebXZz3qY406Vp4Gvb7tfN/cf2+2pF8kRraZ4o/TWHjluG4lT4/FkOL3zz6idL1E1FV7sdUx/dRujFciapr4PTqovSumsSr7P7S3Ns04dxj6NtNYtXhr6/S4css8AbDHbZHdcgtlskescdfVwUz5G7Vak0jWK5NedN4qrGsxCNvM84sN8kcM0rM+aNWbnGPQ47lVwssEzp4qN7WsleiI5Ucxr9qJs9ke5K9G2ix2XvJ3O3plmNJt9ejRFDIAEjYph3C+8w22mnyWphvlduRvomU71a2d66biPVit5efeL9KUnTh4Wtb/tHf4ZvaMNZxV1+10uSOXTVkZVgvC+xLcaF+TVS3qijduUbqdyo6bc32MV7WbujtU27x7fHSOXhW9h2rv9x0Lxhr7K08fS5NeGdNUYkdtIBv8ABrNZb3klLarvVyUVPWKsUNRGjV0mX92129zOXwe/oV46xM6Sx3am5y4MFsmOsWmvDMTzcrxyvGK/HMiq7JUor5aeTdieifvY3bY3tT+81U9XYeXpNZ0XNhvqbnDXLXimPNPLHkbrOsGocTtloiqKx8mRVsXnFbQojergjXXRFVNu9vbPUXoK8mPoxHOg9ldqX3eS81rphrOlbctp/T0w4wtM2AT12ZfiWQfCU3uZCZteVz7vv1sXit6k2ktooAAAAAAAAAAAPmSOORiskaj2OTRzXIioqdKKHsTMTrDm7lw0wK5K5aqx0quftc+JnUPVV51dFuOLc4qzyMng7b3mLq5LeWdfTq00nArhm7xbY9n6NTUf8T1Kf7enMmx3p30ffj8NfqfcXA3hlGqKtpdIqe3qKjT8iSIP7enM8t3o38/f/wDGv1OitWE4jaXNdbrPSU8jeSVsTVk/xqiu/OVxjrHFDG5+09zm6+S0x4+DzcTdFaCAAAFR+Ln4j334dPJtMbm68uxd3vgcf7vrlyBaZkAAAAAAAAAAAAAAAAAAAAAAAAAAAAAAAAAAAAAAAAAAAAAAAAAAAAAAAAAAAAHc8EvxPsvfqf8AKyl7B14YHvN8Bk/h/mq0Ga/bK/fSNX5d5Rk60sh2Z8Ni/p1/lh23FD8POHn8nN7mAu5erVg+w/jd1+/H+pF5HbUASFwG/Emh+BqPIuL+367W+9fwNvHX0una1vEHELrjztH5LjE801qVdN+al31Tq0512eB/gK+vWY5YYuZ+Xbmmb/oz1iL+C2nH6/xNVnf4NYV+nL/xFOT/AI6pfZX/APT3Hij1IrI7bQDuOCf4n2Xv1H+VlL2DrwwPeb4DJ/D/ADVc/mX2vvn0hVeXcW79aWR7N+Gx/uV/lhpylNAJWxRy5Nwbv1gXw62wSJcaJNNqRLq9yNRNqrslT9ZCTT7WOY5mo7+P7XtPFm+7mjoW8fF/8fM+LLrjPBS53PxK/KahKKmXn83Zq1/5USVPVQ8r9nHM86rc/wDtdqUx/cwV6U/vfp0fpRYR22AACe+K9o4fVl7t0uR3+e11yW2BsdPFTSTNWJHyKj95rXJqrlcmnQTM1azMazyOfdgbjeUxXjBijJT2k8M2iOHSODj8SIstt+I0VTA3G7rLdYHsVaiSWF0CsfrsREcjddUI14rHFOrcez825vWfb0jHPJpOrQlDIAEr9nlrHX+9NkduMdbXo9/LuosjNV06CTtuOfE1HvfMxhx6e8j0S2mFYXgdnfU5hRX+bIY8db5zLSUtP1L0crXbrnI92qomirzJs5dilVKVj7WuuiJ2n2lu80RtrYowzm4NbW19EfpqiXIbxLer7X3aViRvrp5J1jRdUaj3KqN12a7qbNSNa2s6tw2e2jBhrjjh6NYhrilJAJIxbNcSuGIQ4XmUU8NDTTOmt91pdroXOVzvDbo5V0V7k2NdsXk2al+l6zXo2axvuzNzj3M7razE3tGlq25eLi80c3j5GuzPhlPZLXHfrTcIb3jkztxldBsdGqroiStRXIm3wddeXYqIU3xaRrHDCV2b23GfJOHJWcWaPuzy+L9OLncQWmdAN7gf24x76To/8wwrx9aPGx/avwmX+nf+WW24x/iVfPhY/IsKs/XlE7ufA4/FP80uMLTNgHR8Oft7j/8AP0/lEK8XWhjO2fg8v7lvQzuMH4k3z4ZnkmFWbryj93fgcfin0y44tM2AfqKqKiouiptRUDxYDHLnjeV2G351f0VbrhzHtuDUai+cLGzegcvTveE3+/rzE2sxaOlPHVzzeYM+0zX2mH/j3OnR/wAuvW+jgnwaIRyXIK7Ib5WXiuXWoq3q/dTkY1NjGN6GtREQiWtNp1bzstpTb4q4qcVY/wAZ8rWFKWAT12ZfiWQfCU3uZCZteVz7vv1sXit6k2ktooAAAAAAAAAAAAAAAAAAAAABUfi5+I99+HTybTG5uvLsXd74HH+765cgWmZAAAAAAAAAAAAAAAAAAAAAAAAAAAAAAAAAAAAAAAAAAAAAAAAAAAAAAAAAAAABuMPyGTHcmt16YzrPM5UfJGnK6NyKyRqa86scqIVUt0Z1Qu0dnG5wXxTwdKPp5Ppd/f8AC8JyO9z362ZhbqGguMjqmopq1yR1ML5F3pEbG5zVd4SqqJs7m3lL9qVtOsS17adpbrbYow5MGS96RpE14azpxcPJ9LR8U8qst1mtNlsTnS2bHqbzWmqXposrlRqPftRNmkbebaupRmvE6RHFCf2FsMuKL5c3BlzW6UxzcekfTLhCyz4B3HBm6221Z9R1lyqY6SlZFO108zkYxFdE5E1Ve6pewTEW4WB7yYL5dnatIm1ta8EeNrLPllRj2cuv1C7rGR1UrnsRdGywSPXfZ+s1dncXRSmt+jbWErc9nxuNp7G/BrWPJMR9aQONuRYlc8Zs0FgrYJ2pUy1L6eJyK6NJkV67zOVnhP5FL2e1ZiNGu92dnucWfJOasx9mI1nl04PLwQhoit2AOv4SXKgtvEK0VtwqGUtJEs/WzyuRrG71PI1uqryauciF3DMRaNWG7wYb5dlelIm1p04I/ehpMqqIKnJ7xU070lgmramSKRu1rmPlcrXJ0KilF54ZTthSa4MdZjSYpWPoaspSwDuOD2UUtgzOF1fK2K118UlJXPkXRjWvTea53N47UTVeZVLuG+luFge8WxtuNrPQjXJSYtX9PEzOMF+s1RNZsfsNSyqs1jpEjjmicjmvlfpvrqmxV3WN9VVKs1o4IjihZ7u7TLWMmbNHRy5bcU80f4z9COyw2QAATfxBs2G5lc6G5x5lbaFIKGKldDI5Hu1Y571Xx26fvNNCXkrW066w0Tsjc7rZY7Y52+S2t5tr5o5vAjXL8Vs9iZSut+Q0l8WdXpI2lTbFu6aK7wn+NqWL0iOKdWz9nb/Lnmeniti0/a5XNFtlACR+Cd8s9ou15ludZFRxzW6SOJ0zkajnq9q7qa8q7OQv4LREzrzNZ7zbXJmx44x1m0xkieBreEmXQY5lkfnz0S0XFi0lxR+1iMf4r3JyaNdy/wB1VKcN+jbh4knvB2fO5289D/kp9qv1fpy6NHl9ttdtySupbVVx1ttbIrqOohdvtWJ/hNbvJyqxF3V6UKLxETwMh2dmyZMFbZKzW+nDE8/6+NpilNAJDs2OcPMixOmjgusFgyilcvnrrjKrYKhq8itc5Ua3upupqm1FRdil+ta2rx6S1vc7ze7bcTM0nNgt1ehHDX1/p5Gyv9xxnFuGVTh1Bdor5dLrUsqaualXep4Ua6N3gvTVF/cond2quzYe2mK06MTrqjbTDn3e/jdXpOLHjrpEW608f1oqI7bQDcYbU09Ll9jqqmRsVPBcKWWaV66NYxkzXOcq9xETUqpOloQu0qWvtslaxrM0tEfhls+Kdxobjn94raCdlTSTSMWKeNd5jkSJjV0VOXahVlmJtOiL2Fhvj2eOt46NoieCfHLlC2y4BvcErKWjzOyVdVK2GmgrYJJpnro1rWvRVcq9xCvHOloY/tXHa+1yVrGtppOkeRmcULhQ3HPrxWUM7KmkmlasU8a7zHIkbUVUVOXah7lnW06LPYeG+PZ463jo2iOKfHLli2ywAAkjCL5Z6PhhmFvqqyKGurEZ5rTPciPk2aeAnOX8doikw1ntTa5b7/BetZmlddZ5IRuWGzAACaOz5k2PWalvbbtcaehdM+nWFKiRse8jUk13d5U101JW2vEa6tI73bLNmtj9nS19ItrpGvMlz0j4F94KD5RH65K9rXnab8m3nur/AIZPSPgX3goPlEfrj2tec+Tbz3V/wyekfAvvBQfKI/XHta858m3nur/hk9I+BfeCg+UR+uPa15z5NvPdX/DJ6R8C+8FB8oj9ce1rznybee6v+GT0j4F94KD5RH649rXnPk2891f8MnpHwL7wUHyiP1x7WvOfJt57q/4ZPSPgX3goPlEfrj2tec+Tbz3V/wAMnpHwL7wUHyiP1x7WvOfJt57q/wCGT0j4F94KD5RH649rXnPk2891f8MnpHwL7wUHyiP1x7WvOfJt57q/4ZPSPgX3goPlEfrj2tec+Tbz3V/wyekfAvvBQfKI/XHta858m3nur/hk9I+BfeCg+UR+uPa15z5NvPdX/DJ6R8C+8FB8oj9ce1rznybee6v+GT0j4F94KD5RH649rXnPk2891f8ADJ6R8C+8FB8oj9ce1rznybee6v8Ahk9I+BfeCg+UR+uPa15z5NvPdX/DJ6R8C+8FB8oj9ce1rznybee6v+GT0j4F94KD5RH649rXnPk2891f8Mqx8Tq+iuGeXmsop2VNLNMixTxqjmORGNTVqpy7UMflnW0uqdiYrY9pjreOjaI4p8bly2yoAAAAAAAAAAAAAAAAAAAAAAAAAAAAAAAAAAAAAAAAAAAAAAAAAAAAAAAAAAAAAAAAAAAAAAAAAAAAAAAAAAAAAAAAAAAAAAAAAAAAAAAAAAAAAAAAAAAAAAAAAAAAAAAAAAAAAAAAAAAAAAAAAAAAAAAAAAAAAAAAAAAAAAAAAAAAAAAAAAAAAAAAAAAAAAAAAAAAAAAAAAAAAAAAAAAAAAAAAAAAAAAAAAAAAAAAAAAAAAAAAAAAAAAAAAAAAAAAAAAAAAAAAAAAAAAAAAAAAAAAAAAAAAAAAAAAAAAAAAAAAAAAAAAAAAAAAAAAAAAAAAAAAAAAAAAAAAAAAAAAAAAAAAAAAAAAAAAAAAAAAAAAAAAAAAAAAAAAAAAAAAAAAAAAAAAAAAAAAAAAAAAAAAAAAAAAAAAAAAAAAAAAAAAAAAAAAAAAAAAAAAAAAAAAAAAAAAAAAAAAAAAAAAAAAAAAAAAAAAAAAAAAAAAAAAAAAAAAAAAAAAAAAAAAAAAAAAAAAAAAAAAAAAAAAAAAAAAAAAAAAAAAAAAAAAAAAAAAAAAAAAAAAAAAAAAAAAAAAAAAAAAAAAAAAAAAAAAAAAAAAAAAAAAAAAAAAAAAAAAAAAAAAAAAAAAAAAAAAAAAAAAAAAAAAAAAAAAAAAAAAAAAAAAAAAAAAAAAAAAAAAAAAAAAAAAAAAAAAAAAAAAAAAAAAAAAAAAAAAAAAAAAAAAAAAAAAAAAAAAAAAAAAAAAAAAAAAAAAAAAAAAAAAAAAAAAAAAAAAAAAAAAAAAAAAAAAAAAAAAAAAAAAAAAAAAAAAAAAAAAAAAAAAAAAAAAAAAAAAAAAAAAAAAAAAAAAAAAAAAAAAAAAAAAAAAAAAAAAAAAAAAAAAAAAAAAAAAAAAAAAAAAAAAAAAAAAAAAAAAAAAAAAAAAAAAAAAAAAAAAAAAAAAAAAAAAAAAAAAAAAAAAAAAAAAAAAAAAAAAAAAAAAAAAAAAAAAAAAAAAAAAAAAAAAAAAAAAAAAAAAAAAAAAAAAAAAAAAAAAAAAAAAAAAAAAAAAAAAAAAAAAAAAAAAAAAAAAAAAAAAAAAAAAAAAAAAAAAAAAAAAAAAAAAAAAAAAAAAAAAAAAAAAAAAAAAAAAAAAAAAAAAAAAAAAAAAAAAAAAAAAAAAAAAAAAAAAAAAAAAAAAAAAAAAAAAAAAAAAAAAAAAAAAAAAAAAAAAAAAAAAAAAAAAAAAAAAAAAAAAAAAAAAAAAAAAAAAAAAAAAAAAAAAAAAAAAAAAAAAAAAAAAAAAAAAAAAAAAAAAAAAAAAAAAAAAAAAAAAAAAAAAAAAAAAAAAAAAAAAAAAAAAAAAAAAAAAAAAAAAAAAAAAAAAAAAAAAAAAAAAAAAAAAAAAAAAAAAAAAAAAAAAAAAAAAAAAAAAAAAAAAAAAAAAAAAAAAAAAAAAAAAAAAAAAAAAAAAAAAAAAAAAAAAAAAAAAAAAAAAAAAAAAAAAAAAAAAAAAAAAAAAAAAAAAAAAAAAAAAAAAAAAAAAAAAAAAAAAAAAAAAAAAAAAAAAAAAAAAAAAAAAAAAAAAAAAAAAAAAAAAAAAAAAAAAAAAAAAAAAAAAAAAAAAAAAAAAAAAAAAAAAAAAAAAAAAAAAAAAAAAAAAAAAAAAAAAAAAAAAAAAAAAAAAAAAAAAAAAAAAAAAAAAAAAAAAAAAAAAAAAAAAAAAAAAAAAAAAAAAAAAAAAAAAAAAAAAAAAAAAAAAAAAAAAAAAAAAAAAAAAAAAAAAAAAAAAAAAAAAAAAAAAAAAAAAAAAAAAAAAAAAAAAAAAAAAAAAAAAAAAAAAAAAAAAAAAAAAAAAAAAAAAAAAAAAAAAAAAAAAAAAAAAAAAAAAAAAAAAAAAAAAAAAAAAAAAAAAAAAAAAAAAAAAAAAAAAAAAAAAAAAAAAAAAAAAAAAAAAAAAAAAAAAAAAAAAAAAAAAAAAAAAAAAAAAAAAAAAAAAAAAAAAAAAAAAAAAAAAAAAAAAAAAAAAAAAAAAAAAAAAAAAAAAAAAAAAAAAAAAAAAAAAAAAAAAAAAAAAAAAAAAAAAAAAAAAAAAAAAAAAAAAAAAAAAAAAAAAAAAAAAAAAAAAAAAAAAAAAAAAAAAAAAAAAAAAAAAAAAAAAAAAAAAAAAAAAAAAAAAAAAAAAAAAAAAAAAAAAAAAAAAAAAAAAAAAAAAAAAAAAAAAAAAAAAAAAAAAAAAAAAAAAAAAAAAAAAAAAAAAAAAAAAAAAAAAAAAAAAAAAAAAAAAAAAAAAAAAAAAAAAAAAAAAAAAAAAAAAAAAAAAAAAAAAAAAAAAAAAAAAAAAAAAAAAAAAAAAAAAAAAAAAAAAAAAAAAAAAAAAAAAAAAAAAAAAAAAAAAAAAAAAAAAAAAAAAAAAAAAAAAAAAAB//Z;clipPath=inset(27.54% 21.33% 26.81% 21%);" vertex="1" parent="1">
          <mxGeometry x="550" y="130" width="795.24" height="289.6" as="geometry" />
        </mxCell>
        <mxCell id="-DLyb005Au-b9Tz6lp2c-3" value="" style="rounded=0;whiteSpace=wrap;html=1;strokeColor=none;fillColor=#FFFFFF;" vertex="1" parent="1">
          <mxGeometry x="480" y="130" width="10" height="290" as="geometry" />
        </mxCell>
      </root>
    </mxGraphModel>
  </diagram>
</mxfile>
